ply
format ascii 1.0
comment A synthetic hexagon, subdivided by triangles, with a Dirac delta function applied.
comment made by Bryan Wolfford
element vertex 133
property int x
property int y
property int z
property float quality
element face 222
property list uchar int32 vertex_indices
end_header
0 0 0 1
-0.866025 0.5 0 0
-0.866025 -0.5 0 0
0 -1 0 0
0.866025 -0.5 0 0
0.866025 0.5 0 0
0 1 0 0
0.866025 1.5 0 0
1.73205 2 0 0
0.866025 2.5 0 0
0 2 0 0
-0.866025 1.5 0 0
-0.866025 2.5 0 0
-1.73205 2 0 0
-1.73205 1 0 0
-1.73205 0 0 0
-2.59808 0.5 0 0
-2.59808 -0.5 0 0
-1.73205 -1 0 0
-0.866025 -1.5 0 0
-1.73205 -2 0 0
-0.866025 -2.5 0 0
0 -2 0 0
0.866025 -1.5 0 0
0.866025 -2.5 0 0
1.73205 -2 0 0
1.73205 -1 0 0
1.73205 0 0 0
2.59808 -0.5 0 0
2.59808 0.5 0 0
1.73205 1 0 0
2.59808 1.5 0 0
3.4641 2 0 0
2.59808 2.5 0 0
1.73205 3 0 0
2.59808 3.5 0 0
1.73205 4 0 0
0.866025 3.5 0 0
0 3 0 0
0 4 0 0
-0.866025 3.5 0 0
-1.73205 3 0 0
-1.73205 4 0 0
-2.59808 3.5 0 0
-2.59808 2.5 0 0
-2.59808 1.5 0 0
-3.4641 2 0 0
-3.4641 1 0 0
-3.4641 0 0 0
-4.33013 0.5 0 0
-4.33013 -0.5 0 0
-3.4641 -1 0 0
-2.59808 -1.5 0 0
-3.4641 -2 0 0
-2.59808 -2.5 0 0
-1.73205 -3 0 0
-2.59808 -3.5 0 0
-1.73205 -4 0 0
-0.866025 -3.5 0 0
0 -3 0 0
0 -4 0 0
0.866025 -3.5 0 0
1.73205 -3 0 0
1.73205 -4 0 0
2.59808 -3.5 0 0
2.59808 -2.5 0 0
2.59808 -1.5 0 0
3.4641 -2 0 0
3.4641 -1 0 0
3.4641 0 0 0
4.33013 -0.5 0 0
4.33013 0.5 0 0
3.4641 1 0 0
4.33013 1.5 0 0
5.19615 2 0 0
4.33013 2.5 0 0
3.4641 3 0 0
4.33013 3.5 0 0
3.4641 4 0 0
2.59808 4.5 0 0
3.4641 5 0 0
2.59808 5.5 0 0
1.73205 5 0 0
0.866025 4.5 0 0
0.866025 5.5 0 0
0 5 0 0
-0.866025 4.5 0 0
-0.866025 5.5 0 0
-1.73205 5 0 0
-2.59808 4.5 0 0
-2.59808 5.5 0 0
-3.4641 5 0 0
-3.4641 4 0 0
-3.4641 3 0 0
-4.33013 3.5 0 0
-4.33013 2.5 0 0
-4.33013 1.5 0 0
-5.19615 2 0 0
-5.19615 1 0 0
-5.19615 0 0 0
-6.06218 0.5 0 0
-6.06218 -0.5 0 0
-5.19615 -1 0 0
-4.33013 -1.5 0 0
-5.19615 -2 0 0
-4.33013 -2.5 0 0
-3.4641 -3 0 0
-4.33013 -3.5 0 0
-3.4641 -4 0 0
-2.59808 -4.5 0 0
-3.4641 -5 0 0
-2.59808 -5.5 0 0
-1.73205 -5 0 0
-0.866025 -4.5 0 0
-0.866025 -5.5 0 0
0 -5 0 0
0.866025 -4.5 0 0
0.866025 -5.5 0 0
1.73205 -5 0 0
2.59808 -4.5 0 0
2.59808 -5.5 0 0
3.4641 -5 0 0
3.4641 -4 0 0
3.4641 -3 0 0
4.33013 -3.5 0 0
4.33013 -2.5 0 0
4.33013 -1.5 0 0
5.19615 -2 0 0
5.19615 -1 0 0
5.19615 0 0 0
6.06218 -0.5 0 0
6.06218 0.5 0 0
5.19615 1 0 0
3 0 1 2
3 0 2 3
3 0 3 4
3 0 4 5
3 0 5 6
3 0 6 1
3 7 8 9
3 7 9 10
3 7 10 6
3 7 6 5
3 7 5 30
3 7 30 8
3 11 12 13
3 11 13 14
3 11 14 1
3 11 1 6
3 11 6 10
3 11 10 12
3 15 16 17
3 15 17 18
3 15 18 2
3 15 2 1
3 15 1 14
3 15 14 16
3 19 20 21
3 19 21 22
3 19 22 3
3 19 3 2
3 19 2 18
3 19 18 20
3 23 24 25
3 23 25 26
3 23 26 4
3 23 4 3
3 23 3 22
3 23 22 24
3 27 28 29
3 27 29 30
3 27 30 5
3 27 5 4
3 27 4 26
3 27 26 28
3 31 32 33
3 31 33 8
3 31 8 30
3 31 30 29
3 31 29 72
3 31 72 32
3 34 35 36
3 34 36 37
3 34 37 9
3 34 9 8
3 34 8 33
3 34 33 35
3 38 39 40
3 38 40 12
3 38 12 10
3 38 10 9
3 38 9 37
3 38 37 39
3 41 42 43
3 41 43 44
3 41 44 13
3 41 13 12
3 41 12 40
3 41 40 42
3 45 46 47
3 45 47 16
3 45 16 14
3 45 14 13
3 45 13 44
3 45 44 46
3 48 49 50
3 48 50 51
3 48 51 17
3 48 17 16
3 48 16 47
3 48 47 49
3 52 53 54
3 52 54 20
3 52 20 18
3 52 18 17
3 52 17 51
3 52 51 53
3 55 56 57
3 55 57 58
3 55 58 21
3 55 21 20
3 55 20 54
3 55 54 56
3 59 60 61
3 59 61 24
3 59 24 22
3 59 22 21
3 59 21 58
3 59 58 60
3 62 63 64
3 62 64 65
3 62 65 25
3 62 25 24
3 62 24 61
3 62 61 63
3 66 67 68
3 66 68 28
3 66 28 26
3 66 26 25
3 66 25 65
3 66 65 67
3 69 70 71
3 69 71 72
3 69 72 29
3 69 29 28
3 69 28 68
3 69 68 70
3 73 74 75
3 73 75 32
3 73 32 72
3 73 72 71
3 73 71 132
3 73 132 74
3 76 77 78
3 76 78 35
3 76 35 33
3 76 33 32
3 76 32 75
3 76 75 77
3 79 80 81
3 79 81 82
3 79 82 36
3 79 36 35
3 79 35 78
3 79 78 80
3 83 84 85
3 83 85 39
3 83 39 37
3 83 37 36
3 83 36 82
3 83 82 84
3 86 87 88
3 86 88 42
3 86 42 40
3 86 40 39
3 86 39 85
3 86 85 87
3 89 90 91
3 89 91 92
3 89 92 43
3 89 43 42
3 89 42 88
3 89 88 90
3 93 94 95
3 93 95 46
3 93 46 44
3 93 44 43
3 93 43 92
3 93 92 94
3 96 97 98
3 96 98 49
3 96 49 47
3 96 47 46
3 96 46 95
3 96 95 97
3 99 100 101
3 99 101 102
3 99 102 50
3 99 50 49
3 99 49 98
3 99 98 100
3 103 104 105
3 103 105 53
3 103 53 51
3 103 51 50
3 103 50 102
3 103 102 104
3 106 107 108
3 106 108 56
3 106 56 54
3 106 54 53
3 106 53 105
3 106 105 107
3 109 110 111
3 109 111 112
3 109 112 57
3 109 57 56
3 109 56 108
3 109 108 110
3 113 114 115
3 113 115 60
3 113 60 58
3 113 58 57
3 113 57 112
3 113 112 114
3 116 117 118
3 116 118 63
3 116 63 61
3 116 61 60
3 116 60 115
3 116 115 117
3 119 120 121
3 119 121 122
3 119 122 64
3 119 64 63
3 119 63 118
3 119 118 120
3 123 124 125
3 123 125 67
3 123 67 65
3 123 65 64
3 123 64 122
3 123 122 124
3 126 127 128
3 126 128 70
3 126 70 68
3 126 68 67
3 126 67 125
3 126 125 127
3 129 130 131
3 129 131 132
3 129 132 71
3 129 71 70
3 129 70 128
3 129 128 130
