ply
format ascii 1.0
comment A synthetic circle, subdivided by triangles, whose vertexes are randomly generated, with a Dirac delta function applied.
comment made by Bryan Wolfford
element vertex 1000
property int x
property int y
property int z
property float quality
element face 0
property list uchar int32 vertex_indices
end_header
0 0 0 1
226.554 -183.591 0 0
-349.123 260.389 0 0
-800.94 -319.387 0 0
-897.324 -66.1555 0 0
975.668 -207.739 0 0
-373.645 -535.201 0 0
615.44 -763.392 0 0
-466.113 277.065 0 0
177.509 -695.258 0 0
613.725 409.408 0 0
369.302 -543.945 0 0
314.055 821.106 0 0
369.367 802.455 0 0
-298.419 700.063 0 0
641.11 -31.0194 0 0
-205.765 348.688 0 0
126.071 245.61 0 0
-189.098 39.2659 0 0
749.984 334.121 0 0
316.461 538.178 0 0
684.301 -722.867 0 0
-698.741 -429.434 0 0
-421.121 -278.696 0 0
-66.8954 516.957 0 0
-208.368 -229.157 0 0
369.034 -122.829 0 0
-19.3097 -205.503 0 0
117.136 672.143 0 0
-598.581 -461.719 0 0
-426.706 -718.278 0 0
3.91313 -416.698 0 0
17.6663 -908.078 0 0
-553.072 -114.721 0 0
101.659 -370.432 0 0
262.941 -918.364 0 0
-96.8035 -6.12263 0 0
-505.608 -199.886 0 0
-261.455 660.162 0 0
966.633 -219.544 0 0
-220.975 632.245 0 0
75.9762 -224.58 0 0
941.26 312.797 0 0
387.503 299.408 0 0
-724.693 -98.0661 0 0
-236.844 523.34 0 0
-92.5254 -984.529 0 0
929.741 298.66 0 0
702.037 282.279 0 0
893.211 -117.481 0 0
-395.322 263.716 0 0
22.5214 -786.473 0 0
932.025 217.527 0 0
749.372 -518.669 0 0
-383.121 -170.912 0 0
-451.705 352.341 0 0
277.478 622.542 0 0
-389.874 -324.804 0 0
279.779 343.842 0 0
261.764 -775.128 0 0
-388.491 70.5022 0 0
505.334 -19.1305 0 0
480.017 -684.357 0 0
94.2107 245.979 0 0
-83.8478 33.4093 0 0
410.848 469.912 0 0
-484.614 119.92 0 0
223.774 805.18 0 0
-336.333 262.948 0 0
-80.8278 -368.686 0 0
-444.145 525.218 0 0
17.3372 -3.06976 0 0
-278.69 -406.114 0 0
-797.64 -551.335 0 0
-466.006 828.671 0 0
-249.102 -491.926 0 0
-564.062 362.794 0 0
-27.141 -785.855 0 0
-97.5184 -194.512 0 0
-131.711 -29.1584 0 0
-697.874 671.673 0 0
-315.589 -626.669 0 0
695.197 -548.534 0 0
-370.392 768.068 0 0
30.6579 379.865 0 0
99.0012 449.58 0 0
13.4528 -760.26 0 0
594.389 661.012 0 0
-432.158 440.107 0 0
-338.774 -435.608 0 0
185.536 -887.837 0 0
183.786 700.431 0 0
-509.219 -612.146 0 0
-364.275 -778.62 0 0
631.36 28.1268 0 0
336.385 -386.907 0 0
-569.751 -565.318 0 0
-669.204 -422.138 0 0
-735.545 -652.287 0 0
-495.838 -471.619 0 0
249.161 310.987 0 0
763.336 531.346 0 0
-308.787 599.054 0 0
478.831 533.929 0 0
259.564 48.7254 0 0
958.535 -254.48 0 0
-32.6236 30.8523 0 0
193.139 606.989 0 0
-57.4716 -594.029 0 0
-491.618 619.297 0 0
-182.568 -289.451 0 0
428.651 817.881 0 0
-283.093 -315.712 0 0
-629.422 289.945 0 0
854.02 156.996 0 0
-222.957 -179.82 0 0
490.916 -640.5 0 0
-306.683 -427.359 0 0
167.212 208.305 0 0
334.368 -118.631 0 0
843.519 -474.346 0 0
-37.595 -335.753 0 0
-859.459 9.53993 0 0
-102.646 -823.293 0 0
708.773 -636.409 0 0
601.659 -665.66 0 0
-643.52 78.8408 0 0
181.465 859.326 0 0
99.5009 -74.1508 0 0
661.68 394.188 0 0
-100.645 394.397 0 0
885.823 -450.216 0 0
449.175 -798.316 0 0
-236.27 -357.869 0 0
-361.99 301.929 0 0
788.29 281.885 0 0
-417.094 -828.562 0 0
817.232 54.4964 0 0
-111.011 -183.39 0 0
-337.924 909.19 0 0
756.952 615.527 0 0
-680.833 685.456 0 0
16.1669 385.408 0 0
347.863 521.955 0 0
612.463 -95.8203 0 0
-382.405 824.504 0 0
-423.348 74.9345 0 0
-513.022 761.776 0 0
-747.335 326.714 0 0
49.7532 -625.176 0 0
830.647 -322.223 0 0
699.638 -164.568 0 0
-210.96 386.361 0 0
594.333 -432.943 0 0
-445.053 59.0726 0 0
399.737 -802.143 0 0
508.049 -176.422 0 0
-76.1126 -363.685 0 0
165.048 860.07 0 0
306.676 259.296 0 0
-545.955 -768.615 0 0
866.118 -412.63 0 0
-632.422 -292.582 0 0
-26.6727 -381.731 0 0
-704.096 629.344 0 0
-2.86526 196.252 0 0
88.3369 -907.193 0 0
608.286 -317.026 0 0
495.159 -399.179 0 0
-239.306 742.173 0 0
-148.639 -624.713 0 0
-773.284 99.1275 0 0
292.001 466.88 0 0
-123.281 665.54 0 0
-863.222 345.496 0 0
400.545 -753.352 0 0
44.9261 155.667 0 0
392.58 647.716 0 0
57.1436 634.065 0 0
-452.461 -529.646 0 0
-829.052 -179.89 0 0
-202.937 -223.68 0 0
705.967 396.033 0 0
-290.237 -263.609 0 0
75.2403 727.885 0 0
-177.567 631.782 0 0
-662.519 -702.454 0 0
-214.715 -693.92 0 0
616.068 -338.808 0 0
836.165 -196.915 0 0
673.505 614.923 0 0
-406.594 -622.053 0 0
94.5339 -945.796 0 0
-989.721 -4.59118 0 0
475.5 -462.125 0 0
180.551 69.1631 0 0
231.604 710.382 0 0
-408.319 -616.262 0 0
-139.257 419.893 0 0
-145.388 -705.321 0 0
-460.786 -408.711 0 0
-8.5356 -534.384 0 0
-633.907 -331.827 0 0
959.524 -224.155 0 0
838.498 150.813 0 0
-201.994 -853.721 0 0
-61.2248 690.319 0 0
-339.664 -383.484 0 0
-937.763 -242.86 0 0
-610.14 518.413 0 0
434.75 -144.199 0 0
-564.559 771.397 0 0
509.133 127.771 0 0
-293.835 -749.967 0 0
-399.5 -896.113 0 0
535.677 -761.535 0 0
821.041 309.776 0 0
-272.4 173.732 0 0
438.854 -596.257 0 0
210.034 -45.3865 0 0
-864.388 -204.066 0 0
-401.08 389.853 0 0
920.716 -178.082 0 0
857.147 5.88171 0 0
626.03 -254.68 0 0
-361.923 521.876 0 0
44.6583 -490.527 0 0
-842.676 -88.2404 0 0
651.88 -739.673 0 0
8.2445 -491.888 0 0
150.934 -37.9407 0 0
-684.006 -425.054 0 0
-492.595 192.398 0 0
107.352 -923.058 0 0
485.312 189.02 0 0
-121.538 -449.265 0 0
-518.153 157.491 0 0
208.973 -293.859 0 0
-123.76 486.203 0 0
394.581 30.9717 0 0
-611.756 594.393 0 0
-270.048 -189.715 0 0
-352.734 -642.839 0 0
-398.628 554.04 0 0
134.246 -779.808 0 0
365.712 -374.003 0 0
-857.858 -210.597 0 0
-959.229 176.569 0 0
580.693 -528.6 0 0
642.808 253.679 0 0
132.169 405.508 0 0
8.80969 -983.276 0 0
-142.535 887.068 0 0
-378.513 -781.42 0 0
-206.472 247.346 0 0
266.952 -51.7614 0 0
-241.653 -666.643 0 0
-434.181 222.607 0 0
-134.977 -399.324 0 0
359.01 213.419 0 0
440.869 820.974 0 0
-312.791 -214.162 0 0
-536.799 729.352 0 0
343.739 -713.076 0 0
345.201 614.995 0 0
140.266 256.095 0 0
211.761 -331.715 0 0
-483.728 179.145 0 0
321.465 -769.599 0 0
7.45819 374.037 0 0
272.58 -93.7527 0 0
-429.624 51.0385 0 0
-278.759 -451.825 0 0
-531.03 779.758 0 0
593.015 21.1428 0 0
405.277 -275.359 0 0
406.586 216.471 0 0
42.5744 -88.7684 0 0
-585.515 -608.268 0 0
-763.651 114.303 0 0
-531.274 492.225 0 0
-101.31 254.508 0 0
-378.051 884.818 0 0
-579.209 -638.514 0 0
49.0301 106.538 0 0
362.746 -327.834 0 0
304.325 -548.463 0 0
991.473 41.9269 0 0
-428.424 392.323 0 0
610.825 527.523 0 0
-210.437 386.836 0 0
60.5189 -870.804 0 0
793.192 -10.8541 0 0
-829.476 376.952 0 0
-166.826 -77.1944 0 0
246.409 -26.9858 0 0
-575.12 334.026 0 0
-236.506 -184.338 0 0
-720.704 -36.5239 0 0
-259.416 50.6226 0 0
340.143 294.61 0 0
-912.678 178.569 0 0
834.621 486.12 0 0
-193.613 -521.975 0 0
-735.372 417.209 0 0
-728.107 -120.442 0 0
219.126 -693.865 0 0
86.4731 15.5476 0 0
431.883 -235.151 0 0
-487.888 419.447 0 0
-3.31993 -726.683 0 0
916.678 -201.169 0 0
-90.09 763.364 0 0
112.455 -765.464 0 0
-456.719 108.506 0 0
703.609 -167.828 0 0
412.75 2.66488 0 0
-370.423 -238.367 0 0
266.458 -789.151 0 0
-377.646 -763.283 0 0
-666.305 -222.905 0 0
264.656 -477.411 0 0
-11.8788 873.34 0 0
325.113 880.791 0 0
728.994 668.283 0 0
230.451 660.192 0 0
369.654 -786.229 0 0
-457.765 -33.9822 0 0
-415.117 754.165 0 0
-367.887 -549.03 0 0
-781.535 543.28 0 0
300.482 -622.29 0 0
182.055 50.5879 0 0
132.614 -425.784 0 0
-21.3168 -68.1305 0 0
672.687 -4.23438 0 0
-252.308 -200.551 0 0
-298.8 381.997 0 0
-720.045 -223.166 0 0
561.825 420.707 0 0
-188.74 270.071 0 0
686.256 -593.772 0 0
354.646 762.638 0 0
64.6881 919.02 0 0
107.537 -936.573 0 0
-971.289 -83.0969 0 0
-57.1157 649.299 0 0
-561.332 171.732 0 0
333.412 238.245 0 0
-199.995 599.427 0 0
933.372 191.539 0 0
-180.975 369.207 0 0
141.764 255.545 0 0
-647.091 712.982 0 0
-510.645 -186.798 0 0
376.647 637.579 0 0
744.674 345.439 0 0
694.962 -152.695 0 0
-835.231 345.049 0 0
-465.783 -147.445 0 0
-16.2536 -780.491 0 0
-311.149 686.49 0 0
-262.846 -308.233 0 0
118.997 452.375 0 0
33.115 -516.199 0 0
-393.066 -336.339 0 0
481.828 -478.367 0 0
-247.425 -950.844 0 0
2.04803 -176.888 0 0
902.78 292.199 0 0
-699.337 -645.677 0 0
167.989 -853.67 0 0
358.881 -616.849 0 0
113.744 -857.526 0 0
700.474 -624.606 0 0
894.86 -101.2 0 0
-412.987 79.1831 0 0
779.51 -410.446 0 0
-671.103 413.355 0 0
-683.742 -231.192 0 0
572.336 679.172 0 0
544.069 387.848 0 0
919.96 348.184 0 0
283.956 306.46 0 0
-563.47 569.366 0 0
-13.5125 260.994 0 0
112.501 -431.873 0 0
-240.166 -84.7748 0 0
858.608 -423.464 0 0
219.253 -378.591 0 0
-315.611 417.489 0 0
-161.884 596.37 0 0
768.265 -540.867 0 0
709.09 -201.168 0 0
-121.189 -665.762 0 0
-396.662 615.327 0 0
-467.36 871.05 0 0
-27.1132 203.048 0 0
17.493 60.4502 0 0
578.983 39.518 0 0
-581.207 715.474 0 0
148.726 883.398 0 0
-415.766 864.507 0 0
929.72 54.4815 0 0
-421.409 -474.534 0 0
-121.371 248.775 0 0
-170.408 185.951 0 0
548.72 -36.4728 0 0
481.411 689.202 0 0
38.2137 -758.783 0 0
-935.372 219.352 0 0
-163.591 190.71 0 0
232.096 785.861 0 0
-315.838 617.406 0 0
934.64 284.133 0 0
75.3739 -966.62 0 0
768.244 -50.9492 0 0
-656.709 561.051 0 0
-277.53 -272.85 0 0
-285.069 -921.988 0 0
756.308 -93.1635 0 0
275.29 31.6017 0 0
598.001 -787.769 0 0
757.922 547.062 0 0
39.8301 -827.983 0 0
589.584 -19.7025 0 0
-56.4931 -560.851 0 0
284.646 -305.466 0 0
422.875 -487.937 0 0
658.756 156.889 0 0
10.9608 -537.994 0 0
-532.929 -285.204 0 0
894.85 -34.7973 0 0
327.554 509.876 0 0
-107.69 960.901 0 0
-251.055 439.891 0 0
767.522 294.398 0 0
679.652 -384.905 0 0
675.921 -710.154 0 0
137.824 -398.071 0 0
952.833 -129.298 0 0
-369.64 533.233 0 0
472.081 427.22 0 0
539.036 -807.385 0 0
-632.513 -600.561 0 0
-547.442 -461.872 0 0
-31.0972 661.795 0 0
380.078 -883.212 0 0
-387.86 339.541 0 0
604.746 -104.464 0 0
-405.002 844.967 0 0
-373.815 90.934 0 0
445.282 -627.567 0 0
375.843 -528.913 0 0
-815.323 -259.277 0 0
307.339 443.627 0 0
-11.2211 381.521 0 0
899.954 128.87 0 0
120.623 328.325 0 0
545.16 20.0285 0 0
-291.699 735.633 0 0
-321.486 416.285 0 0
-219.028 756.608 0 0
-259.151 20.4221 0 0
698.636 602.446 0 0
485.913 736.164 0 0
482.652 629.98 0 0
109.441 842.096 0 0
-468.388 269.762 0 0
419.978 -214.524 0 0
-730.039 -48.5673 0 0
386.561 -713.501 0 0
-226.457 -584.252 0 0
-660.308 -85.7591 0 0
-679.619 525.392 0 0
-588.364 338.597 0 0
540.766 392.996 0 0
-599.492 463.594 0 0
-139.249 -870.373 0 0
785.498 -215.203 0 0
189.554 -972.53 0 0
-369.303 -353.488 0 0
-62.7303 -702.794 0 0
312.472 465.494 0 0
565.631 -166.333 0 0
-72.7243 -559.985 0 0
49.952 825.099 0 0
228.485 -727.251 0 0
181.713 -688.72 0 0
-548.34 -206.63 0 0
-825.203 388.947 0 0
344.302 900.666 0 0
862.409 192.001 0 0
-344.002 -210.642 0 0
-0.406079 -31.8809 0 0
-657.174 9.8026 0 0
584.818 -527.053 0 0
36.9052 995.031 0 0
-111.177 170.515 0 0
-248.092 -89.1883 0 0
507.541 25.0526 0 0
-706.083 -574.516 0 0
347.138 -261.479 0 0
-906.777 -375.598 0 0
-572.067 278.788 0 0
-502.146 461.168 0 0
-933.547 -228.837 0 0
-695.851 -148.369 0 0
-350.126 515.408 0 0
385.228 570.787 0 0
519.45 -823.301 0 0
-720.256 346.033 0 0
986.675 1.61949 0 0
380.66 351.725 0 0
-438.748 826.382 0 0
-475.781 -283.379 0 0
752.465 648.872 0 0
-380.348 583.762 0 0
726.969 547.014 0 0
-682.387 178.13 0 0
630.601 194.175 0 0
-464.111 201.567 0 0
-138.355 188.599 0 0
915.877 -7.0456 0 0
50.0623 -602.051 0 0
-404.405 -76.7399 0 0
-21.5081 100.38 0 0
-867.412 281.813 0 0
531.128 620.675 0 0
744.889 -133.031 0 0
-868.872 -294.426 0 0
227.637 -865.538 0 0
386.626 -736.992 0 0
548.804 -54.4032 0 0
-820.725 -200.935 0 0
501.116 -92.7674 0 0
943.502 -249.317 0 0
632.207 635.25 0 0
-518.94 319.301 0 0
533.437 -483.34 0 0
82.0068 841.448 0 0
151.659 -583.707 0 0
-310.229 474.965 0 0
446.036 883.677 0 0
-547.202 -71.1563 0 0
-279.566 256.623 0 0
-259.74 -418.96 0 0
802.395 454.112 0 0
93.8339 24.2389 0 0
-591.677 663.581 0 0
-163.204 -456.137 0 0
405.659 -872.693 0 0
458.324 -195.722 0 0
128.651 -530.585 0 0
-961.859 -269.414 0 0
-24.0004 310.09 0 0
-353.694 -159.021 0 0
-905.784 212.926 0 0
-869.889 229.969 0 0
525.518 481.192 0 0
-572.862 -437.991 0 0
279.881 -761.652 0 0
305.696 -675.505 0 0
104.189 -382.916 0 0
-12.6336 -552.854 0 0
-43.9932 -99.258 0 0
769.491 -315.748 0 0
631.61 2.5122 0 0
-735.198 -128.065 0 0
-481.205 518.641 0 0
-564.359 -384.473 0 0
-34.3478 -818.459 0 0
806.149 -448.305 0 0
-777.258 -365.696 0 0
-601.711 -304.331 0 0
292.717 -244.661 0 0
-407.655 -49.0535 0 0
694.072 466.297 0 0
-160.623 -959.898 0 0
-356.935 702.92 0 0
917.662 18.9155 0 0
-641.429 -622.972 0 0
812.003 -465.861 0 0
-226.383 925.139 0 0
-115.67 -552.488 0 0
-296.243 -223.253 0 0
-481.504 -109.022 0 0
-28.3138 -974.953 0 0
-238.474 -360.098 0 0
-441.027 442.76 0 0
873.223 339.599 0 0
-308.27 -862.416 0 0
95.549 -418.291 0 0
179.696 -877.624 0 0
-854.391 -466.864 0 0
742.717 166.698 0 0
562.572 -231.869 0 0
694.663 -79.3137 0 0
-855.146 188.596 0 0
-166.501 155.245 0 0
61.6576 171.408 0 0
436.941 632.286 0 0
53.5465 379.525 0 0
-961.97 -121.208 0 0
-94.3094 185.56 0 0
-419.506 714.885 0 0
585.59 -220.941 0 0
799.644 -592.607 0 0
-761.975 288.969 0 0
-339.324 582.754 0 0
-99.2947 935.199 0 0
-957.51 115.52 0 0
-716.135 -468.558 0 0
402.735 423.282 0 0
786.032 -453.217 0 0
-178.618 926.423 0 0
-428.115 -626.193 0 0
-738.279 -552.288 0 0
-90.0066 -195.423 0 0
443.279 859.048 0 0
-348.682 204.919 0 0
131.081 883.126 0 0
690.549 698.231 0 0
726.866 587.969 0 0
608.301 -320.78 0 0
-710.205 -303.895 0 0
850.593 98.5378 0 0
84.2424 668.386 0 0
119.337 567.935 0 0
-138.003 310.67 0 0
-57.4269 337.696 0 0
329.336 -745.57 0 0
-835.785 244.561 0 0
188.261 -244.433 0 0
-245.629 9.33188 0 0
104.916 850.847 0 0
374.92 -755.935 0 0
-51.0108 887.998 0 0
537.974 362.165 0 0
774.997 -235.405 0 0
486.182 -552.32 0 0
-649.879 -374.862 0 0
-114.279 792.861 0 0
-834.379 -267.105 0 0
-540.698 496.389 0 0
-462.297 -171.703 0 0
726.8 218.514 0 0
583.379 278.742 0 0
290.58 494.987 0 0
843.956 207.446 0 0
494.825 495.478 0 0
-352.643 740.798 0 0
526.216 -702.27 0 0
138.565 -459.506 0 0
245.748 782.992 0 0
-675.167 -670.58 0 0
-47.174 -787.403 0 0
13.207 -258.588 0 0
211.628 -567.251 0 0
752.34 -450.259 0 0
-73.1907 119.807 0 0
-120.385 581.66 0 0
-471.769 -191.28 0 0
-375.281 -790.001 0 0
20.3034 -953.445 0 0
-809.912 -427.737 0 0
-883.524 -123.176 0 0
-5.34842 610.271 0 0
621.733 -714.063 0 0
277.468 107.254 0 0
-390.286 760.079 0 0
-840.386 -468.126 0 0
-42.0847 -673.799 0 0
150.805 886.567 0 0
-219.7 -79.302 0 0
-390.573 739.994 0 0
480.929 -485.485 0 0
-80.5119 -237.656 0 0
-107.425 104.655 0 0
-92.4271 -361.864 0 0
-1.88164 -12.6833 0 0
-0.341377 246.387 0 0
797.73 -34.296 0 0
110.193 613.782 0 0
-490.791 -128.156 0 0
-537.318 672.551 0 0
61.9281 -180.54 0 0
-825.576 210.555 0 0
362.55 335.842 0 0
916.09 259.221 0 0
-345.365 211.498 0 0
-173.988 -860.817 0 0
191.173 -264.118 0 0
384.035 -488.608 0 0
725.443 590.726 0 0
85.2556 -586.941 0 0
1.53314 -403.609 0 0
356.429 787.34 0 0
-566.326 -278.529 0 0
-471.289 402.032 0 0
-540.554 829.609 0 0
688.994 351.714 0 0
590.685 -516.914 0 0
893.284 113.013 0 0
-328.944 716.42 0 0
-354.337 -682.886 0 0
499.418 -185.744 0 0
-51.3367 122.229 0 0
-330.218 382.574 0 0
577.272 -390.982 0 0
497.35 -10.3391 0 0
148.917 -382.515 0 0
308.339 672.721 0 0
27.8673 -775.557 0 0
928.192 105.241 0 0
-6.57541 -891.289 0 0
403.774 -342.826 0 0
176.132 263.74 0 0
-22.853 974.662 0 0
61.6091 -718.648 0 0
433.219 148.676 0 0
153.912 -365.701 0 0
-502.982 47.1952 0 0
-604.361 214.82 0 0
187.324 973.584 0 0
-593.181 -761.845 0 0
181.971 -297.116 0 0
-496.949 309.67 0 0
190.582 405.805 0 0
-448.092 558.735 0 0
-147.579 -778.137 0 0
-280.927 -287.348 0 0
75.7044 -134.997 0 0
518.422 820.727 0 0
-678.288 -150.343 0 0
-356.717 -525.393 0 0
-190.685 230.714 0 0
835.348 117.054 0 0
214.081 -51.1203 0 0
764.347 -579.711 0 0
502.859 -240.29 0 0
723.739 489.653 0 0
530.3 -384.34 0 0
-57.0341 615.414 0 0
-705.761 -532.34 0 0
544.402 203.133 0 0
-490.123 -819.096 0 0
-145.418 -462.301 0 0
306.628 68.1906 0 0
-571.938 -157.746 0 0
-718.358 235.605 0 0
369.159 -711.334 0 0
498.634 228.906 0 0
339.82 -750.847 0 0
274.601 325.322 0 0
276.978 -476.427 0 0
834.129 297.931 0 0
-530.695 -553.018 0 0
900.284 -12.9421 0 0
-597.98 -73.8858 0 0
221.096 292.608 0 0
921.077 301.689 0 0
180.667 -29.4394 0 0
-335.023 -633.006 0 0
471.707 -93.2889 0 0
29.8288 161.041 0 0
654.993 -524.372 0 0
418.94 890.9 0 0
102.038 380.691 0 0
12.5595 170.679 0 0
739.448 -74.4848 0 0
40.5007 -696.051 0 0
429.25 -889.809 0 0
444.92 295.283 0 0
809.351 -19.4686 0 0
575.426 -496.227 0 0
548.95 -54.6065 0 0
-316.216 659.995 0 0
622.212 -628.923 0 0
336.442 499.304 0 0
-372.711 850.418 0 0
337.983 782.471 0 0
-96.729 -387.883 0 0
335.549 828.815 0 0
-870.497 -448.494 0 0
213.921 -382.339 0 0
776.388 -502.031 0 0
35.4089 64.0706 0 0
-431.68 845.814 0 0
537.673 219.4 0 0
-581.677 -524.91 0 0
721.536 -36.3343 0 0
-497.753 -646.19 0 0
409.299 468.834 0 0
821.699 221.229 0 0
752.006 42.7681 0 0
17.863 -154.665 0 0
-373.99 779.184 0 0
157.477 -634.229 0 0
-324.056 414.059 0 0
-580.423 -669.086 0 0
-663.034 -504.1 0 0
-497.201 -238.383 0 0
408.593 -716.698 0 0
-137.403 406.33 0 0
31.3263 -962.11 0 0
250.698 -875.844 0 0
-89.0186 -484.261 0 0
276.042 782.454 0 0
-358.609 -680.807 0 0
-325.272 300.687 0 0
155.739 -650.897 0 0
393.179 -912.009 0 0
-490.213 -548.19 0 0
-868.846 261.878 0 0
-26.4865 -607.394 0 0
-861.412 499.633 0 0
552.712 492.203 0 0
66.9801 109.83 0 0
-249.997 626.542 0 0
-957.133 194.391 0 0
347.098 -120.69 0 0
517.094 -721.986 0 0
751.28 -378.833 0 0
144.033 -673.851 0 0
-881.33 278.454 0 0
-636.775 -628.731 0 0
321.593 682.309 0 0
-647.542 227.985 0 0
-652.538 738.897 0 0
-613.44 -206.221 0 0
829.152 79.2648 0 0
-760.607 -614.962 0 0
-177.78 -762.164 0 0
-833.704 -492.012 0 0
-265.101 829.526 0 0
-145.747 -519.397 0 0
377.451 -898.611 0 0
-893.478 67.8347 0 0
-517.156 586.809 0 0
188.813 -927.283 0 0
-423.501 -175.19 0 0
662.832 -366.809 0 0
252.162 -734.109 0 0
164.637 65.3197 0 0
93.5467 -908.052 0 0
547.613 -772.702 0 0
970.124 -75.3293 0 0
822.763 29.3003 0 0
127.949 -655.198 0 0
-604.392 656.747 0 0
674.062 637.936 0 0
-580.137 -452.6 0 0
624.194 206.401 0 0
75.7762 -320.945 0 0
822.02 299.433 0 0
-419.478 -455.71 0 0
-426.895 26.4279 0 0
131.691 -9.89324 0 0
-929.506 -112.627 0 0
653.087 158.184 0 0
-844.566 123.897 0 0
-43.9222 194.883 0 0
315.27 -345.801 0 0
590.856 524.808 0 0
-84.418 -628.605 0 0
-229.405 478.168 0 0
-316.511 675.207 0 0
-332.081 639.874 0 0
-867.078 -294.001 0 0
320.501 715.885 0 0
-764.295 -533.337 0 0
-219.485 -552.416 0 0
474.752 661.47 0 0
36.1753 881.494 0 0
-96.4893 474.949 0 0
-213.424 -258.675 0 0
-162.957 467.233 0 0
508.11 799.813 0 0
-697.063 -482.904 0 0
-588.112 217.669 0 0
85.6161 184.623 0 0
910.033 -256.209 0 0
402.265 -410.009 0 0
862.606 -169.542 0 0
399.008 -477.47 0 0
126.531 -378.073 0 0
-726.374 -191.718 0 0
688.905 247.078 0 0
469.958 -399.799 0 0
814.618 -443.1 0 0
-721.233 682.908 0 0
626.997 74.4257 0 0
-820.46 138.716 0 0
-606.68 443.243 0 0
813.379 432.888 0 0
450.675 858.84 0 0
-454.468 -793.404 0 0
-305.482 652.841 0 0
-465.164 385.203 0 0
102.886 -495.404 0 0
726.639 -544.144 0 0
304.778 230.956 0 0
590.602 479.124 0 0
483.834 -292.868 0 0
-243.479 -626.435 0 0
-326.144 300.361 0 0
741.582 -392.829 0 0
411.425 -818.838 0 0
-246.101 416.511 0 0
-267.594 760.09 0 0
-682 -392.897 0 0
-420.141 -553.51 0 0
-381.141 452.358 0 0
930.598 95.8325 0 0
699.312 305.045 0 0
443.784 341.701 0 0
-28.9181 897.491 0 0
28.831 566.918 0 0
621.634 471.832 0 0
-36.6866 -305.558 0 0
-865.86 164.586 0 0
-360.887 643.461 0 0
745.823 143.43 0 0
331.098 -123.957 0 0
-73.6376 646.726 0 0
252.901 -75.596 0 0
55.9292 -283.06 0 0
-291.38 157.477 0 0
457.967 -147.343 0 0
905.657 -286.802 0 0
-958.486 132.82 0 0
866.209 -408.819 0 0
-434.506 -528.945 0 0
-345.372 838.862 0 0
-205.347 -277.914 0 0
-496.651 162.887 0 0
-779.334 287.917 0 0
-558.409 -420.785 0 0
-893.433 -196.712 0 0
-516.119 532.668 0 0
861.339 144.575 0 0
-854.793 -136.086 0 0
954.507 -110.219 0 0
317.223 -644.052 0 0
-876.294 47.7154 0 0
557.987 -506.617 0 0
920.497 328.364 0 0
-249.495 257.383 0 0
-243.361 -381.573 0 0
-188.284 -556.246 0 0
-184.914 809.166 0 0
465.847 -812.626 0 0
864.773 -401.136 0 0
-721.715 183.298 0 0
-175.518 -671.717 0 0
343.079 49.519 0 0
-385.301 -699.131 0 0
-719.388 -277.863 0 0
177.024 486.531 0 0
253.026 0.183951 0 0
-382.962 -794.526 0 0
-142.745 -951.019 0 0
330.811 347.862 0 0
248.726 -500.567 0 0
-554.277 -553.313 0 0
-812.725 151.862 0 0
456.047 -759.905 0 0
-558.874 105.658 0 0
187.363 -197.74 0 0
548.865 245.404 0 0
-100.801 -635.96 0 0
300.392 -162.122 0 0
854.453 -150.192 0 0
646.462 287.553 0 0
655.344 305.449 0 0
-42.0578 -523.515 0 0
-784.49 -83.8361 0 0
24.8814 -494.76 0 0
-574.957 717.809 0 0
730.159 481.337 0 0
-230.539 -66.2491 0 0
-196.27 -94.2631 0 0
-449.271 717.82 0 0
654.171 -543.473 0 0
774.745 -217.114 0 0
-269.624 197.274 0 0
166.694 484.548 0 0
-398.579 279.769 0 0
298.569 -859.953 0 0
-795.308 390.309 0 0
-726.165 -632.662 0 0
-720.071 -82.8576 0 0
64.6678 -212.542 0 0
-300.901 108.415 0 0
870.836 174.982 0 0
-786.791 413.519 0 0
737.164 522.545 0 0
-525.69 -76.5666 0 0
354.284 -290.527 0 0
