ply
format ascii 1.0
comment A synthetic square, subdivided by triangles, with a Dirac delta function applied.
comment made by Bryan Wolfford
element vertex 85
property int x
property int y
property int z
property float quality
element face 144
property list uchar int32 vertex_indices
end_header
-6 -6 0 0
-6 -4 0 0
-6 -2 0 0
-6 0 0 0
-6 2 0 0
-6 4 0 0
-6 6 0 0
-4 -6 0 0
-4 -4 0 0
-4 -2 0 0
-4 0 0 0
-4 2 0 0
-4 4 0 0
-4 6 0 0
-2 -6 0 0
-2 -4 0 0
-2 -2 0 0
-2 0 0 0
-2 2 0 0
-2 4 0 0
-2 6 0 0
0 -6 0 0
0 -4 0 0
0 -2 0 0
0 0 0 1
0 2 0 0
0 4 0 0
0 6 0 0
2 -6 0 0
2 -4 0 0
2 -2 0 0
2 0 0 0
2 2 0 0
2 4 0 0
2 6 0 0
4 -6 0 0
4 -4 0 0
4 -2 0 0
4 0 0 0
4 2 0 0
4 4 0 0
4 6 0 0
6 -6 0 0
6 -4 0 0
6 -2 0 0
6 0 0 0
6 2 0 0
6 4 0 0
6 6 0 0
-5 -5 0 0
-5 -3 0 0
-5 -1 0 0
-5 1 0 0
-5 3 0 0
-5 5 0 0
-3 -5 0 0
-3 -3 0 0
-3 -1 0 0
-3 1 0 0
-3 3 0 0
-3 5 0 0
-1 -5 0 0
-1 -3 0 0
-1 -1 0 0
-1 1 0 0
-1 3 0 0
-1 5 0 0
1 -5 0 0
1 -3 0 0
1 -1 0 0
1 1 0 0
1 3 0 0
1 5 0 0
3 -5 0 0
3 -3 0 0
3 -1 0 0
3 1 0 0
3 3 0 0
3 5 0 0
5 -5 0 0
5 -3 0 0
5 -1 0 0
5 1 0 0
5 3 0 0
5 5 0 0
3 49 0 7
3 49 7 8
3 49 8 1
3 49 1 0
3 50 1 8
3 50 8 9
3 50 9 2
3 50 2 1
3 51 2 9
3 51 9 10
3 51 10 3
3 51 3 2
3 52 3 10
3 52 10 11
3 52 11 4
3 52 4 3
3 53 4 11
3 53 11 12
3 53 12 5
3 53 5 4
3 54 5 12
3 54 12 13
3 54 13 6
3 54 6 5
3 55 7 14
3 55 14 15
3 55 15 8
3 55 8 7
3 56 8 15
3 56 15 16
3 56 16 9
3 56 9 8
3 57 9 16
3 57 16 17
3 57 17 10
3 57 10 9
3 58 10 17
3 58 17 18
3 58 18 11
3 58 11 10
3 59 11 18
3 59 18 19
3 59 19 12
3 59 12 11
3 60 12 19
3 60 19 20
3 60 20 13
3 60 13 12
3 61 14 21
3 61 21 22
3 61 22 15
3 61 15 14
3 62 15 22
3 62 22 23
3 62 23 16
3 62 16 15
3 63 16 23
3 63 23 24
3 63 24 17
3 63 17 16
3 64 17 24
3 64 24 25
3 64 25 18
3 64 18 17
3 65 18 25
3 65 25 26
3 65 26 19
3 65 19 18
3 66 19 26
3 66 26 27
3 66 27 20
3 66 20 19
3 67 21 28
3 67 28 29
3 67 29 22
3 67 22 21
3 68 22 29
3 68 29 30
3 68 30 23
3 68 23 22
3 69 23 30
3 69 30 31
3 69 31 24
3 69 24 23
3 70 24 31
3 70 31 32
3 70 32 25
3 70 25 24
3 71 25 32
3 71 32 33
3 71 33 26
3 71 26 25
3 72 26 33
3 72 33 34
3 72 34 27
3 72 27 26
3 73 28 35
3 73 35 36
3 73 36 29
3 73 29 28
3 74 29 36
3 74 36 37
3 74 37 30
3 74 30 29
3 75 30 37
3 75 37 38
3 75 38 31
3 75 31 30
3 76 31 38
3 76 38 39
3 76 39 32
3 76 32 31
3 77 32 39
3 77 39 40
3 77 40 33
3 77 33 32
3 78 33 40
3 78 40 41
3 78 41 34
3 78 34 33
3 79 35 42
3 79 42 43
3 79 43 36
3 79 36 35
3 80 36 43
3 80 43 44
3 80 44 37
3 80 37 36
3 81 37 44
3 81 44 45
3 81 45 38
3 81 38 37
3 82 38 45
3 82 45 46
3 82 46 39
3 82 39 38
3 83 39 46
3 83 46 47
3 83 47 40
3 83 40 39
3 84 40 47
3 84 47 48
3 84 48 41
3 84 41 40
