ply
format ascii 1.0
comment A synthetic square, subdivided by triangles, with a Dirac delta function applied.
comment made by Bryan Wolfford
element vertex 841
property int x
property int y
property int z
property float quality
element face 1600
property list uchar int32 vertex_indices
end_header
-20 -20 0 0
-20 -18 0 0
-20 -16 0 0
-20 -14 0 0
-20 -12 0 0
-20 -10 0 0
-20 -8 0 0
-20 -6 0 0
-20 -4 0 0
-20 -2 0 0
-20 0 0 0
-20 2 0 0
-20 4 0 0
-20 6 0 0
-20 8 0 0
-20 10 0 0
-20 12 0 0
-20 14 0 0
-20 16 0 0
-20 18 0 0
-20 20 0 0
-18 -20 0 0
-18 -18 0 0
-18 -16 0 0
-18 -14 0 0
-18 -12 0 0
-18 -10 0 0
-18 -8 0 0
-18 -6 0 0
-18 -4 0 0
-18 -2 0 0
-18 0 0 0
-18 2 0 0
-18 4 0 0
-18 6 0 0
-18 8 0 0
-18 10 0 0
-18 12 0 0
-18 14 0 0
-18 16 0 0
-18 18 0 0
-18 20 0 0
-16 -20 0 0
-16 -18 0 0
-16 -16 0 0
-16 -14 0 0
-16 -12 0 0
-16 -10 0 0
-16 -8 0 0
-16 -6 0 0
-16 -4 0 0
-16 -2 0 0
-16 0 0 0
-16 2 0 0
-16 4 0 0
-16 6 0 0
-16 8 0 0
-16 10 0 0
-16 12 0 0
-16 14 0 0
-16 16 0 0
-16 18 0 0
-16 20 0 0
-14 -20 0 0
-14 -18 0 0
-14 -16 0 0
-14 -14 0 0
-14 -12 0 0
-14 -10 0 0
-14 -8 0 0
-14 -6 0 0
-14 -4 0 0
-14 -2 0 0
-14 0 0 0
-14 2 0 0
-14 4 0 0
-14 6 0 0
-14 8 0 0
-14 10 0 0
-14 12 0 0
-14 14 0 0
-14 16 0 0
-14 18 0 0
-14 20 0 0
-12 -20 0 0
-12 -18 0 0
-12 -16 0 0
-12 -14 0 0
-12 -12 0 0
-12 -10 0 0
-12 -8 0 0
-12 -6 0 0
-12 -4 0 0
-12 -2 0 0
-12 0 0 0
-12 2 0 0
-12 4 0 0
-12 6 0 0
-12 8 0 0
-12 10 0 0
-12 12 0 0
-12 14 0 0
-12 16 0 0
-12 18 0 0
-12 20 0 0
-10 -20 0 0
-10 -18 0 0
-10 -16 0 0
-10 -14 0 0
-10 -12 0 0
-10 -10 0 0
-10 -8 0 0
-10 -6 0 0
-10 -4 0 0
-10 -2 0 0
-10 0 0 0
-10 2 0 0
-10 4 0 0
-10 6 0 0
-10 8 0 0
-10 10 0 0
-10 12 0 0
-10 14 0 0
-10 16 0 0
-10 18 0 0
-10 20 0 0
-8 -20 0 0
-8 -18 0 0
-8 -16 0 0
-8 -14 0 0
-8 -12 0 0
-8 -10 0 0
-8 -8 0 0
-8 -6 0 0
-8 -4 0 0
-8 -2 0 0
-8 0 0 0
-8 2 0 0
-8 4 0 0
-8 6 0 0
-8 8 0 0
-8 10 0 0
-8 12 0 0
-8 14 0 0
-8 16 0 0
-8 18 0 0
-8 20 0 0
-6 -20 0 0
-6 -18 0 0
-6 -16 0 0
-6 -14 0 0
-6 -12 0 0
-6 -10 0 0
-6 -8 0 0
-6 -6 0 0
-6 -4 0 0
-6 -2 0 0
-6 0 0 0
-6 2 0 0
-6 4 0 0
-6 6 0 0
-6 8 0 0
-6 10 0 0
-6 12 0 0
-6 14 0 0
-6 16 0 0
-6 18 0 0
-6 20 0 0
-4 -20 0 0
-4 -18 0 0
-4 -16 0 0
-4 -14 0 0
-4 -12 0 0
-4 -10 0 0
-4 -8 0 0
-4 -6 0 0
-4 -4 0 0
-4 -2 0 0
-4 0 0 0
-4 2 0 0
-4 4 0 0
-4 6 0 0
-4 8 0 0
-4 10 0 0
-4 12 0 0
-4 14 0 0
-4 16 0 0
-4 18 0 0
-4 20 0 0
-2 -20 0 0
-2 -18 0 0
-2 -16 0 0
-2 -14 0 0
-2 -12 0 0
-2 -10 0 0
-2 -8 0 0
-2 -6 0 0
-2 -4 0 0
-2 -2 0 0
-2 0 0 0
-2 2 0 0
-2 4 0 0
-2 6 0 0
-2 8 0 0
-2 10 0 0
-2 12 0 0
-2 14 0 0
-2 16 0 0
-2 18 0 0
-2 20 0 0
0 -20 0 0
0 -18 0 0
0 -16 0 0
0 -14 0 0
0 -12 0 0
0 -10 0 0
0 -8 0 0
0 -6 0 0
0 -4 0 0
0 -2 0 0
0 0 0 1
0 2 0 0
0 4 0 0
0 6 0 0
0 8 0 0
0 10 0 0
0 12 0 0
0 14 0 0
0 16 0 0
0 18 0 0
0 20 0 0
2 -20 0 0
2 -18 0 0
2 -16 0 0
2 -14 0 0
2 -12 0 0
2 -10 0 0
2 -8 0 0
2 -6 0 0
2 -4 0 0
2 -2 0 0
2 0 0 0
2 2 0 0
2 4 0 0
2 6 0 0
2 8 0 0
2 10 0 0
2 12 0 0
2 14 0 0
2 16 0 0
2 18 0 0
2 20 0 0
4 -20 0 0
4 -18 0 0
4 -16 0 0
4 -14 0 0
4 -12 0 0
4 -10 0 0
4 -8 0 0
4 -6 0 0
4 -4 0 0
4 -2 0 0
4 0 0 0
4 2 0 0
4 4 0 0
4 6 0 0
4 8 0 0
4 10 0 0
4 12 0 0
4 14 0 0
4 16 0 0
4 18 0 0
4 20 0 0
6 -20 0 0
6 -18 0 0
6 -16 0 0
6 -14 0 0
6 -12 0 0
6 -10 0 0
6 -8 0 0
6 -6 0 0
6 -4 0 0
6 -2 0 0
6 0 0 0
6 2 0 0
6 4 0 0
6 6 0 0
6 8 0 0
6 10 0 0
6 12 0 0
6 14 0 0
6 16 0 0
6 18 0 0
6 20 0 0
8 -20 0 0
8 -18 0 0
8 -16 0 0
8 -14 0 0
8 -12 0 0
8 -10 0 0
8 -8 0 0
8 -6 0 0
8 -4 0 0
8 -2 0 0
8 0 0 0
8 2 0 0
8 4 0 0
8 6 0 0
8 8 0 0
8 10 0 0
8 12 0 0
8 14 0 0
8 16 0 0
8 18 0 0
8 20 0 0
10 -20 0 0
10 -18 0 0
10 -16 0 0
10 -14 0 0
10 -12 0 0
10 -10 0 0
10 -8 0 0
10 -6 0 0
10 -4 0 0
10 -2 0 0
10 0 0 0
10 2 0 0
10 4 0 0
10 6 0 0
10 8 0 0
10 10 0 0
10 12 0 0
10 14 0 0
10 16 0 0
10 18 0 0
10 20 0 0
12 -20 0 0
12 -18 0 0
12 -16 0 0
12 -14 0 0
12 -12 0 0
12 -10 0 0
12 -8 0 0
12 -6 0 0
12 -4 0 0
12 -2 0 0
12 0 0 0
12 2 0 0
12 4 0 0
12 6 0 0
12 8 0 0
12 10 0 0
12 12 0 0
12 14 0 0
12 16 0 0
12 18 0 0
12 20 0 0
14 -20 0 0
14 -18 0 0
14 -16 0 0
14 -14 0 0
14 -12 0 0
14 -10 0 0
14 -8 0 0
14 -6 0 0
14 -4 0 0
14 -2 0 0
14 0 0 0
14 2 0 0
14 4 0 0
14 6 0 0
14 8 0 0
14 10 0 0
14 12 0 0
14 14 0 0
14 16 0 0
14 18 0 0
14 20 0 0
16 -20 0 0
16 -18 0 0
16 -16 0 0
16 -14 0 0
16 -12 0 0
16 -10 0 0
16 -8 0 0
16 -6 0 0
16 -4 0 0
16 -2 0 0
16 0 0 0
16 2 0 0
16 4 0 0
16 6 0 0
16 8 0 0
16 10 0 0
16 12 0 0
16 14 0 0
16 16 0 0
16 18 0 0
16 20 0 0
18 -20 0 0
18 -18 0 0
18 -16 0 0
18 -14 0 0
18 -12 0 0
18 -10 0 0
18 -8 0 0
18 -6 0 0
18 -4 0 0
18 -2 0 0
18 0 0 0
18 2 0 0
18 4 0 0
18 6 0 0
18 8 0 0
18 10 0 0
18 12 0 0
18 14 0 0
18 16 0 0
18 18 0 0
18 20 0 0
20 -20 0 0
20 -18 0 0
20 -16 0 0
20 -14 0 0
20 -12 0 0
20 -10 0 0
20 -8 0 0
20 -6 0 0
20 -4 0 0
20 -2 0 0
20 0 0 0
20 2 0 0
20 4 0 0
20 6 0 0
20 8 0 0
20 10 0 0
20 12 0 0
20 14 0 0
20 16 0 0
20 18 0 0
20 20 0 0
-19 -19 0 0
-19 -17 0 0
-19 -15 0 0
-19 -13 0 0
-19 -11 0 0
-19 -9 0 0
-19 -7 0 0
-19 -5 0 0
-19 -3 0 0
-19 -1 0 0
-19 1 0 0
-19 3 0 0
-19 5 0 0
-19 7 0 0
-19 9 0 0
-19 11 0 0
-19 13 0 0
-19 15 0 0
-19 17 0 0
-19 19 0 0
-17 -19 0 0
-17 -17 0 0
-17 -15 0 0
-17 -13 0 0
-17 -11 0 0
-17 -9 0 0
-17 -7 0 0
-17 -5 0 0
-17 -3 0 0
-17 -1 0 0
-17 1 0 0
-17 3 0 0
-17 5 0 0
-17 7 0 0
-17 9 0 0
-17 11 0 0
-17 13 0 0
-17 15 0 0
-17 17 0 0
-17 19 0 0
-15 -19 0 0
-15 -17 0 0
-15 -15 0 0
-15 -13 0 0
-15 -11 0 0
-15 -9 0 0
-15 -7 0 0
-15 -5 0 0
-15 -3 0 0
-15 -1 0 0
-15 1 0 0
-15 3 0 0
-15 5 0 0
-15 7 0 0
-15 9 0 0
-15 11 0 0
-15 13 0 0
-15 15 0 0
-15 17 0 0
-15 19 0 0
-13 -19 0 0
-13 -17 0 0
-13 -15 0 0
-13 -13 0 0
-13 -11 0 0
-13 -9 0 0
-13 -7 0 0
-13 -5 0 0
-13 -3 0 0
-13 -1 0 0
-13 1 0 0
-13 3 0 0
-13 5 0 0
-13 7 0 0
-13 9 0 0
-13 11 0 0
-13 13 0 0
-13 15 0 0
-13 17 0 0
-13 19 0 0
-11 -19 0 0
-11 -17 0 0
-11 -15 0 0
-11 -13 0 0
-11 -11 0 0
-11 -9 0 0
-11 -7 0 0
-11 -5 0 0
-11 -3 0 0
-11 -1 0 0
-11 1 0 0
-11 3 0 0
-11 5 0 0
-11 7 0 0
-11 9 0 0
-11 11 0 0
-11 13 0 0
-11 15 0 0
-11 17 0 0
-11 19 0 0
-9 -19 0 0
-9 -17 0 0
-9 -15 0 0
-9 -13 0 0
-9 -11 0 0
-9 -9 0 0
-9 -7 0 0
-9 -5 0 0
-9 -3 0 0
-9 -1 0 0
-9 1 0 0
-9 3 0 0
-9 5 0 0
-9 7 0 0
-9 9 0 0
-9 11 0 0
-9 13 0 0
-9 15 0 0
-9 17 0 0
-9 19 0 0
-7 -19 0 0
-7 -17 0 0
-7 -15 0 0
-7 -13 0 0
-7 -11 0 0
-7 -9 0 0
-7 -7 0 0
-7 -5 0 0
-7 -3 0 0
-7 -1 0 0
-7 1 0 0
-7 3 0 0
-7 5 0 0
-7 7 0 0
-7 9 0 0
-7 11 0 0
-7 13 0 0
-7 15 0 0
-7 17 0 0
-7 19 0 0
-5 -19 0 0
-5 -17 0 0
-5 -15 0 0
-5 -13 0 0
-5 -11 0 0
-5 -9 0 0
-5 -7 0 0
-5 -5 0 0
-5 -3 0 0
-5 -1 0 0
-5 1 0 0
-5 3 0 0
-5 5 0 0
-5 7 0 0
-5 9 0 0
-5 11 0 0
-5 13 0 0
-5 15 0 0
-5 17 0 0
-5 19 0 0
-3 -19 0 0
-3 -17 0 0
-3 -15 0 0
-3 -13 0 0
-3 -11 0 0
-3 -9 0 0
-3 -7 0 0
-3 -5 0 0
-3 -3 0 0
-3 -1 0 0
-3 1 0 0
-3 3 0 0
-3 5 0 0
-3 7 0 0
-3 9 0 0
-3 11 0 0
-3 13 0 0
-3 15 0 0
-3 17 0 0
-3 19 0 0
-1 -19 0 0
-1 -17 0 0
-1 -15 0 0
-1 -13 0 0
-1 -11 0 0
-1 -9 0 0
-1 -7 0 0
-1 -5 0 0
-1 -3 0 0
-1 -1 0 0
-1 1 0 0
-1 3 0 0
-1 5 0 0
-1 7 0 0
-1 9 0 0
-1 11 0 0
-1 13 0 0
-1 15 0 0
-1 17 0 0
-1 19 0 0
1 -19 0 0
1 -17 0 0
1 -15 0 0
1 -13 0 0
1 -11 0 0
1 -9 0 0
1 -7 0 0
1 -5 0 0
1 -3 0 0
1 -1 0 0
1 1 0 0
1 3 0 0
1 5 0 0
1 7 0 0
1 9 0 0
1 11 0 0
1 13 0 0
1 15 0 0
1 17 0 0
1 19 0 0
3 -19 0 0
3 -17 0 0
3 -15 0 0
3 -13 0 0
3 -11 0 0
3 -9 0 0
3 -7 0 0
3 -5 0 0
3 -3 0 0
3 -1 0 0
3 1 0 0
3 3 0 0
3 5 0 0
3 7 0 0
3 9 0 0
3 11 0 0
3 13 0 0
3 15 0 0
3 17 0 0
3 19 0 0
5 -19 0 0
5 -17 0 0
5 -15 0 0
5 -13 0 0
5 -11 0 0
5 -9 0 0
5 -7 0 0
5 -5 0 0
5 -3 0 0
5 -1 0 0
5 1 0 0
5 3 0 0
5 5 0 0
5 7 0 0
5 9 0 0
5 11 0 0
5 13 0 0
5 15 0 0
5 17 0 0
5 19 0 0
7 -19 0 0
7 -17 0 0
7 -15 0 0
7 -13 0 0
7 -11 0 0
7 -9 0 0
7 -7 0 0
7 -5 0 0
7 -3 0 0
7 -1 0 0
7 1 0 0
7 3 0 0
7 5 0 0
7 7 0 0
7 9 0 0
7 11 0 0
7 13 0 0
7 15 0 0
7 17 0 0
7 19 0 0
9 -19 0 0
9 -17 0 0
9 -15 0 0
9 -13 0 0
9 -11 0 0
9 -9 0 0
9 -7 0 0
9 -5 0 0
9 -3 0 0
9 -1 0 0
9 1 0 0
9 3 0 0
9 5 0 0
9 7 0 0
9 9 0 0
9 11 0 0
9 13 0 0
9 15 0 0
9 17 0 0
9 19 0 0
11 -19 0 0
11 -17 0 0
11 -15 0 0
11 -13 0 0
11 -11 0 0
11 -9 0 0
11 -7 0 0
11 -5 0 0
11 -3 0 0
11 -1 0 0
11 1 0 0
11 3 0 0
11 5 0 0
11 7 0 0
11 9 0 0
11 11 0 0
11 13 0 0
11 15 0 0
11 17 0 0
11 19 0 0
13 -19 0 0
13 -17 0 0
13 -15 0 0
13 -13 0 0
13 -11 0 0
13 -9 0 0
13 -7 0 0
13 -5 0 0
13 -3 0 0
13 -1 0 0
13 1 0 0
13 3 0 0
13 5 0 0
13 7 0 0
13 9 0 0
13 11 0 0
13 13 0 0
13 15 0 0
13 17 0 0
13 19 0 0
15 -19 0 0
15 -17 0 0
15 -15 0 0
15 -13 0 0
15 -11 0 0
15 -9 0 0
15 -7 0 0
15 -5 0 0
15 -3 0 0
15 -1 0 0
15 1 0 0
15 3 0 0
15 5 0 0
15 7 0 0
15 9 0 0
15 11 0 0
15 13 0 0
15 15 0 0
15 17 0 0
15 19 0 0
17 -19 0 0
17 -17 0 0
17 -15 0 0
17 -13 0 0
17 -11 0 0
17 -9 0 0
17 -7 0 0
17 -5 0 0
17 -3 0 0
17 -1 0 0
17 1 0 0
17 3 0 0
17 5 0 0
17 7 0 0
17 9 0 0
17 11 0 0
17 13 0 0
17 15 0 0
17 17 0 0
17 19 0 0
19 -19 0 0
19 -17 0 0
19 -15 0 0
19 -13 0 0
19 -11 0 0
19 -9 0 0
19 -7 0 0
19 -5 0 0
19 -3 0 0
19 -1 0 0
19 1 0 0
19 3 0 0
19 5 0 0
19 7 0 0
19 9 0 0
19 11 0 0
19 13 0 0
19 15 0 0
19 17 0 0
19 19 0 0
3 441 0 21
3 441 21 22
3 441 22 1
3 441 1 0
3 442 1 22
3 442 22 23
3 442 23 2
3 442 2 1
3 443 2 23
3 443 23 24
3 443 24 3
3 443 3 2
3 444 3 24
3 444 24 25
3 444 25 4
3 444 4 3
3 445 4 25
3 445 25 26
3 445 26 5
3 445 5 4
3 446 5 26
3 446 26 27
3 446 27 6
3 446 6 5
3 447 6 27
3 447 27 28
3 447 28 7
3 447 7 6
3 448 7 28
3 448 28 29
3 448 29 8
3 448 8 7
3 449 8 29
3 449 29 30
3 449 30 9
3 449 9 8
3 450 9 30
3 450 30 31
3 450 31 10
3 450 10 9
3 451 10 31
3 451 31 32
3 451 32 11
3 451 11 10
3 452 11 32
3 452 32 33
3 452 33 12
3 452 12 11
3 453 12 33
3 453 33 34
3 453 34 13
3 453 13 12
3 454 13 34
3 454 34 35
3 454 35 14
3 454 14 13
3 455 14 35
3 455 35 36
3 455 36 15
3 455 15 14
3 456 15 36
3 456 36 37
3 456 37 16
3 456 16 15
3 457 16 37
3 457 37 38
3 457 38 17
3 457 17 16
3 458 17 38
3 458 38 39
3 458 39 18
3 458 18 17
3 459 18 39
3 459 39 40
3 459 40 19
3 459 19 18
3 460 19 40
3 460 40 41
3 460 41 20
3 460 20 19
3 461 21 42
3 461 42 43
3 461 43 22
3 461 22 21
3 462 22 43
3 462 43 44
3 462 44 23
3 462 23 22
3 463 23 44
3 463 44 45
3 463 45 24
3 463 24 23
3 464 24 45
3 464 45 46
3 464 46 25
3 464 25 24
3 465 25 46
3 465 46 47
3 465 47 26
3 465 26 25
3 466 26 47
3 466 47 48
3 466 48 27
3 466 27 26
3 467 27 48
3 467 48 49
3 467 49 28
3 467 28 27
3 468 28 49
3 468 49 50
3 468 50 29
3 468 29 28
3 469 29 50
3 469 50 51
3 469 51 30
3 469 30 29
3 470 30 51
3 470 51 52
3 470 52 31
3 470 31 30
3 471 31 52
3 471 52 53
3 471 53 32
3 471 32 31
3 472 32 53
3 472 53 54
3 472 54 33
3 472 33 32
3 473 33 54
3 473 54 55
3 473 55 34
3 473 34 33
3 474 34 55
3 474 55 56
3 474 56 35
3 474 35 34
3 475 35 56
3 475 56 57
3 475 57 36
3 475 36 35
3 476 36 57
3 476 57 58
3 476 58 37
3 476 37 36
3 477 37 58
3 477 58 59
3 477 59 38
3 477 38 37
3 478 38 59
3 478 59 60
3 478 60 39
3 478 39 38
3 479 39 60
3 479 60 61
3 479 61 40
3 479 40 39
3 480 40 61
3 480 61 62
3 480 62 41
3 480 41 40
3 481 42 63
3 481 63 64
3 481 64 43
3 481 43 42
3 482 43 64
3 482 64 65
3 482 65 44
3 482 44 43
3 483 44 65
3 483 65 66
3 483 66 45
3 483 45 44
3 484 45 66
3 484 66 67
3 484 67 46
3 484 46 45
3 485 46 67
3 485 67 68
3 485 68 47
3 485 47 46
3 486 47 68
3 486 68 69
3 486 69 48
3 486 48 47
3 487 48 69
3 487 69 70
3 487 70 49
3 487 49 48
3 488 49 70
3 488 70 71
3 488 71 50
3 488 50 49
3 489 50 71
3 489 71 72
3 489 72 51
3 489 51 50
3 490 51 72
3 490 72 73
3 490 73 52
3 490 52 51
3 491 52 73
3 491 73 74
3 491 74 53
3 491 53 52
3 492 53 74
3 492 74 75
3 492 75 54
3 492 54 53
3 493 54 75
3 493 75 76
3 493 76 55
3 493 55 54
3 494 55 76
3 494 76 77
3 494 77 56
3 494 56 55
3 495 56 77
3 495 77 78
3 495 78 57
3 495 57 56
3 496 57 78
3 496 78 79
3 496 79 58
3 496 58 57
3 497 58 79
3 497 79 80
3 497 80 59
3 497 59 58
3 498 59 80
3 498 80 81
3 498 81 60
3 498 60 59
3 499 60 81
3 499 81 82
3 499 82 61
3 499 61 60
3 500 61 82
3 500 82 83
3 500 83 62
3 500 62 61
3 501 63 84
3 501 84 85
3 501 85 64
3 501 64 63
3 502 64 85
3 502 85 86
3 502 86 65
3 502 65 64
3 503 65 86
3 503 86 87
3 503 87 66
3 503 66 65
3 504 66 87
3 504 87 88
3 504 88 67
3 504 67 66
3 505 67 88
3 505 88 89
3 505 89 68
3 505 68 67
3 506 68 89
3 506 89 90
3 506 90 69
3 506 69 68
3 507 69 90
3 507 90 91
3 507 91 70
3 507 70 69
3 508 70 91
3 508 91 92
3 508 92 71
3 508 71 70
3 509 71 92
3 509 92 93
3 509 93 72
3 509 72 71
3 510 72 93
3 510 93 94
3 510 94 73
3 510 73 72
3 511 73 94
3 511 94 95
3 511 95 74
3 511 74 73
3 512 74 95
3 512 95 96
3 512 96 75
3 512 75 74
3 513 75 96
3 513 96 97
3 513 97 76
3 513 76 75
3 514 76 97
3 514 97 98
3 514 98 77
3 514 77 76
3 515 77 98
3 515 98 99
3 515 99 78
3 515 78 77
3 516 78 99
3 516 99 100
3 516 100 79
3 516 79 78
3 517 79 100
3 517 100 101
3 517 101 80
3 517 80 79
3 518 80 101
3 518 101 102
3 518 102 81
3 518 81 80
3 519 81 102
3 519 102 103
3 519 103 82
3 519 82 81
3 520 82 103
3 520 103 104
3 520 104 83
3 520 83 82
3 521 84 105
3 521 105 106
3 521 106 85
3 521 85 84
3 522 85 106
3 522 106 107
3 522 107 86
3 522 86 85
3 523 86 107
3 523 107 108
3 523 108 87
3 523 87 86
3 524 87 108
3 524 108 109
3 524 109 88
3 524 88 87
3 525 88 109
3 525 109 110
3 525 110 89
3 525 89 88
3 526 89 110
3 526 110 111
3 526 111 90
3 526 90 89
3 527 90 111
3 527 111 112
3 527 112 91
3 527 91 90
3 528 91 112
3 528 112 113
3 528 113 92
3 528 92 91
3 529 92 113
3 529 113 114
3 529 114 93
3 529 93 92
3 530 93 114
3 530 114 115
3 530 115 94
3 530 94 93
3 531 94 115
3 531 115 116
3 531 116 95
3 531 95 94
3 532 95 116
3 532 116 117
3 532 117 96
3 532 96 95
3 533 96 117
3 533 117 118
3 533 118 97
3 533 97 96
3 534 97 118
3 534 118 119
3 534 119 98
3 534 98 97
3 535 98 119
3 535 119 120
3 535 120 99
3 535 99 98
3 536 99 120
3 536 120 121
3 536 121 100
3 536 100 99
3 537 100 121
3 537 121 122
3 537 122 101
3 537 101 100
3 538 101 122
3 538 122 123
3 538 123 102
3 538 102 101
3 539 102 123
3 539 123 124
3 539 124 103
3 539 103 102
3 540 103 124
3 540 124 125
3 540 125 104
3 540 104 103
3 541 105 126
3 541 126 127
3 541 127 106
3 541 106 105
3 542 106 127
3 542 127 128
3 542 128 107
3 542 107 106
3 543 107 128
3 543 128 129
3 543 129 108
3 543 108 107
3 544 108 129
3 544 129 130
3 544 130 109
3 544 109 108
3 545 109 130
3 545 130 131
3 545 131 110
3 545 110 109
3 546 110 131
3 546 131 132
3 546 132 111
3 546 111 110
3 547 111 132
3 547 132 133
3 547 133 112
3 547 112 111
3 548 112 133
3 548 133 134
3 548 134 113
3 548 113 112
3 549 113 134
3 549 134 135
3 549 135 114
3 549 114 113
3 550 114 135
3 550 135 136
3 550 136 115
3 550 115 114
3 551 115 136
3 551 136 137
3 551 137 116
3 551 116 115
3 552 116 137
3 552 137 138
3 552 138 117
3 552 117 116
3 553 117 138
3 553 138 139
3 553 139 118
3 553 118 117
3 554 118 139
3 554 139 140
3 554 140 119
3 554 119 118
3 555 119 140
3 555 140 141
3 555 141 120
3 555 120 119
3 556 120 141
3 556 141 142
3 556 142 121
3 556 121 120
3 557 121 142
3 557 142 143
3 557 143 122
3 557 122 121
3 558 122 143
3 558 143 144
3 558 144 123
3 558 123 122
3 559 123 144
3 559 144 145
3 559 145 124
3 559 124 123
3 560 124 145
3 560 145 146
3 560 146 125
3 560 125 124
3 561 126 147
3 561 147 148
3 561 148 127
3 561 127 126
3 562 127 148
3 562 148 149
3 562 149 128
3 562 128 127
3 563 128 149
3 563 149 150
3 563 150 129
3 563 129 128
3 564 129 150
3 564 150 151
3 564 151 130
3 564 130 129
3 565 130 151
3 565 151 152
3 565 152 131
3 565 131 130
3 566 131 152
3 566 152 153
3 566 153 132
3 566 132 131
3 567 132 153
3 567 153 154
3 567 154 133
3 567 133 132
3 568 133 154
3 568 154 155
3 568 155 134
3 568 134 133
3 569 134 155
3 569 155 156
3 569 156 135
3 569 135 134
3 570 135 156
3 570 156 157
3 570 157 136
3 570 136 135
3 571 136 157
3 571 157 158
3 571 158 137
3 571 137 136
3 572 137 158
3 572 158 159
3 572 159 138
3 572 138 137
3 573 138 159
3 573 159 160
3 573 160 139
3 573 139 138
3 574 139 160
3 574 160 161
3 574 161 140
3 574 140 139
3 575 140 161
3 575 161 162
3 575 162 141
3 575 141 140
3 576 141 162
3 576 162 163
3 576 163 142
3 576 142 141
3 577 142 163
3 577 163 164
3 577 164 143
3 577 143 142
3 578 143 164
3 578 164 165
3 578 165 144
3 578 144 143
3 579 144 165
3 579 165 166
3 579 166 145
3 579 145 144
3 580 145 166
3 580 166 167
3 580 167 146
3 580 146 145
3 581 147 168
3 581 168 169
3 581 169 148
3 581 148 147
3 582 148 169
3 582 169 170
3 582 170 149
3 582 149 148
3 583 149 170
3 583 170 171
3 583 171 150
3 583 150 149
3 584 150 171
3 584 171 172
3 584 172 151
3 584 151 150
3 585 151 172
3 585 172 173
3 585 173 152
3 585 152 151
3 586 152 173
3 586 173 174
3 586 174 153
3 586 153 152
3 587 153 174
3 587 174 175
3 587 175 154
3 587 154 153
3 588 154 175
3 588 175 176
3 588 176 155
3 588 155 154
3 589 155 176
3 589 176 177
3 589 177 156
3 589 156 155
3 590 156 177
3 590 177 178
3 590 178 157
3 590 157 156
3 591 157 178
3 591 178 179
3 591 179 158
3 591 158 157
3 592 158 179
3 592 179 180
3 592 180 159
3 592 159 158
3 593 159 180
3 593 180 181
3 593 181 160
3 593 160 159
3 594 160 181
3 594 181 182
3 594 182 161
3 594 161 160
3 595 161 182
3 595 182 183
3 595 183 162
3 595 162 161
3 596 162 183
3 596 183 184
3 596 184 163
3 596 163 162
3 597 163 184
3 597 184 185
3 597 185 164
3 597 164 163
3 598 164 185
3 598 185 186
3 598 186 165
3 598 165 164
3 599 165 186
3 599 186 187
3 599 187 166
3 599 166 165
3 600 166 187
3 600 187 188
3 600 188 167
3 600 167 166
3 601 168 189
3 601 189 190
3 601 190 169
3 601 169 168
3 602 169 190
3 602 190 191
3 602 191 170
3 602 170 169
3 603 170 191
3 603 191 192
3 603 192 171
3 603 171 170
3 604 171 192
3 604 192 193
3 604 193 172
3 604 172 171
3 605 172 193
3 605 193 194
3 605 194 173
3 605 173 172
3 606 173 194
3 606 194 195
3 606 195 174
3 606 174 173
3 607 174 195
3 607 195 196
3 607 196 175
3 607 175 174
3 608 175 196
3 608 196 197
3 608 197 176
3 608 176 175
3 609 176 197
3 609 197 198
3 609 198 177
3 609 177 176
3 610 177 198
3 610 198 199
3 610 199 178
3 610 178 177
3 611 178 199
3 611 199 200
3 611 200 179
3 611 179 178
3 612 179 200
3 612 200 201
3 612 201 180
3 612 180 179
3 613 180 201
3 613 201 202
3 613 202 181
3 613 181 180
3 614 181 202
3 614 202 203
3 614 203 182
3 614 182 181
3 615 182 203
3 615 203 204
3 615 204 183
3 615 183 182
3 616 183 204
3 616 204 205
3 616 205 184
3 616 184 183
3 617 184 205
3 617 205 206
3 617 206 185
3 617 185 184
3 618 185 206
3 618 206 207
3 618 207 186
3 618 186 185
3 619 186 207
3 619 207 208
3 619 208 187
3 619 187 186
3 620 187 208
3 620 208 209
3 620 209 188
3 620 188 187
3 621 189 210
3 621 210 211
3 621 211 190
3 621 190 189
3 622 190 211
3 622 211 212
3 622 212 191
3 622 191 190
3 623 191 212
3 623 212 213
3 623 213 192
3 623 192 191
3 624 192 213
3 624 213 214
3 624 214 193
3 624 193 192
3 625 193 214
3 625 214 215
3 625 215 194
3 625 194 193
3 626 194 215
3 626 215 216
3 626 216 195
3 626 195 194
3 627 195 216
3 627 216 217
3 627 217 196
3 627 196 195
3 628 196 217
3 628 217 218
3 628 218 197
3 628 197 196
3 629 197 218
3 629 218 219
3 629 219 198
3 629 198 197
3 630 198 219
3 630 219 220
3 630 220 199
3 630 199 198
3 631 199 220
3 631 220 221
3 631 221 200
3 631 200 199
3 632 200 221
3 632 221 222
3 632 222 201
3 632 201 200
3 633 201 222
3 633 222 223
3 633 223 202
3 633 202 201
3 634 202 223
3 634 223 224
3 634 224 203
3 634 203 202
3 635 203 224
3 635 224 225
3 635 225 204
3 635 204 203
3 636 204 225
3 636 225 226
3 636 226 205
3 636 205 204
3 637 205 226
3 637 226 227
3 637 227 206
3 637 206 205
3 638 206 227
3 638 227 228
3 638 228 207
3 638 207 206
3 639 207 228
3 639 228 229
3 639 229 208
3 639 208 207
3 640 208 229
3 640 229 230
3 640 230 209
3 640 209 208
3 641 210 231
3 641 231 232
3 641 232 211
3 641 211 210
3 642 211 232
3 642 232 233
3 642 233 212
3 642 212 211
3 643 212 233
3 643 233 234
3 643 234 213
3 643 213 212
3 644 213 234
3 644 234 235
3 644 235 214
3 644 214 213
3 645 214 235
3 645 235 236
3 645 236 215
3 645 215 214
3 646 215 236
3 646 236 237
3 646 237 216
3 646 216 215
3 647 216 237
3 647 237 238
3 647 238 217
3 647 217 216
3 648 217 238
3 648 238 239
3 648 239 218
3 648 218 217
3 649 218 239
3 649 239 240
3 649 240 219
3 649 219 218
3 650 219 240
3 650 240 241
3 650 241 220
3 650 220 219
3 651 220 241
3 651 241 242
3 651 242 221
3 651 221 220
3 652 221 242
3 652 242 243
3 652 243 222
3 652 222 221
3 653 222 243
3 653 243 244
3 653 244 223
3 653 223 222
3 654 223 244
3 654 244 245
3 654 245 224
3 654 224 223
3 655 224 245
3 655 245 246
3 655 246 225
3 655 225 224
3 656 225 246
3 656 246 247
3 656 247 226
3 656 226 225
3 657 226 247
3 657 247 248
3 657 248 227
3 657 227 226
3 658 227 248
3 658 248 249
3 658 249 228
3 658 228 227
3 659 228 249
3 659 249 250
3 659 250 229
3 659 229 228
3 660 229 250
3 660 250 251
3 660 251 230
3 660 230 229
3 661 231 252
3 661 252 253
3 661 253 232
3 661 232 231
3 662 232 253
3 662 253 254
3 662 254 233
3 662 233 232
3 663 233 254
3 663 254 255
3 663 255 234
3 663 234 233
3 664 234 255
3 664 255 256
3 664 256 235
3 664 235 234
3 665 235 256
3 665 256 257
3 665 257 236
3 665 236 235
3 666 236 257
3 666 257 258
3 666 258 237
3 666 237 236
3 667 237 258
3 667 258 259
3 667 259 238
3 667 238 237
3 668 238 259
3 668 259 260
3 668 260 239
3 668 239 238
3 669 239 260
3 669 260 261
3 669 261 240
3 669 240 239
3 670 240 261
3 670 261 262
3 670 262 241
3 670 241 240
3 671 241 262
3 671 262 263
3 671 263 242
3 671 242 241
3 672 242 263
3 672 263 264
3 672 264 243
3 672 243 242
3 673 243 264
3 673 264 265
3 673 265 244
3 673 244 243
3 674 244 265
3 674 265 266
3 674 266 245
3 674 245 244
3 675 245 266
3 675 266 267
3 675 267 246
3 675 246 245
3 676 246 267
3 676 267 268
3 676 268 247
3 676 247 246
3 677 247 268
3 677 268 269
3 677 269 248
3 677 248 247
3 678 248 269
3 678 269 270
3 678 270 249
3 678 249 248
3 679 249 270
3 679 270 271
3 679 271 250
3 679 250 249
3 680 250 271
3 680 271 272
3 680 272 251
3 680 251 250
3 681 252 273
3 681 273 274
3 681 274 253
3 681 253 252
3 682 253 274
3 682 274 275
3 682 275 254
3 682 254 253
3 683 254 275
3 683 275 276
3 683 276 255
3 683 255 254
3 684 255 276
3 684 276 277
3 684 277 256
3 684 256 255
3 685 256 277
3 685 277 278
3 685 278 257
3 685 257 256
3 686 257 278
3 686 278 279
3 686 279 258
3 686 258 257
3 687 258 279
3 687 279 280
3 687 280 259
3 687 259 258
3 688 259 280
3 688 280 281
3 688 281 260
3 688 260 259
3 689 260 281
3 689 281 282
3 689 282 261
3 689 261 260
3 690 261 282
3 690 282 283
3 690 283 262
3 690 262 261
3 691 262 283
3 691 283 284
3 691 284 263
3 691 263 262
3 692 263 284
3 692 284 285
3 692 285 264
3 692 264 263
3 693 264 285
3 693 285 286
3 693 286 265
3 693 265 264
3 694 265 286
3 694 286 287
3 694 287 266
3 694 266 265
3 695 266 287
3 695 287 288
3 695 288 267
3 695 267 266
3 696 267 288
3 696 288 289
3 696 289 268
3 696 268 267
3 697 268 289
3 697 289 290
3 697 290 269
3 697 269 268
3 698 269 290
3 698 290 291
3 698 291 270
3 698 270 269
3 699 270 291
3 699 291 292
3 699 292 271
3 699 271 270
3 700 271 292
3 700 292 293
3 700 293 272
3 700 272 271
3 701 273 294
3 701 294 295
3 701 295 274
3 701 274 273
3 702 274 295
3 702 295 296
3 702 296 275
3 702 275 274
3 703 275 296
3 703 296 297
3 703 297 276
3 703 276 275
3 704 276 297
3 704 297 298
3 704 298 277
3 704 277 276
3 705 277 298
3 705 298 299
3 705 299 278
3 705 278 277
3 706 278 299
3 706 299 300
3 706 300 279
3 706 279 278
3 707 279 300
3 707 300 301
3 707 301 280
3 707 280 279
3 708 280 301
3 708 301 302
3 708 302 281
3 708 281 280
3 709 281 302
3 709 302 303
3 709 303 282
3 709 282 281
3 710 282 303
3 710 303 304
3 710 304 283
3 710 283 282
3 711 283 304
3 711 304 305
3 711 305 284
3 711 284 283
3 712 284 305
3 712 305 306
3 712 306 285
3 712 285 284
3 713 285 306
3 713 306 307
3 713 307 286
3 713 286 285
3 714 286 307
3 714 307 308
3 714 308 287
3 714 287 286
3 715 287 308
3 715 308 309
3 715 309 288
3 715 288 287
3 716 288 309
3 716 309 310
3 716 310 289
3 716 289 288
3 717 289 310
3 717 310 311
3 717 311 290
3 717 290 289
3 718 290 311
3 718 311 312
3 718 312 291
3 718 291 290
3 719 291 312
3 719 312 313
3 719 313 292
3 719 292 291
3 720 292 313
3 720 313 314
3 720 314 293
3 720 293 292
3 721 294 315
3 721 315 316
3 721 316 295
3 721 295 294
3 722 295 316
3 722 316 317
3 722 317 296
3 722 296 295
3 723 296 317
3 723 317 318
3 723 318 297
3 723 297 296
3 724 297 318
3 724 318 319
3 724 319 298
3 724 298 297
3 725 298 319
3 725 319 320
3 725 320 299
3 725 299 298
3 726 299 320
3 726 320 321
3 726 321 300
3 726 300 299
3 727 300 321
3 727 321 322
3 727 322 301
3 727 301 300
3 728 301 322
3 728 322 323
3 728 323 302
3 728 302 301
3 729 302 323
3 729 323 324
3 729 324 303
3 729 303 302
3 730 303 324
3 730 324 325
3 730 325 304
3 730 304 303
3 731 304 325
3 731 325 326
3 731 326 305
3 731 305 304
3 732 305 326
3 732 326 327
3 732 327 306
3 732 306 305
3 733 306 327
3 733 327 328
3 733 328 307
3 733 307 306
3 734 307 328
3 734 328 329
3 734 329 308
3 734 308 307
3 735 308 329
3 735 329 330
3 735 330 309
3 735 309 308
3 736 309 330
3 736 330 331
3 736 331 310
3 736 310 309
3 737 310 331
3 737 331 332
3 737 332 311
3 737 311 310
3 738 311 332
3 738 332 333
3 738 333 312
3 738 312 311
3 739 312 333
3 739 333 334
3 739 334 313
3 739 313 312
3 740 313 334
3 740 334 335
3 740 335 314
3 740 314 313
3 741 315 336
3 741 336 337
3 741 337 316
3 741 316 315
3 742 316 337
3 742 337 338
3 742 338 317
3 742 317 316
3 743 317 338
3 743 338 339
3 743 339 318
3 743 318 317
3 744 318 339
3 744 339 340
3 744 340 319
3 744 319 318
3 745 319 340
3 745 340 341
3 745 341 320
3 745 320 319
3 746 320 341
3 746 341 342
3 746 342 321
3 746 321 320
3 747 321 342
3 747 342 343
3 747 343 322
3 747 322 321
3 748 322 343
3 748 343 344
3 748 344 323
3 748 323 322
3 749 323 344
3 749 344 345
3 749 345 324
3 749 324 323
3 750 324 345
3 750 345 346
3 750 346 325
3 750 325 324
3 751 325 346
3 751 346 347
3 751 347 326
3 751 326 325
3 752 326 347
3 752 347 348
3 752 348 327
3 752 327 326
3 753 327 348
3 753 348 349
3 753 349 328
3 753 328 327
3 754 328 349
3 754 349 350
3 754 350 329
3 754 329 328
3 755 329 350
3 755 350 351
3 755 351 330
3 755 330 329
3 756 330 351
3 756 351 352
3 756 352 331
3 756 331 330
3 757 331 352
3 757 352 353
3 757 353 332
3 757 332 331
3 758 332 353
3 758 353 354
3 758 354 333
3 758 333 332
3 759 333 354
3 759 354 355
3 759 355 334
3 759 334 333
3 760 334 355
3 760 355 356
3 760 356 335
3 760 335 334
3 761 336 357
3 761 357 358
3 761 358 337
3 761 337 336
3 762 337 358
3 762 358 359
3 762 359 338
3 762 338 337
3 763 338 359
3 763 359 360
3 763 360 339
3 763 339 338
3 764 339 360
3 764 360 361
3 764 361 340
3 764 340 339
3 765 340 361
3 765 361 362
3 765 362 341
3 765 341 340
3 766 341 362
3 766 362 363
3 766 363 342
3 766 342 341
3 767 342 363
3 767 363 364
3 767 364 343
3 767 343 342
3 768 343 364
3 768 364 365
3 768 365 344
3 768 344 343
3 769 344 365
3 769 365 366
3 769 366 345
3 769 345 344
3 770 345 366
3 770 366 367
3 770 367 346
3 770 346 345
3 771 346 367
3 771 367 368
3 771 368 347
3 771 347 346
3 772 347 368
3 772 368 369
3 772 369 348
3 772 348 347
3 773 348 369
3 773 369 370
3 773 370 349
3 773 349 348
3 774 349 370
3 774 370 371
3 774 371 350
3 774 350 349
3 775 350 371
3 775 371 372
3 775 372 351
3 775 351 350
3 776 351 372
3 776 372 373
3 776 373 352
3 776 352 351
3 777 352 373
3 777 373 374
3 777 374 353
3 777 353 352
3 778 353 374
3 778 374 375
3 778 375 354
3 778 354 353
3 779 354 375
3 779 375 376
3 779 376 355
3 779 355 354
3 780 355 376
3 780 376 377
3 780 377 356
3 780 356 355
3 781 357 378
3 781 378 379
3 781 379 358
3 781 358 357
3 782 358 379
3 782 379 380
3 782 380 359
3 782 359 358
3 783 359 380
3 783 380 381
3 783 381 360
3 783 360 359
3 784 360 381
3 784 381 382
3 784 382 361
3 784 361 360
3 785 361 382
3 785 382 383
3 785 383 362
3 785 362 361
3 786 362 383
3 786 383 384
3 786 384 363
3 786 363 362
3 787 363 384
3 787 384 385
3 787 385 364
3 787 364 363
3 788 364 385
3 788 385 386
3 788 386 365
3 788 365 364
3 789 365 386
3 789 386 387
3 789 387 366
3 789 366 365
3 790 366 387
3 790 387 388
3 790 388 367
3 790 367 366
3 791 367 388
3 791 388 389
3 791 389 368
3 791 368 367
3 792 368 389
3 792 389 390
3 792 390 369
3 792 369 368
3 793 369 390
3 793 390 391
3 793 391 370
3 793 370 369
3 794 370 391
3 794 391 392
3 794 392 371
3 794 371 370
3 795 371 392
3 795 392 393
3 795 393 372
3 795 372 371
3 796 372 393
3 796 393 394
3 796 394 373
3 796 373 372
3 797 373 394
3 797 394 395
3 797 395 374
3 797 374 373
3 798 374 395
3 798 395 396
3 798 396 375
3 798 375 374
3 799 375 396
3 799 396 397
3 799 397 376
3 799 376 375
3 800 376 397
3 800 397 398
3 800 398 377
3 800 377 376
3 801 378 399
3 801 399 400
3 801 400 379
3 801 379 378
3 802 379 400
3 802 400 401
3 802 401 380
3 802 380 379
3 803 380 401
3 803 401 402
3 803 402 381
3 803 381 380
3 804 381 402
3 804 402 403
3 804 403 382
3 804 382 381
3 805 382 403
3 805 403 404
3 805 404 383
3 805 383 382
3 806 383 404
3 806 404 405
3 806 405 384
3 806 384 383
3 807 384 405
3 807 405 406
3 807 406 385
3 807 385 384
3 808 385 406
3 808 406 407
3 808 407 386
3 808 386 385
3 809 386 407
3 809 407 408
3 809 408 387
3 809 387 386
3 810 387 408
3 810 408 409
3 810 409 388
3 810 388 387
3 811 388 409
3 811 409 410
3 811 410 389
3 811 389 388
3 812 389 410
3 812 410 411
3 812 411 390
3 812 390 389
3 813 390 411
3 813 411 412
3 813 412 391
3 813 391 390
3 814 391 412
3 814 412 413
3 814 413 392
3 814 392 391
3 815 392 413
3 815 413 414
3 815 414 393
3 815 393 392
3 816 393 414
3 816 414 415
3 816 415 394
3 816 394 393
3 817 394 415
3 817 415 416
3 817 416 395
3 817 395 394
3 818 395 416
3 818 416 417
3 818 417 396
3 818 396 395
3 819 396 417
3 819 417 418
3 819 418 397
3 819 397 396
3 820 397 418
3 820 418 419
3 820 419 398
3 820 398 397
3 821 399 420
3 821 420 421
3 821 421 400
3 821 400 399
3 822 400 421
3 822 421 422
3 822 422 401
3 822 401 400
3 823 401 422
3 823 422 423
3 823 423 402
3 823 402 401
3 824 402 423
3 824 423 424
3 824 424 403
3 824 403 402
3 825 403 424
3 825 424 425
3 825 425 404
3 825 404 403
3 826 404 425
3 826 425 426
3 826 426 405
3 826 405 404
3 827 405 426
3 827 426 427
3 827 427 406
3 827 406 405
3 828 406 427
3 828 427 428
3 828 428 407
3 828 407 406
3 829 407 428
3 829 428 429
3 829 429 408
3 829 408 407
3 830 408 429
3 830 429 430
3 830 430 409
3 830 409 408
3 831 409 430
3 831 430 431
3 831 431 410
3 831 410 409
3 832 410 431
3 832 431 432
3 832 432 411
3 832 411 410
3 833 411 432
3 833 432 433
3 833 433 412
3 833 412 411
3 834 412 433
3 834 433 434
3 834 434 413
3 834 413 412
3 835 413 434
3 835 434 435
3 835 435 414
3 835 414 413
3 836 414 435
3 836 435 436
3 836 436 415
3 836 415 414
3 837 415 436
3 837 436 437
3 837 437 416
3 837 416 415
3 838 416 437
3 838 437 438
3 838 438 417
3 838 417 416
3 839 417 438
3 839 438 439
3 839 439 418
3 839 418 417
3 840 418 439
3 840 439 440
3 840 440 419
3 840 419 418
