ply
format ascii 1.0
comment A synthetic square, subdivided by triangles, with a Dirac delta function applied.
comment made by Bryan Wolfford
element vertex 41
property int x
property int y
property int z
property float quality
element face 64
property list uchar int32 vertex_indices
end_header
-4 -4 0 0
-4 -2 0 0
-4 0 0 0
-4 2 0 0
-4 4 0 0
-2 -4 0 0
-2 -2 0 0
-2 0 0 0
-2 2 0 0
-2 4 0 0
0 -4 0 0
0 -2 0 0
0 0 0 1
0 2 0 0
0 4 0 0
2 -4 0 0
2 -2 0 0
2 0 0 0
2 2 0 0
2 4 0 0
4 -4 0 0
4 -2 0 0
4 0 0 0
4 2 0 0
4 4 0 0
-3 -3 0 0
-3 -1 0 0
-3 1 0 0
-3 3 0 0
-1 -3 0 0
-1 -1 0 0
-1 1 0 0
-1 3 0 0
1 -3 0 0
1 -1 0 0
1 1 0 0
1 3 0 0
3 -3 0 0
3 -1 0 0
3 1 0 0
3 3 0 0
3 25 0 5
3 25 5 6
3 25 6 1
3 25 1 0
3 26 1 6
3 26 6 7
3 26 7 2
3 26 2 1
3 27 2 7
3 27 7 8
3 27 8 3
3 27 3 2
3 28 3 8
3 28 8 9
3 28 9 4
3 28 4 3
3 29 5 10
3 29 10 11
3 29 11 6
3 29 6 5
3 30 6 11
3 30 11 12
3 30 12 7
3 30 7 6
3 31 7 12
3 31 12 13
3 31 13 8
3 31 8 7
3 32 8 13
3 32 13 14
3 32 14 9
3 32 9 8
3 33 10 15
3 33 15 16
3 33 16 11
3 33 11 10
3 34 11 16
3 34 16 17
3 34 17 12
3 34 12 11
3 35 12 17
3 35 17 18
3 35 18 13
3 35 13 12
3 36 13 18
3 36 18 19
3 36 19 14
3 36 14 13
3 37 15 20
3 37 20 21
3 37 21 16
3 37 16 15
3 38 16 21
3 38 21 22
3 38 22 17
3 38 17 16
3 39 17 22
3 39 22 23
3 39 23 18
3 39 18 17
3 40 18 23
3 40 23 24
3 40 24 19
3 40 19 18
