ply
format ascii 1.0
comment A synthetic square, subdivided by triangles, with a Dirac delta function applied.
comment made by Bryan Wolfford
element vertex 13
property int x
property int y
property int z
property float quality
element face 16
property list uchar int32 vertex_indices
end_header
-2 -2 0 0
-2 0 0 0
-2 2 0 0
0 -2 0 0
0 0 0 1
0 2 0 0
2 -2 0 0
2 0 0 0
2 2 0 0
-1 -1 0 0
-1 1 0 0
1 -1 0 0
1 1 0 0
3 9 0 3
3 9 3 4
3 9 4 1
3 9 1 0
3 10 1 4
3 10 4 5
3 10 5 2
3 10 2 1
3 11 3 6
3 11 6 7
3 11 7 4
3 11 4 3
3 12 4 7
3 12 7 8
3 12 8 5
3 12 5 4
