ply
format ascii 1.0
comment A synthetic square, subdivided by triangles, with a Dirac delta function applied.
comment made by Bryan Wolfford
element vertex 441
property int x
property int y
property int z
property float quality
element face 800
property list uchar int32 vertex_indices
end_header
-10 -10 0 0
-10 -9 0 0
-10 -8 0 0
-10 -7 0 0
-10 -6 0 0
-10 -5 0 0
-10 -4 0 0
-10 -3 0 0
-10 -2 0 0
-10 -1 0 0
-10 0 0 0
-10 1 0 0
-10 2 0 0
-10 3 0 0
-10 4 0 0
-10 5 0 0
-10 6 0 0
-10 7 0 0
-10 8 0 0
-10 9 0 0
-10 10 0 0
-9 -10 0 0
-9 -9 0 0
-9 -8 0 0
-9 -7 0 0
-9 -6 0 0
-9 -5 0 0
-9 -4 0 0
-9 -3 0 0
-9 -2 0 0
-9 -1 0 0
-9 0 0 0
-9 1 0 0
-9 2 0 0
-9 3 0 0
-9 4 0 0
-9 5 0 0
-9 6 0 0
-9 7 0 0
-9 8 0 0
-9 9 0 0
-9 10 0 0
-8 -10 0 0
-8 -9 0 0
-8 -8 0 0
-8 -7 0 0
-8 -6 0 0
-8 -5 0 0
-8 -4 0 0
-8 -3 0 0
-8 -2 0 0
-8 -1 0 0
-8 0 0 0
-8 1 0 0
-8 2 0 0
-8 3 0 0
-8 4 0 0
-8 5 0 0
-8 6 0 0
-8 7 0 0
-8 8 0 0
-8 9 0 0
-8 10 0 0
-7 -10 0 0
-7 -9 0 0
-7 -8 0 0
-7 -7 0 0
-7 -6 0 0
-7 -5 0 0
-7 -4 0 0
-7 -3 0 0
-7 -2 0 0
-7 -1 0 0
-7 0 0 0
-7 1 0 0
-7 2 0 0
-7 3 0 0
-7 4 0 0
-7 5 0 0
-7 6 0 0
-7 7 0 0
-7 8 0 0
-7 9 0 0
-7 10 0 0
-6 -10 0 0
-6 -9 0 0
-6 -8 0 0
-6 -7 0 0
-6 -6 0 0
-6 -5 0 0
-6 -4 0 0
-6 -3 0 0
-6 -2 0 0
-6 -1 0 0
-6 0 0 0
-6 1 0 0
-6 2 0 0
-6 3 0 0
-6 4 0 0
-6 5 0 0
-6 6 0 0
-6 7 0 0
-6 8 0 0
-6 9 0 0
-6 10 0 0
-5 -10 0 0
-5 -9 0 0
-5 -8 0 0
-5 -7 0 0
-5 -6 0 0
-5 -5 0 0
-5 -4 0 0
-5 -3 0 0
-5 -2 0 0
-5 -1 0 0
-5 0 0 0
-5 1 0 0
-5 2 0 0
-5 3 0 0
-5 4 0 0
-5 5 0 0
-5 6 0 0
-5 7 0 0
-5 8 0 0
-5 9 0 0
-5 10 0 0
-4 -10 0 0
-4 -9 0 0
-4 -8 0 0
-4 -7 0 0
-4 -6 0 0
-4 -5 0 0
-4 -4 0 0
-4 -3 0 0
-4 -2 0 0
-4 -1 0 0
-4 0 0 0
-4 1 0 0
-4 2 0 0
-4 3 0 0
-4 4 0 0
-4 5 0 0
-4 6 0 0
-4 7 0 0
-4 8 0 0
-4 9 0 0
-4 10 0 0
-3 -10 0 0
-3 -9 0 0
-3 -8 0 0
-3 -7 0 0
-3 -6 0 0
-3 -5 0 0
-3 -4 0 0
-3 -3 0 0
-3 -2 0 0
-3 -1 0 0
-3 0 0 0
-3 1 0 0
-3 2 0 0
-3 3 0 0
-3 4 0 0
-3 5 0 0
-3 6 0 0
-3 7 0 0
-3 8 0 0
-3 9 0 0
-3 10 0 0
-2 -10 0 0
-2 -9 0 0
-2 -8 0 0
-2 -7 0 0
-2 -6 0 0
-2 -5 0 0
-2 -4 0 0
-2 -3 0 0
-2 -2 0 0
-2 -1 0 0
-2 0 0 0
-2 1 0 0
-2 2 0 0
-2 3 0 0
-2 4 0 0
-2 5 0 0
-2 6 0 0
-2 7 0 0
-2 8 0 0
-2 9 0 0
-2 10 0 0
-1 -10 0 0
-1 -9 0 0
-1 -8 0 0
-1 -7 0 0
-1 -6 0 0
-1 -5 0 0
-1 -4 0 0
-1 -3 0 0
-1 -2 0 0
-1 -1 0 0
-1 0 0 0
-1 1 0 0
-1 2 0 0
-1 3 0 0
-1 4 0 0
-1 5 0 0
-1 6 0 0
-1 7 0 0
-1 8 0 0
-1 9 0 0
-1 10 0 0
0 -10 0 0
0 -9 0 0
0 -8 0 0
0 -7 0 0
0 -6 0 0
0 -5 0 0
0 -4 0 0
0 -3 0 0
0 -2 0 0
0 -1 0 0
0 0 0 1
0 1 0 0
0 2 0 0
0 3 0 0
0 4 0 0
0 5 0 0
0 6 0 0
0 7 0 0
0 8 0 0
0 9 0 0
0 10 0 0
1 -10 0 0
1 -9 0 0
1 -8 0 0
1 -7 0 0
1 -6 0 0
1 -5 0 0
1 -4 0 0
1 -3 0 0
1 -2 0 0
1 -1 0 0
1 0 0 0
1 1 0 0
1 2 0 0
1 3 0 0
1 4 0 0
1 5 0 0
1 6 0 0
1 7 0 0
1 8 0 0
1 9 0 0
1 10 0 0
2 -10 0 0
2 -9 0 0
2 -8 0 0
2 -7 0 0
2 -6 0 0
2 -5 0 0
2 -4 0 0
2 -3 0 0
2 -2 0 0
2 -1 0 0
2 0 0 0
2 1 0 0
2 2 0 0
2 3 0 0
2 4 0 0
2 5 0 0
2 6 0 0
2 7 0 0
2 8 0 0
2 9 0 0
2 10 0 0
3 -10 0 0
3 -9 0 0
3 -8 0 0
3 -7 0 0
3 -6 0 0
3 -5 0 0
3 -4 0 0
3 -3 0 0
3 -2 0 0
3 -1 0 0
3 0 0 0
3 1 0 0
3 2 0 0
3 3 0 0
3 4 0 0
3 5 0 0
3 6 0 0
3 7 0 0
3 8 0 0
3 9 0 0
3 10 0 0
4 -10 0 0
4 -9 0 0
4 -8 0 0
4 -7 0 0
4 -6 0 0
4 -5 0 0
4 -4 0 0
4 -3 0 0
4 -2 0 0
4 -1 0 0
4 0 0 0
4 1 0 0
4 2 0 0
4 3 0 0
4 4 0 0
4 5 0 0
4 6 0 0
4 7 0 0
4 8 0 0
4 9 0 0
4 10 0 0
5 -10 0 0
5 -9 0 0
5 -8 0 0
5 -7 0 0
5 -6 0 0
5 -5 0 0
5 -4 0 0
5 -3 0 0
5 -2 0 0
5 -1 0 0
5 0 0 0
5 1 0 0
5 2 0 0
5 3 0 0
5 4 0 0
5 5 0 0
5 6 0 0
5 7 0 0
5 8 0 0
5 9 0 0
5 10 0 0
6 -10 0 0
6 -9 0 0
6 -8 0 0
6 -7 0 0
6 -6 0 0
6 -5 0 0
6 -4 0 0
6 -3 0 0
6 -2 0 0
6 -1 0 0
6 0 0 0
6 1 0 0
6 2 0 0
6 3 0 0
6 4 0 0
6 5 0 0
6 6 0 0
6 7 0 0
6 8 0 0
6 9 0 0
6 10 0 0
7 -10 0 0
7 -9 0 0
7 -8 0 0
7 -7 0 0
7 -6 0 0
7 -5 0 0
7 -4 0 0
7 -3 0 0
7 -2 0 0
7 -1 0 0
7 0 0 0
7 1 0 0
7 2 0 0
7 3 0 0
7 4 0 0
7 5 0 0
7 6 0 0
7 7 0 0
7 8 0 0
7 9 0 0
7 10 0 0
8 -10 0 0
8 -9 0 0
8 -8 0 0
8 -7 0 0
8 -6 0 0
8 -5 0 0
8 -4 0 0
8 -3 0 0
8 -2 0 0
8 -1 0 0
8 0 0 0
8 1 0 0
8 2 0 0
8 3 0 0
8 4 0 0
8 5 0 0
8 6 0 0
8 7 0 0
8 8 0 0
8 9 0 0
8 10 0 0
9 -10 0 0
9 -9 0 0
9 -8 0 0
9 -7 0 0
9 -6 0 0
9 -5 0 0
9 -4 0 0
9 -3 0 0
9 -2 0 0
9 -1 0 0
9 0 0 0
9 1 0 0
9 2 0 0
9 3 0 0
9 4 0 0
9 5 0 0
9 6 0 0
9 7 0 0
9 8 0 0
9 9 0 0
9 10 0 0
10 -10 0 0
10 -9 0 0
10 -8 0 0
10 -7 0 0
10 -6 0 0
10 -5 0 0
10 -4 0 0
10 -3 0 0
10 -2 0 0
10 -1 0 0
10 0 0 0
10 1 0 0
10 2 0 0
10 3 0 0
10 4 0 0
10 5 0 0
10 6 0 0
10 7 0 0
10 8 0 0
10 9 0 0
10 10 0 0
3 0 21 1
3 1 21 22
3 1 22 2
3 2 22 23
3 2 23 3
3 3 23 24
3 3 24 4
3 4 24 25
3 4 25 5
3 5 25 26
3 5 26 6
3 6 26 27
3 6 27 7
3 7 27 28
3 7 28 8
3 8 28 29
3 8 29 9
3 9 29 30
3 9 30 10
3 10 30 31
3 10 31 11
3 11 31 32
3 11 32 12
3 12 32 33
3 12 33 13
3 13 33 34
3 13 34 14
3 14 34 35
3 14 35 15
3 15 35 36
3 15 36 16
3 16 36 37
3 16 37 17
3 17 37 38
3 17 38 18
3 18 38 39
3 18 39 19
3 19 39 40
3 19 40 20
3 20 40 41
3 21 42 22
3 22 42 43
3 22 43 23
3 23 43 44
3 23 44 24
3 24 44 45
3 24 45 25
3 25 45 46
3 25 46 26
3 26 46 47
3 26 47 27
3 27 47 48
3 27 48 28
3 28 48 49
3 28 49 29
3 29 49 50
3 29 50 30
3 30 50 51
3 30 51 31
3 31 51 52
3 31 52 32
3 32 52 53
3 32 53 33
3 33 53 54
3 33 54 34
3 34 54 55
3 34 55 35
3 35 55 56
3 35 56 36
3 36 56 57
3 36 57 37
3 37 57 58
3 37 58 38
3 38 58 59
3 38 59 39
3 39 59 60
3 39 60 40
3 40 60 61
3 40 61 41
3 41 61 62
3 42 63 43
3 43 63 64
3 43 64 44
3 44 64 65
3 44 65 45
3 45 65 66
3 45 66 46
3 46 66 67
3 46 67 47
3 47 67 68
3 47 68 48
3 48 68 69
3 48 69 49
3 49 69 70
3 49 70 50
3 50 70 71
3 50 71 51
3 51 71 72
3 51 72 52
3 52 72 73
3 52 73 53
3 53 73 74
3 53 74 54
3 54 74 75
3 54 75 55
3 55 75 76
3 55 76 56
3 56 76 77
3 56 77 57
3 57 77 78
3 57 78 58
3 58 78 79
3 58 79 59
3 59 79 80
3 59 80 60
3 60 80 81
3 60 81 61
3 61 81 82
3 61 82 62
3 62 82 83
3 63 84 64
3 64 84 85
3 64 85 65
3 65 85 86
3 65 86 66
3 66 86 87
3 66 87 67
3 67 87 88
3 67 88 68
3 68 88 89
3 68 89 69
3 69 89 90
3 69 90 70
3 70 90 91
3 70 91 71
3 71 91 92
3 71 92 72
3 72 92 93
3 72 93 73
3 73 93 94
3 73 94 74
3 74 94 95
3 74 95 75
3 75 95 96
3 75 96 76
3 76 96 97
3 76 97 77
3 77 97 98
3 77 98 78
3 78 98 99
3 78 99 79
3 79 99 100
3 79 100 80
3 80 100 101
3 80 101 81
3 81 101 102
3 81 102 82
3 82 102 103
3 82 103 83
3 83 103 104
3 84 105 85
3 85 105 106
3 85 106 86
3 86 106 107
3 86 107 87
3 87 107 108
3 87 108 88
3 88 108 109
3 88 109 89
3 89 109 110
3 89 110 90
3 90 110 111
3 90 111 91
3 91 111 112
3 91 112 92
3 92 112 113
3 92 113 93
3 93 113 114
3 93 114 94
3 94 114 115
3 94 115 95
3 95 115 116
3 95 116 96
3 96 116 117
3 96 117 97
3 97 117 118
3 97 118 98
3 98 118 119
3 98 119 99
3 99 119 120
3 99 120 100
3 100 120 121
3 100 121 101
3 101 121 122
3 101 122 102
3 102 122 123
3 102 123 103
3 103 123 124
3 103 124 104
3 104 124 125
3 105 126 106
3 106 126 127
3 106 127 107
3 107 127 128
3 107 128 108
3 108 128 129
3 108 129 109
3 109 129 130
3 109 130 110
3 110 130 131
3 110 131 111
3 111 131 132
3 111 132 112
3 112 132 133
3 112 133 113
3 113 133 134
3 113 134 114
3 114 134 135
3 114 135 115
3 115 135 136
3 115 136 116
3 116 136 137
3 116 137 117
3 117 137 138
3 117 138 118
3 118 138 139
3 118 139 119
3 119 139 140
3 119 140 120
3 120 140 141
3 120 141 121
3 121 141 142
3 121 142 122
3 122 142 143
3 122 143 123
3 123 143 144
3 123 144 124
3 124 144 145
3 124 145 125
3 125 145 146
3 126 147 127
3 127 147 148
3 127 148 128
3 128 148 149
3 128 149 129
3 129 149 150
3 129 150 130
3 130 150 151
3 130 151 131
3 131 151 152
3 131 152 132
3 132 152 153
3 132 153 133
3 133 153 154
3 133 154 134
3 134 154 155
3 134 155 135
3 135 155 156
3 135 156 136
3 136 156 157
3 136 157 137
3 137 157 158
3 137 158 138
3 138 158 159
3 138 159 139
3 139 159 160
3 139 160 140
3 140 160 161
3 140 161 141
3 141 161 162
3 141 162 142
3 142 162 163
3 142 163 143
3 143 163 164
3 143 164 144
3 144 164 165
3 144 165 145
3 145 165 166
3 145 166 146
3 146 166 167
3 147 168 148
3 148 168 169
3 148 169 149
3 149 169 170
3 149 170 150
3 150 170 171
3 150 171 151
3 151 171 172
3 151 172 152
3 152 172 173
3 152 173 153
3 153 173 174
3 153 174 154
3 154 174 175
3 154 175 155
3 155 175 176
3 155 176 156
3 156 176 177
3 156 177 157
3 157 177 178
3 157 178 158
3 158 178 179
3 158 179 159
3 159 179 180
3 159 180 160
3 160 180 181
3 160 181 161
3 161 181 182
3 161 182 162
3 162 182 183
3 162 183 163
3 163 183 184
3 163 184 164
3 164 184 185
3 164 185 165
3 165 185 186
3 165 186 166
3 166 186 187
3 166 187 167
3 167 187 188
3 168 189 169
3 169 189 190
3 169 190 170
3 170 190 191
3 170 191 171
3 171 191 192
3 171 192 172
3 172 192 193
3 172 193 173
3 173 193 194
3 173 194 174
3 174 194 195
3 174 195 175
3 175 195 196
3 175 196 176
3 176 196 197
3 176 197 177
3 177 197 198
3 177 198 178
3 178 198 199
3 178 199 179
3 179 199 200
3 179 200 180
3 180 200 201
3 180 201 181
3 181 201 202
3 181 202 182
3 182 202 203
3 182 203 183
3 183 203 204
3 183 204 184
3 184 204 205
3 184 205 185
3 185 205 206
3 185 206 186
3 186 206 207
3 186 207 187
3 187 207 208
3 187 208 188
3 188 208 209
3 189 210 190
3 190 210 211
3 190 211 191
3 191 211 212
3 191 212 192
3 192 212 213
3 192 213 193
3 193 213 214
3 193 214 194
3 194 214 215
3 194 215 195
3 195 215 216
3 195 216 196
3 196 216 217
3 196 217 197
3 197 217 218
3 197 218 198
3 198 218 219
3 198 219 199
3 199 219 220
3 199 220 200
3 200 220 221
3 200 221 201
3 201 221 222
3 201 222 202
3 202 222 223
3 202 223 203
3 203 223 224
3 203 224 204
3 204 224 225
3 204 225 205
3 205 225 226
3 205 226 206
3 206 226 227
3 206 227 207
3 207 227 228
3 207 228 208
3 208 228 229
3 208 229 209
3 209 229 230
3 210 231 211
3 211 231 232
3 211 232 212
3 212 232 233
3 212 233 213
3 213 233 234
3 213 234 214
3 214 234 235
3 214 235 215
3 215 235 236
3 215 236 216
3 216 236 237
3 216 237 217
3 217 237 238
3 217 238 218
3 218 238 239
3 218 239 219
3 219 239 240
3 219 240 220
3 220 240 241
3 220 241 221
3 221 241 242
3 221 242 222
3 222 242 243
3 222 243 223
3 223 243 244
3 223 244 224
3 224 244 245
3 224 245 225
3 225 245 246
3 225 246 226
3 226 246 247
3 226 247 227
3 227 247 248
3 227 248 228
3 228 248 249
3 228 249 229
3 229 249 250
3 229 250 230
3 230 250 251
3 231 252 232
3 232 252 253
3 232 253 233
3 233 253 254
3 233 254 234
3 234 254 255
3 234 255 235
3 235 255 256
3 235 256 236
3 236 256 257
3 236 257 237
3 237 257 258
3 237 258 238
3 238 258 259
3 238 259 239
3 239 259 260
3 239 260 240
3 240 260 261
3 240 261 241
3 241 261 262
3 241 262 242
3 242 262 263
3 242 263 243
3 243 263 264
3 243 264 244
3 244 264 265
3 244 265 245
3 245 265 266
3 245 266 246
3 246 266 267
3 246 267 247
3 247 267 268
3 247 268 248
3 248 268 269
3 248 269 249
3 249 269 270
3 249 270 250
3 250 270 271
3 250 271 251
3 251 271 272
3 252 273 253
3 253 273 274
3 253 274 254
3 254 274 275
3 254 275 255
3 255 275 276
3 255 276 256
3 256 276 277
3 256 277 257
3 257 277 278
3 257 278 258
3 258 278 279
3 258 279 259
3 259 279 280
3 259 280 260
3 260 280 281
3 260 281 261
3 261 281 282
3 261 282 262
3 262 282 283
3 262 283 263
3 263 283 284
3 263 284 264
3 264 284 285
3 264 285 265
3 265 285 286
3 265 286 266
3 266 286 287
3 266 287 267
3 267 287 288
3 267 288 268
3 268 288 289
3 268 289 269
3 269 289 290
3 269 290 270
3 270 290 291
3 270 291 271
3 271 291 292
3 271 292 272
3 272 292 293
3 273 294 274
3 274 294 295
3 274 295 275
3 275 295 296
3 275 296 276
3 276 296 297
3 276 297 277
3 277 297 298
3 277 298 278
3 278 298 299
3 278 299 279
3 279 299 300
3 279 300 280
3 280 300 301
3 280 301 281
3 281 301 302
3 281 302 282
3 282 302 303
3 282 303 283
3 283 303 304
3 283 304 284
3 284 304 305
3 284 305 285
3 285 305 306
3 285 306 286
3 286 306 307
3 286 307 287
3 287 307 308
3 287 308 288
3 288 308 309
3 288 309 289
3 289 309 310
3 289 310 290
3 290 310 311
3 290 311 291
3 291 311 312
3 291 312 292
3 292 312 313
3 292 313 293
3 293 313 314
3 294 315 295
3 295 315 316
3 295 316 296
3 296 316 317
3 296 317 297
3 297 317 318
3 297 318 298
3 298 318 319
3 298 319 299
3 299 319 320
3 299 320 300
3 300 320 321
3 300 321 301
3 301 321 322
3 301 322 302
3 302 322 323
3 302 323 303
3 303 323 324
3 303 324 304
3 304 324 325
3 304 325 305
3 305 325 326
3 305 326 306
3 306 326 327
3 306 327 307
3 307 327 328
3 307 328 308
3 308 328 329
3 308 329 309
3 309 329 330
3 309 330 310
3 310 330 331
3 310 331 311
3 311 331 332
3 311 332 312
3 312 332 333
3 312 333 313
3 313 333 334
3 313 334 314
3 314 334 335
3 315 336 316
3 316 336 337
3 316 337 317
3 317 337 338
3 317 338 318
3 318 338 339
3 318 339 319
3 319 339 340
3 319 340 320
3 320 340 341
3 320 341 321
3 321 341 342
3 321 342 322
3 322 342 343
3 322 343 323
3 323 343 344
3 323 344 324
3 324 344 345
3 324 345 325
3 325 345 346
3 325 346 326
3 326 346 347
3 326 347 327
3 327 347 348
3 327 348 328
3 328 348 349
3 328 349 329
3 329 349 350
3 329 350 330
3 330 350 351
3 330 351 331
3 331 351 352
3 331 352 332
3 332 352 353
3 332 353 333
3 333 353 354
3 333 354 334
3 334 354 355
3 334 355 335
3 335 355 356
3 336 357 337
3 337 357 358
3 337 358 338
3 338 358 359
3 338 359 339
3 339 359 360
3 339 360 340
3 340 360 361
3 340 361 341
3 341 361 362
3 341 362 342
3 342 362 363
3 342 363 343
3 343 363 364
3 343 364 344
3 344 364 365
3 344 365 345
3 345 365 366
3 345 366 346
3 346 366 367
3 346 367 347
3 347 367 368
3 347 368 348
3 348 368 369
3 348 369 349
3 349 369 370
3 349 370 350
3 350 370 371
3 350 371 351
3 351 371 372
3 351 372 352
3 352 372 373
3 352 373 353
3 353 373 374
3 353 374 354
3 354 374 375
3 354 375 355
3 355 375 376
3 355 376 356
3 356 376 377
3 357 378 358
3 358 378 379
3 358 379 359
3 359 379 380
3 359 380 360
3 360 380 381
3 360 381 361
3 361 381 382
3 361 382 362
3 362 382 383
3 362 383 363
3 363 383 384
3 363 384 364
3 364 384 385
3 364 385 365
3 365 385 386
3 365 386 366
3 366 386 387
3 366 387 367
3 367 387 388
3 367 388 368
3 368 388 389
3 368 389 369
3 369 389 390
3 369 390 370
3 370 390 391
3 370 391 371
3 371 391 392
3 371 392 372
3 372 392 393
3 372 393 373
3 373 393 394
3 373 394 374
3 374 394 395
3 374 395 375
3 375 395 396
3 375 396 376
3 376 396 397
3 376 397 377
3 377 397 398
3 378 399 379
3 379 399 400
3 379 400 380
3 380 400 401
3 380 401 381
3 381 401 402
3 381 402 382
3 382 402 403
3 382 403 383
3 383 403 404
3 383 404 384
3 384 404 405
3 384 405 385
3 385 405 406
3 385 406 386
3 386 406 407
3 386 407 387
3 387 407 408
3 387 408 388
3 388 408 409
3 388 409 389
3 389 409 410
3 389 410 390
3 390 410 411
3 390 411 391
3 391 411 412
3 391 412 392
3 392 412 413
3 392 413 393
3 393 413 414
3 393 414 394
3 394 414 415
3 394 415 395
3 395 415 416
3 395 416 396
3 396 416 417
3 396 417 397
3 397 417 418
3 397 418 398
3 398 418 419
3 399 420 400
3 400 420 421
3 400 421 401
3 401 421 422
3 401 422 402
3 402 422 423
3 402 423 403
3 403 423 424
3 403 424 404
3 404 424 425
3 404 425 405
3 405 425 426
3 405 426 406
3 406 426 427
3 406 427 407
3 407 427 428
3 407 428 408
3 408 428 429
3 408 429 409
3 409 429 430
3 409 430 410
3 410 430 431
3 410 431 411
3 411 431 432
3 411 432 412
3 412 432 433
3 412 433 413
3 413 433 434
3 413 434 414
3 414 434 435
3 414 435 415
3 415 435 436
3 415 436 416
3 416 436 437
3 416 437 417
3 417 437 438
3 417 438 418
3 418 438 439
3 418 439 419
3 419 439 440
