ply
format ascii 1.0
comment A synthetic square, subdivided by triangles, with a Dirac delta function applied.
comment made by Bryan Wolfford
element vertex 49
property int x
property int y
property int z
property float quality
element face 72
property list uchar int32 vertex_indices
end_header
-3 -3 0 0
-3 -2 0 0
-3 -1 0 0
-3 0 0 0
-3 1 0 0
-3 2 0 0
-3 3 0 0
-2 -3 0 0
-2 -2 0 0
-2 -1 0 0
-2 0 0 0
-2 1 0 0
-2 2 0 0
-2 3 0 0
-1 -3 0 0
-1 -2 0 0
-1 -1 0 0
-1 0 0 0
-1 1 0 0
-1 2 0 0
-1 3 0 0
0 -3 0 0
0 -2 0 0
0 -1 0 0
0 0 0 1
0 1 0 0
0 2 0 0
0 3 0 0
1 -3 0 0
1 -2 0 0
1 -1 0 0
1 0 0 0
1 1 0 0
1 2 0 0
1 3 0 0
2 -3 0 0
2 -2 0 0
2 -1 0 0
2 0 0 0
2 1 0 0
2 2 0 0
2 3 0 0
3 -3 0 0
3 -2 0 0
3 -1 0 0
3 0 0 0
3 1 0 0
3 2 0 0
3 3 0 0
3 0 7 1
3 1 7 8
3 1 8 2
3 2 8 9
3 2 9 3
3 3 9 10
3 3 10 4
3 4 10 11
3 4 11 5
3 5 11 12
3 5 12 6
3 6 12 13
3 7 14 8
3 8 14 15
3 8 15 9
3 9 15 16
3 9 16 10
3 10 16 17
3 10 17 11
3 11 17 18
3 11 18 12
3 12 18 19
3 12 19 13
3 13 19 20
3 14 21 15
3 15 21 22
3 15 22 16
3 16 22 23
3 16 23 17
3 17 23 24
3 17 24 18
3 18 24 25
3 18 25 19
3 19 25 26
3 19 26 20
3 20 26 27
3 21 28 22
3 22 28 29
3 22 29 23
3 23 29 30
3 23 30 24
3 24 30 31
3 24 31 25
3 25 31 32
3 25 32 26
3 26 32 33
3 26 33 27
3 27 33 34
3 28 35 29
3 29 35 36
3 29 36 30
3 30 36 37
3 30 37 31
3 31 37 38
3 31 38 32
3 32 38 39
3 32 39 33
3 33 39 40
3 33 40 34
3 34 40 41
3 35 42 36
3 36 42 43
3 36 43 37
3 37 43 44
3 37 44 38
3 38 44 45
3 38 45 39
3 39 45 46
3 39 46 40
3 40 46 47
3 40 47 41
3 41 47 48
