ply
format ascii 1.0
comment A synthetic hexagon, subdivided by triangles, with a Dirac delta function applied.
comment made by Bryan Wolfford
element vertex 1057
property int x
property int y
property int z
property float quality
element face 1986
property list uchar int32 vertex_indices
end_header
0 0 0 1
-0.866025 0.5 0 0
-0.866025 -0.5 0 0
0 -1 0 0
0.866025 -0.5 0 0
0.866025 0.5 0 0
0 1 0 0
0.866025 1.5 0 0
1.73205 2 0 0
0.866025 2.5 0 0
0 2 0 0
-0.866025 1.5 0 0
-0.866025 2.5 0 0
-1.73205 2 0 0
-1.73205 1 0 0
-1.73205 0 0 0
-2.59808 0.5 0 0
-2.59808 -0.5 0 0
-1.73205 -1 0 0
-0.866025 -1.5 0 0
-1.73205 -2 0 0
-0.866025 -2.5 0 0
0 -2 0 0
0.866025 -1.5 0 0
0.866025 -2.5 0 0
1.73205 -2 0 0
1.73205 -1 0 0
1.73205 0 0 0
2.59808 -0.5 0 0
2.59808 0.5 0 0
1.73205 1 0 0
2.59808 1.5 0 0
3.4641 2 0 0
2.59808 2.5 0 0
1.73205 3 0 0
2.59808 3.5 0 0
1.73205 4 0 0
0.866025 3.5 0 0
0 3 0 0
0 4 0 0
-0.866025 3.5 0 0
-1.73205 3 0 0
-1.73205 4 0 0
-2.59808 3.5 0 0
-2.59808 2.5 0 0
-2.59808 1.5 0 0
-3.4641 2 0 0
-3.4641 1 0 0
-3.4641 0 0 0
-4.33013 0.5 0 0
-4.33013 -0.5 0 0
-3.4641 -1 0 0
-2.59808 -1.5 0 0
-3.4641 -2 0 0
-2.59808 -2.5 0 0
-1.73205 -3 0 0
-2.59808 -3.5 0 0
-1.73205 -4 0 0
-0.866025 -3.5 0 0
0 -3 0 0
0 -4 0 0
0.866025 -3.5 0 0
1.73205 -3 0 0
1.73205 -4 0 0
2.59808 -3.5 0 0
2.59808 -2.5 0 0
2.59808 -1.5 0 0
3.4641 -2 0 0
3.4641 -1 0 0
3.4641 0 0 0
4.33013 -0.5 0 0
4.33013 0.5 0 0
3.4641 1 0 0
4.33013 1.5 0 0
5.19615 2 0 0
4.33013 2.5 0 0
3.4641 3 0 0
4.33013 3.5 0 0
3.4641 4 0 0
2.59808 4.5 0 0
3.4641 5 0 0
2.59808 5.5 0 0
1.73205 5 0 0
0.866025 4.5 0 0
0.866025 5.5 0 0
0 5 0 0
-0.866025 4.5 0 0
-0.866025 5.5 0 0
-1.73205 5 0 0
-2.59808 4.5 0 0
-2.59808 5.5 0 0
-3.4641 5 0 0
-3.4641 4 0 0
-3.4641 3 0 0
-4.33013 3.5 0 0
-4.33013 2.5 0 0
-4.33013 1.5 0 0
-5.19615 2 0 0
-5.19615 1 0 0
-5.19615 0 0 0
-6.06218 0.5 0 0
-6.06218 -0.5 0 0
-5.19615 -1 0 0
-4.33013 -1.5 0 0
-5.19615 -2 0 0
-4.33013 -2.5 0 0
-3.4641 -3 0 0
-4.33013 -3.5 0 0
-3.4641 -4 0 0
-2.59808 -4.5 0 0
-3.4641 -5 0 0
-2.59808 -5.5 0 0
-1.73205 -5 0 0
-0.866025 -4.5 0 0
-0.866025 -5.5 0 0
0 -5 0 0
0.866025 -4.5 0 0
0.866025 -5.5 0 0
1.73205 -5 0 0
2.59808 -4.5 0 0
2.59808 -5.5 0 0
3.4641 -5 0 0
3.4641 -4 0 0
3.4641 -3 0 0
4.33013 -3.5 0 0
4.33013 -2.5 0 0
4.33013 -1.5 0 0
5.19615 -2 0 0
5.19615 -1 0 0
5.19615 0 0 0
6.06218 -0.5 0 0
6.06218 0.5 0 0
5.19615 1 0 0
6.06218 1.5 0 0
6.9282 2 0 0
6.06218 2.5 0 0
5.19615 3 0 0
6.06218 3.5 0 0
5.19615 4 0 0
4.33013 4.5 0 0
5.19615 5 0 0
4.33013 5.5 0 0
3.4641 6 0 0
4.33013 6.5 0 0
3.4641 7 0 0
2.59808 6.5 0 0
1.73205 6 0 0
1.73205 7 0 0
0.866025 6.5 0 0
0 6 0 0
0 7 0 0
-0.866025 6.5 0 0
-1.73205 6 0 0
-1.73205 7 0 0
-2.59808 6.5 0 0
-3.4641 6 0 0
-3.4641 7 0 0
-4.33013 6.5 0 0
-4.33013 5.5 0 0
-4.33013 4.5 0 0
-5.19615 5 0 0
-5.19615 4 0 0
-5.19615 3 0 0
-6.06218 3.5 0 0
-6.06218 2.5 0 0
-6.06218 1.5 0 0
-6.9282 2 0 0
-6.9282 1 0 0
-6.9282 0 0 0
-7.79423 0.5 0 0
-7.79423 -0.5 0 0
-6.9282 -1 0 0
-6.06218 -1.5 0 0
-6.9282 -2 0 0
-6.06218 -2.5 0 0
-5.19615 -3 0 0
-6.06218 -3.5 0 0
-5.19615 -4 0 0
-4.33013 -4.5 0 0
-5.19615 -5 0 0
-4.33013 -5.5 0 0
-3.4641 -6 0 0
-4.33013 -6.5 0 0
-3.4641 -7 0 0
-2.59808 -6.5 0 0
-1.73205 -6 0 0
-1.73205 -7 0 0
-0.866025 -6.5 0 0
0 -6 0 0
0 -7 0 0
0.866025 -6.5 0 0
1.73205 -6 0 0
1.73205 -7 0 0
2.59808 -6.5 0 0
3.4641 -6 0 0
3.4641 -7 0 0
4.33013 -6.5 0 0
4.33013 -5.5 0 0
4.33013 -4.5 0 0
5.19615 -5 0 0
5.19615 -4 0 0
5.19615 -3 0 0
6.06218 -3.5 0 0
6.06218 -2.5 0 0
6.06218 -1.5 0 0
6.9282 -2 0 0
6.9282 -1 0 0
6.9282 0 0 0
7.79423 -0.5 0 0
7.79423 0.5 0 0
6.9282 1 0 0
7.79423 1.5 0 0
8.66025 2 0 0
7.79423 2.5 0 0
6.9282 3 0 0
7.79423 3.5 0 0
6.9282 4 0 0
6.06218 4.5 0 0
6.9282 5 0 0
6.06218 5.5 0 0
5.19615 6 0 0
6.06218 6.5 0 0
5.19615 7 0 0
4.33013 7.5 0 0
5.19615 8 0 0
4.33013 8.5 0 0
3.4641 8 0 0
2.59808 7.5 0 0
2.59808 8.5 0 0
1.73205 8 0 0
0.866025 7.5 0 0
0.866025 8.5 0 0
0 8 0 0
-0.866025 7.5 0 0
-0.866025 8.5 0 0
-1.73205 8 0 0
-2.59808 7.5 0 0
-2.59808 8.5 0 0
-3.4641 8 0 0
-4.33013 7.5 0 0
-4.33013 8.5 0 0
-5.19615 8 0 0
-5.19615 7 0 0
-5.19615 6 0 0
-6.06218 6.5 0 0
-6.06218 5.5 0 0
-6.06218 4.5 0 0
-6.9282 5 0 0
-6.9282 4 0 0
-6.9282 3 0 0
-7.79423 3.5 0 0
-7.79423 2.5 0 0
-7.79423 1.5 0 0
-8.66025 2 0 0
-8.66025 1 0 0
-8.66025 0 0 0
-9.52628 0.5 0 0
-9.52628 -0.5 0 0
-8.66025 -1 0 0
-7.79423 -1.5 0 0
-8.66025 -2 0 0
-7.79423 -2.5 0 0
-6.9282 -3 0 0
-7.79423 -3.5 0 0
-6.9282 -4 0 0
-6.06218 -4.5 0 0
-6.9282 -5 0 0
-6.06218 -5.5 0 0
-5.19615 -6 0 0
-6.06218 -6.5 0 0
-5.19615 -7 0 0
-4.33013 -7.5 0 0
-5.19615 -8 0 0
-4.33013 -8.5 0 0
-3.4641 -8 0 0
-2.59808 -7.5 0 0
-2.59808 -8.5 0 0
-1.73205 -8 0 0
-0.866025 -7.5 0 0
-0.866025 -8.5 0 0
0 -8 0 0
0.866025 -7.5 0 0
0.866025 -8.5 0 0
1.73205 -8 0 0
2.59808 -7.5 0 0
2.59808 -8.5 0 0
3.4641 -8 0 0
4.33013 -7.5 0 0
4.33013 -8.5 0 0
5.19615 -8 0 0
5.19615 -7 0 0
5.19615 -6 0 0
6.06218 -6.5 0 0
6.06218 -5.5 0 0
6.06218 -4.5 0 0
6.9282 -5 0 0
6.9282 -4 0 0
6.9282 -3 0 0
7.79423 -3.5 0 0
7.79423 -2.5 0 0
7.79423 -1.5 0 0
8.66025 -2 0 0
8.66025 -1 0 0
8.66025 0 0 0
9.52628 -0.5 0 0
9.52628 0.5 0 0
8.66025 1 0 0
9.52628 1.5 0 0
10.3923 2 0 0
9.52628 2.5 0 0
8.66025 3 0 0
9.52628 3.5 0 0
8.66025 4 0 0
7.79423 4.5 0 0
8.66025 5 0 0
7.79423 5.5 0 0
6.9282 6 0 0
7.79423 6.5 0 0
6.9282 7 0 0
6.06218 7.5 0 0
6.9282 8 0 0
6.06218 8.5 0 0
5.19615 9 0 0
6.06218 9.5 0 0
5.19615 10 0 0
4.33013 9.5 0 0
3.4641 9 0 0
3.4641 10 0 0
2.59808 9.5 0 0
1.73205 9 0 0
1.73205 10 0 0
0.866025 9.5 0 0
0 9 0 0
0 10 0 0
-0.866025 9.5 0 0
-1.73205 9 0 0
-1.73205 10 0 0
-2.59808 9.5 0 0
-3.4641 9 0 0
-3.4641 10 0 0
-4.33013 9.5 0 0
-5.19615 9 0 0
-5.19615 10 0 0
-6.06218 9.5 0 0
-6.06218 8.5 0 0
-6.06218 7.5 0 0
-6.9282 8 0 0
-6.9282 7 0 0
-6.9282 6 0 0
-7.79423 6.5 0 0
-7.79423 5.5 0 0
-7.79423 4.5 0 0
-8.66025 5 0 0
-8.66025 4 0 0
-8.66025 3 0 0
-9.52628 3.5 0 0
-9.52628 2.5 0 0
-9.52628 1.5 0 0
-10.3923 2 0 0
-10.3923 1 0 0
-10.3923 0 0 0
-11.2583 0.5 0 0
-11.2583 -0.5 0 0
-10.3923 -1 0 0
-9.52628 -1.5 0 0
-10.3923 -2 0 0
-9.52628 -2.5 0 0
-8.66025 -3 0 0
-9.52628 -3.5 0 0
-8.66025 -4 0 0
-7.79423 -4.5 0 0
-8.66025 -5 0 0
-7.79423 -5.5 0 0
-6.9282 -6 0 0
-7.79423 -6.5 0 0
-6.9282 -7 0 0
-6.06218 -7.5 0 0
-6.9282 -8 0 0
-6.06218 -8.5 0 0
-5.19615 -9 0 0
-6.06218 -9.5 0 0
-5.19615 -10 0 0
-4.33013 -9.5 0 0
-3.4641 -9 0 0
-3.4641 -10 0 0
-2.59808 -9.5 0 0
-1.73205 -9 0 0
-1.73205 -10 0 0
-0.866025 -9.5 0 0
0 -9 0 0
0 -10 0 0
0.866025 -9.5 0 0
1.73205 -9 0 0
1.73205 -10 0 0
2.59808 -9.5 0 0
3.4641 -9 0 0
3.4641 -10 0 0
4.33013 -9.5 0 0
5.19615 -9 0 0
5.19615 -10 0 0
6.06218 -9.5 0 0
6.06218 -8.5 0 0
6.06218 -7.5 0 0
6.9282 -8 0 0
6.9282 -7 0 0
6.9282 -6 0 0
7.79423 -6.5 0 0
7.79423 -5.5 0 0
7.79423 -4.5 0 0
8.66025 -5 0 0
8.66025 -4 0 0
8.66025 -3 0 0
9.52628 -3.5 0 0
9.52628 -2.5 0 0
9.52628 -1.5 0 0
10.3923 -2 0 0
10.3923 -1 0 0
10.3923 0 0 0
11.2583 -0.5 0 0
11.2583 0.5 0 0
10.3923 1 0 0
11.2583 1.5 0 0
12.1244 2 0 0
11.2583 2.5 0 0
10.3923 3 0 0
11.2583 3.5 0 0
10.3923 4 0 0
9.52628 4.5 0 0
10.3923 5 0 0
9.52628 5.5 0 0
8.66025 6 0 0
9.52628 6.5 0 0
8.66025 7 0 0
7.79423 7.5 0 0
8.66025 8 0 0
7.79423 8.5 0 0
6.9282 9 0 0
7.79423 9.5 0 0
6.9282 10 0 0
6.06218 10.5 0 0
6.9282 11 0 0
6.06218 11.5 0 0
5.19615 11 0 0
4.33013 10.5 0 0
4.33013 11.5 0 0
3.4641 11 0 0
2.59808 10.5 0 0
2.59808 11.5 0 0
1.73205 11 0 0
0.866025 10.5 0 0
0.866025 11.5 0 0
0 11 0 0
-0.866025 10.5 0 0
-0.866025 11.5 0 0
-1.73205 11 0 0
-2.59808 10.5 0 0
-2.59808 11.5 0 0
-3.4641 11 0 0
-4.33013 10.5 0 0
-4.33013 11.5 0 0
-5.19615 11 0 0
-6.06218 10.5 0 0
-6.06218 11.5 0 0
-6.9282 11 0 0
-6.9282 10 0 0
-6.9282 9 0 0
-7.79423 9.5 0 0
-7.79423 8.5 0 0
-7.79423 7.5 0 0
-8.66025 8 0 0
-8.66025 7 0 0
-8.66025 6 0 0
-9.52628 6.5 0 0
-9.52628 5.5 0 0
-9.52628 4.5 0 0
-10.3923 5 0 0
-10.3923 4 0 0
-10.3923 3 0 0
-11.2583 3.5 0 0
-11.2583 2.5 0 0
-11.2583 1.5 0 0
-12.1244 2 0 0
-12.1244 1 0 0
-12.1244 0 0 0
-12.9904 0.5 0 0
-12.9904 -0.5 0 0
-12.1244 -1 0 0
-11.2583 -1.5 0 0
-12.1244 -2 0 0
-11.2583 -2.5 0 0
-10.3923 -3 0 0
-11.2583 -3.5 0 0
-10.3923 -4 0 0
-9.52628 -4.5 0 0
-10.3923 -5 0 0
-9.52628 -5.5 0 0
-8.66025 -6 0 0
-9.52628 -6.5 0 0
-8.66025 -7 0 0
-7.79423 -7.5 0 0
-8.66025 -8 0 0
-7.79423 -8.5 0 0
-6.9282 -9 0 0
-7.79423 -9.5 0 0
-6.9282 -10 0 0
-6.06218 -10.5 0 0
-6.9282 -11 0 0
-6.06218 -11.5 0 0
-5.19615 -11 0 0
-4.33013 -10.5 0 0
-4.33013 -11.5 0 0
-3.4641 -11 0 0
-2.59808 -10.5 0 0
-2.59808 -11.5 0 0
-1.73205 -11 0 0
-0.866025 -10.5 0 0
-0.866025 -11.5 0 0
0 -11 0 0
0.866025 -10.5 0 0
0.866025 -11.5 0 0
1.73205 -11 0 0
2.59808 -10.5 0 0
2.59808 -11.5 0 0
3.4641 -11 0 0
4.33013 -10.5 0 0
4.33013 -11.5 0 0
5.19615 -11 0 0
6.06218 -10.5 0 0
6.06218 -11.5 0 0
6.9282 -11 0 0
6.9282 -10 0 0
6.9282 -9 0 0
7.79423 -9.5 0 0
7.79423 -8.5 0 0
7.79423 -7.5 0 0
8.66025 -8 0 0
8.66025 -7 0 0
8.66025 -6 0 0
9.52628 -6.5 0 0
9.52628 -5.5 0 0
9.52628 -4.5 0 0
10.3923 -5 0 0
10.3923 -4 0 0
10.3923 -3 0 0
11.2583 -3.5 0 0
11.2583 -2.5 0 0
11.2583 -1.5 0 0
12.1244 -2 0 0
12.1244 -1 0 0
12.1244 0 0 0
12.9904 -0.5 0 0
12.9904 0.5 0 0
12.1244 1 0 0
12.9904 1.5 0 0
13.8564 2 0 0
12.9904 2.5 0 0
12.1244 3 0 0
12.9904 3.5 0 0
12.1244 4 0 0
11.2583 4.5 0 0
12.1244 5 0 0
11.2583 5.5 0 0
10.3923 6 0 0
11.2583 6.5 0 0
10.3923 7 0 0
9.52628 7.5 0 0
10.3923 8 0 0
9.52628 8.5 0 0
8.66025 9 0 0
9.52628 9.5 0 0
8.66025 10 0 0
7.79423 10.5 0 0
8.66025 11 0 0
7.79423 11.5 0 0
6.9282 12 0 0
7.79423 12.5 0 0
6.9282 13 0 0
6.06218 12.5 0 0
5.19615 12 0 0
5.19615 13 0 0
4.33013 12.5 0 0
3.4641 12 0 0
3.4641 13 0 0
2.59808 12.5 0 0
1.73205 12 0 0
1.73205 13 0 0
0.866025 12.5 0 0
0 12 0 0
0 13 0 0
-0.866025 12.5 0 0
-1.73205 12 0 0
-1.73205 13 0 0
-2.59808 12.5 0 0
-3.4641 12 0 0
-3.4641 13 0 0
-4.33013 12.5 0 0
-5.19615 12 0 0
-5.19615 13 0 0
-6.06218 12.5 0 0
-6.9282 12 0 0
-6.9282 13 0 0
-7.79423 12.5 0 0
-7.79423 11.5 0 0
-7.79423 10.5 0 0
-8.66025 11 0 0
-8.66025 10 0 0
-8.66025 9 0 0
-9.52628 9.5 0 0
-9.52628 8.5 0 0
-9.52628 7.5 0 0
-10.3923 8 0 0
-10.3923 7 0 0
-10.3923 6 0 0
-11.2583 6.5 0 0
-11.2583 5.5 0 0
-11.2583 4.5 0 0
-12.1244 5 0 0
-12.1244 4 0 0
-12.1244 3 0 0
-12.9904 3.5 0 0
-12.9904 2.5 0 0
-12.9904 1.5 0 0
-13.8564 2 0 0
-13.8564 1 0 0
-13.8564 0 0 0
-14.7224 0.5 0 0
-14.7224 -0.5 0 0
-13.8564 -1 0 0
-12.9904 -1.5 0 0
-13.8564 -2 0 0
-12.9904 -2.5 0 0
-12.1244 -3 0 0
-12.9904 -3.5 0 0
-12.1244 -4 0 0
-11.2583 -4.5 0 0
-12.1244 -5 0 0
-11.2583 -5.5 0 0
-10.3923 -6 0 0
-11.2583 -6.5 0 0
-10.3923 -7 0 0
-9.52628 -7.5 0 0
-10.3923 -8 0 0
-9.52628 -8.5 0 0
-8.66025 -9 0 0
-9.52628 -9.5 0 0
-8.66025 -10 0 0
-7.79423 -10.5 0 0
-8.66025 -11 0 0
-7.79423 -11.5 0 0
-6.9282 -12 0 0
-7.79423 -12.5 0 0
-6.9282 -13 0 0
-6.06218 -12.5 0 0
-5.19615 -12 0 0
-5.19615 -13 0 0
-4.33013 -12.5 0 0
-3.4641 -12 0 0
-3.4641 -13 0 0
-2.59808 -12.5 0 0
-1.73205 -12 0 0
-1.73205 -13 0 0
-0.866025 -12.5 0 0
0 -12 0 0
0 -13 0 0
0.866025 -12.5 0 0
1.73205 -12 0 0
1.73205 -13 0 0
2.59808 -12.5 0 0
3.4641 -12 0 0
3.4641 -13 0 0
4.33013 -12.5 0 0
5.19615 -12 0 0
5.19615 -13 0 0
6.06218 -12.5 0 0
6.9282 -12 0 0
6.9282 -13 0 0
7.79423 -12.5 0 0
7.79423 -11.5 0 0
7.79423 -10.5 0 0
8.66025 -11 0 0
8.66025 -10 0 0
8.66025 -9 0 0
9.52628 -9.5 0 0
9.52628 -8.5 0 0
9.52628 -7.5 0 0
10.3923 -8 0 0
10.3923 -7 0 0
10.3923 -6 0 0
11.2583 -6.5 0 0
11.2583 -5.5 0 0
11.2583 -4.5 0 0
12.1244 -5 0 0
12.1244 -4 0 0
12.1244 -3 0 0
12.9904 -3.5 0 0
12.9904 -2.5 0 0
12.9904 -1.5 0 0
13.8564 -2 0 0
13.8564 -1 0 0
13.8564 0 0 0
14.7224 -0.5 0 0
14.7224 0.5 0 0
13.8564 1 0 0
14.7224 1.5 0 0
15.5885 2 0 0
14.7224 2.5 0 0
13.8564 3 0 0
14.7224 3.5 0 0
13.8564 4 0 0
12.9904 4.5 0 0
13.8564 5 0 0
12.9904 5.5 0 0
12.1244 6 0 0
12.9904 6.5 0 0
12.1244 7 0 0
11.2583 7.5 0 0
12.1244 8 0 0
11.2583 8.5 0 0
10.3923 9 0 0
11.2583 9.5 0 0
10.3923 10 0 0
9.52628 10.5 0 0
10.3923 11 0 0
9.52628 11.5 0 0
8.66025 12 0 0
9.52628 12.5 0 0
8.66025 13 0 0
7.79423 13.5 0 0
8.66025 14 0 0
7.79423 14.5 0 0
6.9282 14 0 0
6.06218 13.5 0 0
6.06218 14.5 0 0
5.19615 14 0 0
4.33013 13.5 0 0
4.33013 14.5 0 0
3.4641 14 0 0
2.59808 13.5 0 0
2.59808 14.5 0 0
1.73205 14 0 0
0.866025 13.5 0 0
0.866025 14.5 0 0
0 14 0 0
-0.866025 13.5 0 0
-0.866025 14.5 0 0
-1.73205 14 0 0
-2.59808 13.5 0 0
-2.59808 14.5 0 0
-3.4641 14 0 0
-4.33013 13.5 0 0
-4.33013 14.5 0 0
-5.19615 14 0 0
-6.06218 13.5 0 0
-6.06218 14.5 0 0
-6.9282 14 0 0
-7.79423 13.5 0 0
-7.79423 14.5 0 0
-8.66025 14 0 0
-8.66025 13 0 0
-8.66025 12 0 0
-9.52628 12.5 0 0
-9.52628 11.5 0 0
-9.52628 10.5 0 0
-10.3923 11 0 0
-10.3923 10 0 0
-10.3923 9 0 0
-11.2583 9.5 0 0
-11.2583 8.5 0 0
-11.2583 7.5 0 0
-12.1244 8 0 0
-12.1244 7 0 0
-12.1244 6 0 0
-12.9904 6.5 0 0
-12.9904 5.5 0 0
-12.9904 4.5 0 0
-13.8564 5 0 0
-13.8564 4 0 0
-13.8564 3 0 0
-14.7224 3.5 0 0
-14.7224 2.5 0 0
-14.7224 1.5 0 0
-15.5885 2 0 0
-15.5885 1 0 0
-15.5885 0 0 0
-16.4545 0.5 0 0
-16.4545 -0.5 0 0
-15.5885 -1 0 0
-14.7224 -1.5 0 0
-15.5885 -2 0 0
-14.7224 -2.5 0 0
-13.8564 -3 0 0
-14.7224 -3.5 0 0
-13.8564 -4 0 0
-12.9904 -4.5 0 0
-13.8564 -5 0 0
-12.9904 -5.5 0 0
-12.1244 -6 0 0
-12.9904 -6.5 0 0
-12.1244 -7 0 0
-11.2583 -7.5 0 0
-12.1244 -8 0 0
-11.2583 -8.5 0 0
-10.3923 -9 0 0
-11.2583 -9.5 0 0
-10.3923 -10 0 0
-9.52628 -10.5 0 0
-10.3923 -11 0 0
-9.52628 -11.5 0 0
-8.66025 -12 0 0
-9.52628 -12.5 0 0
-8.66025 -13 0 0
-7.79423 -13.5 0 0
-8.66025 -14 0 0
-7.79423 -14.5 0 0
-6.9282 -14 0 0
-6.06218 -13.5 0 0
-6.06218 -14.5 0 0
-5.19615 -14 0 0
-4.33013 -13.5 0 0
-4.33013 -14.5 0 0
-3.4641 -14 0 0
-2.59808 -13.5 0 0
-2.59808 -14.5 0 0
-1.73205 -14 0 0
-0.866025 -13.5 0 0
-0.866025 -14.5 0 0
0 -14 0 0
0.866025 -13.5 0 0
0.866025 -14.5 0 0
1.73205 -14 0 0
2.59808 -13.5 0 0
2.59808 -14.5 0 0
3.4641 -14 0 0
4.33013 -13.5 0 0
4.33013 -14.5 0 0
5.19615 -14 0 0
6.06218 -13.5 0 0
6.06218 -14.5 0 0
6.9282 -14 0 0
7.79423 -13.5 0 0
7.79423 -14.5 0 0
8.66025 -14 0 0
8.66025 -13 0 0
8.66025 -12 0 0
9.52628 -12.5 0 0
9.52628 -11.5 0 0
9.52628 -10.5 0 0
10.3923 -11 0 0
10.3923 -10 0 0
10.3923 -9 0 0
11.2583 -9.5 0 0
11.2583 -8.5 0 0
11.2583 -7.5 0 0
12.1244 -8 0 0
12.1244 -7 0 0
12.1244 -6 0 0
12.9904 -6.5 0 0
12.9904 -5.5 0 0
12.9904 -4.5 0 0
13.8564 -5 0 0
13.8564 -4 0 0
13.8564 -3 0 0
14.7224 -3.5 0 0
14.7224 -2.5 0 0
14.7224 -1.5 0 0
15.5885 -2 0 0
15.5885 -1 0 0
15.5885 0 0 0
16.4545 -0.5 0 0
16.4545 0.5 0 0
15.5885 1 0 0
16.4545 1.5 0 0
17.3205 2 0 0
16.4545 2.5 0 0
15.5885 3 0 0
16.4545 3.5 0 0
15.5885 4 0 0
14.7224 4.5 0 0
15.5885 5 0 0
14.7224 5.5 0 0
13.8564 6 0 0
14.7224 6.5 0 0
13.8564 7 0 0
12.9904 7.5 0 0
13.8564 8 0 0
12.9904 8.5 0 0
12.1244 9 0 0
12.9904 9.5 0 0
12.1244 10 0 0
11.2583 10.5 0 0
12.1244 11 0 0
11.2583 11.5 0 0
10.3923 12 0 0
11.2583 12.5 0 0
10.3923 13 0 0
9.52628 13.5 0 0
10.3923 14 0 0
9.52628 14.5 0 0
8.66025 15 0 0
9.52628 15.5 0 0
8.66025 16 0 0
7.79423 15.5 0 0
6.9282 15 0 0
6.9282 16 0 0
6.06218 15.5 0 0
5.19615 15 0 0
5.19615 16 0 0
4.33013 15.5 0 0
3.4641 15 0 0
3.4641 16 0 0
2.59808 15.5 0 0
1.73205 15 0 0
1.73205 16 0 0
0.866025 15.5 0 0
0 15 0 0
0 16 0 0
-0.866025 15.5 0 0
-1.73205 15 0 0
-1.73205 16 0 0
-2.59808 15.5 0 0
-3.4641 15 0 0
-3.4641 16 0 0
-4.33013 15.5 0 0
-5.19615 15 0 0
-5.19615 16 0 0
-6.06218 15.5 0 0
-6.9282 15 0 0
-6.9282 16 0 0
-7.79423 15.5 0 0
-8.66025 15 0 0
-8.66025 16 0 0
-9.52628 15.5 0 0
-9.52628 14.5 0 0
-9.52628 13.5 0 0
-10.3923 14 0 0
-10.3923 13 0 0
-10.3923 12 0 0
-11.2583 12.5 0 0
-11.2583 11.5 0 0
-11.2583 10.5 0 0
-12.1244 11 0 0
-12.1244 10 0 0
-12.1244 9 0 0
-12.9904 9.5 0 0
-12.9904 8.5 0 0
-12.9904 7.5 0 0
-13.8564 8 0 0
-13.8564 7 0 0
-13.8564 6 0 0
-14.7224 6.5 0 0
-14.7224 5.5 0 0
-14.7224 4.5 0 0
-15.5885 5 0 0
-15.5885 4 0 0
-15.5885 3 0 0
-16.4545 3.5 0 0
-16.4545 2.5 0 0
-16.4545 1.5 0 0
-17.3205 2 0 0
-17.3205 1 0 0
-17.3205 0 0 0
-18.1865 0.5 0 0
-18.1865 -0.5 0 0
-17.3205 -1 0 0
-16.4545 -1.5 0 0
-17.3205 -2 0 0
-16.4545 -2.5 0 0
-15.5885 -3 0 0
-16.4545 -3.5 0 0
-15.5885 -4 0 0
-14.7224 -4.5 0 0
-15.5885 -5 0 0
-14.7224 -5.5 0 0
-13.8564 -6 0 0
-14.7224 -6.5 0 0
-13.8564 -7 0 0
-12.9904 -7.5 0 0
-13.8564 -8 0 0
-12.9904 -8.5 0 0
-12.1244 -9 0 0
-12.9904 -9.5 0 0
-12.1244 -10 0 0
-11.2583 -10.5 0 0
-12.1244 -11 0 0
-11.2583 -11.5 0 0
-10.3923 -12 0 0
-11.2583 -12.5 0 0
-10.3923 -13 0 0
-9.52628 -13.5 0 0
-10.3923 -14 0 0
-9.52628 -14.5 0 0
-8.66025 -15 0 0
-9.52628 -15.5 0 0
-8.66025 -16 0 0
-7.79423 -15.5 0 0
-6.9282 -15 0 0
-6.9282 -16 0 0
-6.06218 -15.5 0 0
-5.19615 -15 0 0
-5.19615 -16 0 0
-4.33013 -15.5 0 0
-3.4641 -15 0 0
-3.4641 -16 0 0
-2.59808 -15.5 0 0
-1.73205 -15 0 0
-1.73205 -16 0 0
-0.866025 -15.5 0 0
0 -15 0 0
0 -16 0 0
0.866025 -15.5 0 0
1.73205 -15 0 0
1.73205 -16 0 0
2.59808 -15.5 0 0
3.4641 -15 0 0
3.4641 -16 0 0
4.33013 -15.5 0 0
5.19615 -15 0 0
5.19615 -16 0 0
6.06218 -15.5 0 0
6.9282 -15 0 0
6.9282 -16 0 0
7.79423 -15.5 0 0
8.66025 -15 0 0
8.66025 -16 0 0
9.52628 -15.5 0 0
9.52628 -14.5 0 0
9.52628 -13.5 0 0
10.3923 -14 0 0
10.3923 -13 0 0
10.3923 -12 0 0
11.2583 -12.5 0 0
11.2583 -11.5 0 0
11.2583 -10.5 0 0
12.1244 -11 0 0
12.1244 -10 0 0
12.1244 -9 0 0
12.9904 -9.5 0 0
12.9904 -8.5 0 0
12.9904 -7.5 0 0
13.8564 -8 0 0
13.8564 -7 0 0
13.8564 -6 0 0
14.7224 -6.5 0 0
14.7224 -5.5 0 0
14.7224 -4.5 0 0
15.5885 -5 0 0
15.5885 -4 0 0
15.5885 -3 0 0
16.4545 -3.5 0 0
16.4545 -2.5 0 0
16.4545 -1.5 0 0
17.3205 -2 0 0
17.3205 -1 0 0
17.3205 0 0 0
18.1865 -0.5 0 0
18.1865 0.5 0 0
17.3205 1 0 0
3 0 1 2
3 0 2 3
3 0 3 4
3 0 4 5
3 0 5 6
3 0 6 1
3 7 8 9
3 7 9 10
3 7 10 6
3 7 6 5
3 7 5 30
3 7 30 8
3 11 12 13
3 11 13 14
3 11 14 1
3 11 1 6
3 11 6 10
3 11 10 12
3 15 16 17
3 15 17 18
3 15 18 2
3 15 2 1
3 15 1 14
3 15 14 16
3 19 20 21
3 19 21 22
3 19 22 3
3 19 3 2
3 19 2 18
3 19 18 20
3 23 24 25
3 23 25 26
3 23 26 4
3 23 4 3
3 23 3 22
3 23 22 24
3 27 28 29
3 27 29 30
3 27 30 5
3 27 5 4
3 27 4 26
3 27 26 28
3 31 32 33
3 31 33 8
3 31 8 30
3 31 30 29
3 31 29 72
3 31 72 32
3 34 35 36
3 34 36 37
3 34 37 9
3 34 9 8
3 34 8 33
3 34 33 35
3 38 39 40
3 38 40 12
3 38 12 10
3 38 10 9
3 38 9 37
3 38 37 39
3 41 42 43
3 41 43 44
3 41 44 13
3 41 13 12
3 41 12 40
3 41 40 42
3 45 46 47
3 45 47 16
3 45 16 14
3 45 14 13
3 45 13 44
3 45 44 46
3 48 49 50
3 48 50 51
3 48 51 17
3 48 17 16
3 48 16 47
3 48 47 49
3 52 53 54
3 52 54 20
3 52 20 18
3 52 18 17
3 52 17 51
3 52 51 53
3 55 56 57
3 55 57 58
3 55 58 21
3 55 21 20
3 55 20 54
3 55 54 56
3 59 60 61
3 59 61 24
3 59 24 22
3 59 22 21
3 59 21 58
3 59 58 60
3 62 63 64
3 62 64 65
3 62 65 25
3 62 25 24
3 62 24 61
3 62 61 63
3 66 67 68
3 66 68 28
3 66 28 26
3 66 26 25
3 66 25 65
3 66 65 67
3 69 70 71
3 69 71 72
3 69 72 29
3 69 29 28
3 69 28 68
3 69 68 70
3 73 74 75
3 73 75 32
3 73 32 72
3 73 72 71
3 73 71 132
3 73 132 74
3 76 77 78
3 76 78 35
3 76 35 33
3 76 33 32
3 76 32 75
3 76 75 77
3 79 80 81
3 79 81 82
3 79 82 36
3 79 36 35
3 79 35 78
3 79 78 80
3 83 84 85
3 83 85 39
3 83 39 37
3 83 37 36
3 83 36 82
3 83 82 84
3 86 87 88
3 86 88 42
3 86 42 40
3 86 40 39
3 86 39 85
3 86 85 87
3 89 90 91
3 89 91 92
3 89 92 43
3 89 43 42
3 89 42 88
3 89 88 90
3 93 94 95
3 93 95 46
3 93 46 44
3 93 44 43
3 93 43 92
3 93 92 94
3 96 97 98
3 96 98 49
3 96 49 47
3 96 47 46
3 96 46 95
3 96 95 97
3 99 100 101
3 99 101 102
3 99 102 50
3 99 50 49
3 99 49 98
3 99 98 100
3 103 104 105
3 103 105 53
3 103 53 51
3 103 51 50
3 103 50 102
3 103 102 104
3 106 107 108
3 106 108 56
3 106 56 54
3 106 54 53
3 106 53 105
3 106 105 107
3 109 110 111
3 109 111 112
3 109 112 57
3 109 57 56
3 109 56 108
3 109 108 110
3 113 114 115
3 113 115 60
3 113 60 58
3 113 58 57
3 113 57 112
3 113 112 114
3 116 117 118
3 116 118 63
3 116 63 61
3 116 61 60
3 116 60 115
3 116 115 117
3 119 120 121
3 119 121 122
3 119 122 64
3 119 64 63
3 119 63 118
3 119 118 120
3 123 124 125
3 123 125 67
3 123 67 65
3 123 65 64
3 123 64 122
3 123 122 124
3 126 127 128
3 126 128 70
3 126 70 68
3 126 68 67
3 126 67 125
3 126 125 127
3 129 130 131
3 129 131 132
3 129 132 71
3 129 71 70
3 129 70 128
3 129 128 130
3 133 134 135
3 133 135 74
3 133 74 132
3 133 132 131
3 133 131 210
3 133 210 134
3 136 137 138
3 136 138 77
3 136 77 75
3 136 75 74
3 136 74 135
3 136 135 137
3 139 140 141
3 139 141 80
3 139 80 78
3 139 78 77
3 139 77 138
3 139 138 140
3 142 143 144
3 142 144 145
3 142 145 81
3 142 81 80
3 142 80 141
3 142 141 143
3 146 147 148
3 146 148 84
3 146 84 82
3 146 82 81
3 146 81 145
3 146 145 147
3 149 150 151
3 149 151 87
3 149 87 85
3 149 85 84
3 149 84 148
3 149 148 150
3 152 153 154
3 152 154 90
3 152 90 88
3 152 88 87
3 152 87 151
3 152 151 153
3 155 156 157
3 155 157 158
3 155 158 91
3 155 91 90
3 155 90 154
3 155 154 156
3 159 160 161
3 159 161 94
3 159 94 92
3 159 92 91
3 159 91 158
3 159 158 160
3 162 163 164
3 162 164 97
3 162 97 95
3 162 95 94
3 162 94 161
3 162 161 163
3 165 166 167
3 165 167 100
3 165 100 98
3 165 98 97
3 165 97 164
3 165 164 166
3 168 169 170
3 168 170 171
3 168 171 101
3 168 101 100
3 168 100 167
3 168 167 169
3 172 173 174
3 172 174 104
3 172 104 102
3 172 102 101
3 172 101 171
3 172 171 173
3 175 176 177
3 175 177 107
3 175 107 105
3 175 105 104
3 175 104 174
3 175 174 176
3 178 179 180
3 178 180 110
3 178 110 108
3 178 108 107
3 178 107 177
3 178 177 179
3 181 182 183
3 181 183 184
3 181 184 111
3 181 111 110
3 181 110 180
3 181 180 182
3 185 186 187
3 185 187 114
3 185 114 112
3 185 112 111
3 185 111 184
3 185 184 186
3 188 189 190
3 188 190 117
3 188 117 115
3 188 115 114
3 188 114 187
3 188 187 189
3 191 192 193
3 191 193 120
3 191 120 118
3 191 118 117
3 191 117 190
3 191 190 192
3 194 195 196
3 194 196 197
3 194 197 121
3 194 121 120
3 194 120 193
3 194 193 195
3 198 199 200
3 198 200 124
3 198 124 122
3 198 122 121
3 198 121 197
3 198 197 199
3 201 202 203
3 201 203 127
3 201 127 125
3 201 125 124
3 201 124 200
3 201 200 202
3 204 205 206
3 204 206 130
3 204 130 128
3 204 128 127
3 204 127 203
3 204 203 205
3 207 208 209
3 207 209 210
3 207 210 131
3 207 131 130
3 207 130 206
3 207 206 208
3 211 212 213
3 211 213 134
3 211 134 210
3 211 210 209
3 211 209 306
3 211 306 212
3 214 215 216
3 214 216 137
3 214 137 135
3 214 135 134
3 214 134 213
3 214 213 215
3 217 218 219
3 217 219 140
3 217 140 138
3 217 138 137
3 217 137 216
3 217 216 218
3 220 221 222
3 220 222 143
3 220 143 141
3 220 141 140
3 220 140 219
3 220 219 221
3 223 224 225
3 223 225 226
3 223 226 144
3 223 144 143
3 223 143 222
3 223 222 224
3 227 228 229
3 227 229 147
3 227 147 145
3 227 145 144
3 227 144 226
3 227 226 228
3 230 231 232
3 230 232 150
3 230 150 148
3 230 148 147
3 230 147 229
3 230 229 231
3 233 234 235
3 233 235 153
3 233 153 151
3 233 151 150
3 233 150 232
3 233 232 234
3 236 237 238
3 236 238 156
3 236 156 154
3 236 154 153
3 236 153 235
3 236 235 237
3 239 240 241
3 239 241 242
3 239 242 157
3 239 157 156
3 239 156 238
3 239 238 240
3 243 244 245
3 243 245 160
3 243 160 158
3 243 158 157
3 243 157 242
3 243 242 244
3 246 247 248
3 246 248 163
3 246 163 161
3 246 161 160
3 246 160 245
3 246 245 247
3 249 250 251
3 249 251 166
3 249 166 164
3 249 164 163
3 249 163 248
3 249 248 250
3 252 253 254
3 252 254 169
3 252 169 167
3 252 167 166
3 252 166 251
3 252 251 253
3 255 256 257
3 255 257 258
3 255 258 170
3 255 170 169
3 255 169 254
3 255 254 256
3 259 260 261
3 259 261 173
3 259 173 171
3 259 171 170
3 259 170 258
3 259 258 260
3 262 263 264
3 262 264 176
3 262 176 174
3 262 174 173
3 262 173 261
3 262 261 263
3 265 266 267
3 265 267 179
3 265 179 177
3 265 177 176
3 265 176 264
3 265 264 266
3 268 269 270
3 268 270 182
3 268 182 180
3 268 180 179
3 268 179 267
3 268 267 269
3 271 272 273
3 271 273 274
3 271 274 183
3 271 183 182
3 271 182 270
3 271 270 272
3 275 276 277
3 275 277 186
3 275 186 184
3 275 184 183
3 275 183 274
3 275 274 276
3 278 279 280
3 278 280 189
3 278 189 187
3 278 187 186
3 278 186 277
3 278 277 279
3 281 282 283
3 281 283 192
3 281 192 190
3 281 190 189
3 281 189 280
3 281 280 282
3 284 285 286
3 284 286 195
3 284 195 193
3 284 193 192
3 284 192 283
3 284 283 285
3 287 288 289
3 287 289 290
3 287 290 196
3 287 196 195
3 287 195 286
3 287 286 288
3 291 292 293
3 291 293 199
3 291 199 197
3 291 197 196
3 291 196 290
3 291 290 292
3 294 295 296
3 294 296 202
3 294 202 200
3 294 200 199
3 294 199 293
3 294 293 295
3 297 298 299
3 297 299 205
3 297 205 203
3 297 203 202
3 297 202 296
3 297 296 298
3 300 301 302
3 300 302 208
3 300 208 206
3 300 206 205
3 300 205 299
3 300 299 301
3 303 304 305
3 303 305 306
3 303 306 209
3 303 209 208
3 303 208 302
3 303 302 304
3 307 308 309
3 307 309 212
3 307 212 306
3 307 306 305
3 307 305 420
3 307 420 308
3 310 311 312
3 310 312 215
3 310 215 213
3 310 213 212
3 310 212 309
3 310 309 311
3 313 314 315
3 313 315 218
3 313 218 216
3 313 216 215
3 313 215 312
3 313 312 314
3 316 317 318
3 316 318 221
3 316 221 219
3 316 219 218
3 316 218 315
3 316 315 317
3 319 320 321
3 319 321 224
3 319 224 222
3 319 222 221
3 319 221 318
3 319 318 320
3 322 323 324
3 322 324 325
3 322 325 225
3 322 225 224
3 322 224 321
3 322 321 323
3 326 327 328
3 326 328 228
3 326 228 226
3 326 226 225
3 326 225 325
3 326 325 327
3 329 330 331
3 329 331 231
3 329 231 229
3 329 229 228
3 329 228 328
3 329 328 330
3 332 333 334
3 332 334 234
3 332 234 232
3 332 232 231
3 332 231 331
3 332 331 333
3 335 336 337
3 335 337 237
3 335 237 235
3 335 235 234
3 335 234 334
3 335 334 336
3 338 339 340
3 338 340 240
3 338 240 238
3 338 238 237
3 338 237 337
3 338 337 339
3 341 342 343
3 341 343 344
3 341 344 241
3 341 241 240
3 341 240 340
3 341 340 342
3 345 346 347
3 345 347 244
3 345 244 242
3 345 242 241
3 345 241 344
3 345 344 346
3 348 349 350
3 348 350 247
3 348 247 245
3 348 245 244
3 348 244 347
3 348 347 349
3 351 352 353
3 351 353 250
3 351 250 248
3 351 248 247
3 351 247 350
3 351 350 352
3 354 355 356
3 354 356 253
3 354 253 251
3 354 251 250
3 354 250 353
3 354 353 355
3 357 358 359
3 357 359 256
3 357 256 254
3 357 254 253
3 357 253 356
3 357 356 358
3 360 361 362
3 360 362 363
3 360 363 257
3 360 257 256
3 360 256 359
3 360 359 361
3 364 365 366
3 364 366 260
3 364 260 258
3 364 258 257
3 364 257 363
3 364 363 365
3 367 368 369
3 367 369 263
3 367 263 261
3 367 261 260
3 367 260 366
3 367 366 368
3 370 371 372
3 370 372 266
3 370 266 264
3 370 264 263
3 370 263 369
3 370 369 371
3 373 374 375
3 373 375 269
3 373 269 267
3 373 267 266
3 373 266 372
3 373 372 374
3 376 377 378
3 376 378 272
3 376 272 270
3 376 270 269
3 376 269 375
3 376 375 377
3 379 380 381
3 379 381 382
3 379 382 273
3 379 273 272
3 379 272 378
3 379 378 380
3 383 384 385
3 383 385 276
3 383 276 274
3 383 274 273
3 383 273 382
3 383 382 384
3 386 387 388
3 386 388 279
3 386 279 277
3 386 277 276
3 386 276 385
3 386 385 387
3 389 390 391
3 389 391 282
3 389 282 280
3 389 280 279
3 389 279 388
3 389 388 390
3 392 393 394
3 392 394 285
3 392 285 283
3 392 283 282
3 392 282 391
3 392 391 393
3 395 396 397
3 395 397 288
3 395 288 286
3 395 286 285
3 395 285 394
3 395 394 396
3 398 399 400
3 398 400 401
3 398 401 289
3 398 289 288
3 398 288 397
3 398 397 399
3 402 403 404
3 402 404 292
3 402 292 290
3 402 290 289
3 402 289 401
3 402 401 403
3 405 406 407
3 405 407 295
3 405 295 293
3 405 293 292
3 405 292 404
3 405 404 406
3 408 409 410
3 408 410 298
3 408 298 296
3 408 296 295
3 408 295 407
3 408 407 409
3 411 412 413
3 411 413 301
3 411 301 299
3 411 299 298
3 411 298 410
3 411 410 412
3 414 415 416
3 414 416 304
3 414 304 302
3 414 302 301
3 414 301 413
3 414 413 415
3 417 418 419
3 417 419 420
3 417 420 305
3 417 305 304
3 417 304 416
3 417 416 418
3 421 422 423
3 421 423 308
3 421 308 420
3 421 420 419
3 421 419 552
3 421 552 422
3 424 425 426
3 424 426 311
3 424 311 309
3 424 309 308
3 424 308 423
3 424 423 425
3 427 428 429
3 427 429 314
3 427 314 312
3 427 312 311
3 427 311 426
3 427 426 428
3 430 431 432
3 430 432 317
3 430 317 315
3 430 315 314
3 430 314 429
3 430 429 431
3 433 434 435
3 433 435 320
3 433 320 318
3 433 318 317
3 433 317 432
3 433 432 434
3 436 437 438
3 436 438 323
3 436 323 321
3 436 321 320
3 436 320 435
3 436 435 437
3 439 440 441
3 439 441 442
3 439 442 324
3 439 324 323
3 439 323 438
3 439 438 440
3 443 444 445
3 443 445 327
3 443 327 325
3 443 325 324
3 443 324 442
3 443 442 444
3 446 447 448
3 446 448 330
3 446 330 328
3 446 328 327
3 446 327 445
3 446 445 447
3 449 450 451
3 449 451 333
3 449 333 331
3 449 331 330
3 449 330 448
3 449 448 450
3 452 453 454
3 452 454 336
3 452 336 334
3 452 334 333
3 452 333 451
3 452 451 453
3 455 456 457
3 455 457 339
3 455 339 337
3 455 337 336
3 455 336 454
3 455 454 456
3 458 459 460
3 458 460 342
3 458 342 340
3 458 340 339
3 458 339 457
3 458 457 459
3 461 462 463
3 461 463 464
3 461 464 343
3 461 343 342
3 461 342 460
3 461 460 462
3 465 466 467
3 465 467 346
3 465 346 344
3 465 344 343
3 465 343 464
3 465 464 466
3 468 469 470
3 468 470 349
3 468 349 347
3 468 347 346
3 468 346 467
3 468 467 469
3 471 472 473
3 471 473 352
3 471 352 350
3 471 350 349
3 471 349 470
3 471 470 472
3 474 475 476
3 474 476 355
3 474 355 353
3 474 353 352
3 474 352 473
3 474 473 475
3 477 478 479
3 477 479 358
3 477 358 356
3 477 356 355
3 477 355 476
3 477 476 478
3 480 481 482
3 480 482 361
3 480 361 359
3 480 359 358
3 480 358 479
3 480 479 481
3 483 484 485
3 483 485 486
3 483 486 362
3 483 362 361
3 483 361 482
3 483 482 484
3 487 488 489
3 487 489 365
3 487 365 363
3 487 363 362
3 487 362 486
3 487 486 488
3 490 491 492
3 490 492 368
3 490 368 366
3 490 366 365
3 490 365 489
3 490 489 491
3 493 494 495
3 493 495 371
3 493 371 369
3 493 369 368
3 493 368 492
3 493 492 494
3 496 497 498
3 496 498 374
3 496 374 372
3 496 372 371
3 496 371 495
3 496 495 497
3 499 500 501
3 499 501 377
3 499 377 375
3 499 375 374
3 499 374 498
3 499 498 500
3 502 503 504
3 502 504 380
3 502 380 378
3 502 378 377
3 502 377 501
3 502 501 503
3 505 506 507
3 505 507 508
3 505 508 381
3 505 381 380
3 505 380 504
3 505 504 506
3 509 510 511
3 509 511 384
3 509 384 382
3 509 382 381
3 509 381 508
3 509 508 510
3 512 513 514
3 512 514 387
3 512 387 385
3 512 385 384
3 512 384 511
3 512 511 513
3 515 516 517
3 515 517 390
3 515 390 388
3 515 388 387
3 515 387 514
3 515 514 516
3 518 519 520
3 518 520 393
3 518 393 391
3 518 391 390
3 518 390 517
3 518 517 519
3 521 522 523
3 521 523 396
3 521 396 394
3 521 394 393
3 521 393 520
3 521 520 522
3 524 525 526
3 524 526 399
3 524 399 397
3 524 397 396
3 524 396 523
3 524 523 525
3 527 528 529
3 527 529 530
3 527 530 400
3 527 400 399
3 527 399 526
3 527 526 528
3 531 532 533
3 531 533 403
3 531 403 401
3 531 401 400
3 531 400 530
3 531 530 532
3 534 535 536
3 534 536 406
3 534 406 404
3 534 404 403
3 534 403 533
3 534 533 535
3 537 538 539
3 537 539 409
3 537 409 407
3 537 407 406
3 537 406 536
3 537 536 538
3 540 541 542
3 540 542 412
3 540 412 410
3 540 410 409
3 540 409 539
3 540 539 541
3 543 544 545
3 543 545 415
3 543 415 413
3 543 413 412
3 543 412 542
3 543 542 544
3 546 547 548
3 546 548 418
3 546 418 416
3 546 416 415
3 546 415 545
3 546 545 547
3 549 550 551
3 549 551 552
3 549 552 419
3 549 419 418
3 549 418 548
3 549 548 550
3 553 554 555
3 553 555 422
3 553 422 552
3 553 552 551
3 553 551 702
3 553 702 554
3 556 557 558
3 556 558 425
3 556 425 423
3 556 423 422
3 556 422 555
3 556 555 557
3 559 560 561
3 559 561 428
3 559 428 426
3 559 426 425
3 559 425 558
3 559 558 560
3 562 563 564
3 562 564 431
3 562 431 429
3 562 429 428
3 562 428 561
3 562 561 563
3 565 566 567
3 565 567 434
3 565 434 432
3 565 432 431
3 565 431 564
3 565 564 566
3 568 569 570
3 568 570 437
3 568 437 435
3 568 435 434
3 568 434 567
3 568 567 569
3 571 572 573
3 571 573 440
3 571 440 438
3 571 438 437
3 571 437 570
3 571 570 572
3 574 575 576
3 574 576 577
3 574 577 441
3 574 441 440
3 574 440 573
3 574 573 575
3 578 579 580
3 578 580 444
3 578 444 442
3 578 442 441
3 578 441 577
3 578 577 579
3 581 582 583
3 581 583 447
3 581 447 445
3 581 445 444
3 581 444 580
3 581 580 582
3 584 585 586
3 584 586 450
3 584 450 448
3 584 448 447
3 584 447 583
3 584 583 585
3 587 588 589
3 587 589 453
3 587 453 451
3 587 451 450
3 587 450 586
3 587 586 588
3 590 591 592
3 590 592 456
3 590 456 454
3 590 454 453
3 590 453 589
3 590 589 591
3 593 594 595
3 593 595 459
3 593 459 457
3 593 457 456
3 593 456 592
3 593 592 594
3 596 597 598
3 596 598 462
3 596 462 460
3 596 460 459
3 596 459 595
3 596 595 597
3 599 600 601
3 599 601 602
3 599 602 463
3 599 463 462
3 599 462 598
3 599 598 600
3 603 604 605
3 603 605 466
3 603 466 464
3 603 464 463
3 603 463 602
3 603 602 604
3 606 607 608
3 606 608 469
3 606 469 467
3 606 467 466
3 606 466 605
3 606 605 607
3 609 610 611
3 609 611 472
3 609 472 470
3 609 470 469
3 609 469 608
3 609 608 610
3 612 613 614
3 612 614 475
3 612 475 473
3 612 473 472
3 612 472 611
3 612 611 613
3 615 616 617
3 615 617 478
3 615 478 476
3 615 476 475
3 615 475 614
3 615 614 616
3 618 619 620
3 618 620 481
3 618 481 479
3 618 479 478
3 618 478 617
3 618 617 619
3 621 622 623
3 621 623 484
3 621 484 482
3 621 482 481
3 621 481 620
3 621 620 622
3 624 625 626
3 624 626 627
3 624 627 485
3 624 485 484
3 624 484 623
3 624 623 625
3 628 629 630
3 628 630 488
3 628 488 486
3 628 486 485
3 628 485 627
3 628 627 629
3 631 632 633
3 631 633 491
3 631 491 489
3 631 489 488
3 631 488 630
3 631 630 632
3 634 635 636
3 634 636 494
3 634 494 492
3 634 492 491
3 634 491 633
3 634 633 635
3 637 638 639
3 637 639 497
3 637 497 495
3 637 495 494
3 637 494 636
3 637 636 638
3 640 641 642
3 640 642 500
3 640 500 498
3 640 498 497
3 640 497 639
3 640 639 641
3 643 644 645
3 643 645 503
3 643 503 501
3 643 501 500
3 643 500 642
3 643 642 644
3 646 647 648
3 646 648 506
3 646 506 504
3 646 504 503
3 646 503 645
3 646 645 647
3 649 650 651
3 649 651 652
3 649 652 507
3 649 507 506
3 649 506 648
3 649 648 650
3 653 654 655
3 653 655 510
3 653 510 508
3 653 508 507
3 653 507 652
3 653 652 654
3 656 657 658
3 656 658 513
3 656 513 511
3 656 511 510
3 656 510 655
3 656 655 657
3 659 660 661
3 659 661 516
3 659 516 514
3 659 514 513
3 659 513 658
3 659 658 660
3 662 663 664
3 662 664 519
3 662 519 517
3 662 517 516
3 662 516 661
3 662 661 663
3 665 666 667
3 665 667 522
3 665 522 520
3 665 520 519
3 665 519 664
3 665 664 666
3 668 669 670
3 668 670 525
3 668 525 523
3 668 523 522
3 668 522 667
3 668 667 669
3 671 672 673
3 671 673 528
3 671 528 526
3 671 526 525
3 671 525 670
3 671 670 672
3 674 675 676
3 674 676 677
3 674 677 529
3 674 529 528
3 674 528 673
3 674 673 675
3 678 679 680
3 678 680 532
3 678 532 530
3 678 530 529
3 678 529 677
3 678 677 679
3 681 682 683
3 681 683 535
3 681 535 533
3 681 533 532
3 681 532 680
3 681 680 682
3 684 685 686
3 684 686 538
3 684 538 536
3 684 536 535
3 684 535 683
3 684 683 685
3 687 688 689
3 687 689 541
3 687 541 539
3 687 539 538
3 687 538 686
3 687 686 688
3 690 691 692
3 690 692 544
3 690 544 542
3 690 542 541
3 690 541 689
3 690 689 691
3 693 694 695
3 693 695 547
3 693 547 545
3 693 545 544
3 693 544 692
3 693 692 694
3 696 697 698
3 696 698 550
3 696 550 548
3 696 548 547
3 696 547 695
3 696 695 697
3 699 700 701
3 699 701 702
3 699 702 551
3 699 551 550
3 699 550 698
3 699 698 700
3 703 704 705
3 703 705 554
3 703 554 702
3 703 702 701
3 703 701 870
3 703 870 704
3 706 707 708
3 706 708 557
3 706 557 555
3 706 555 554
3 706 554 705
3 706 705 707
3 709 710 711
3 709 711 560
3 709 560 558
3 709 558 557
3 709 557 708
3 709 708 710
3 712 713 714
3 712 714 563
3 712 563 561
3 712 561 560
3 712 560 711
3 712 711 713
3 715 716 717
3 715 717 566
3 715 566 564
3 715 564 563
3 715 563 714
3 715 714 716
3 718 719 720
3 718 720 569
3 718 569 567
3 718 567 566
3 718 566 717
3 718 717 719
3 721 722 723
3 721 723 572
3 721 572 570
3 721 570 569
3 721 569 720
3 721 720 722
3 724 725 726
3 724 726 575
3 724 575 573
3 724 573 572
3 724 572 723
3 724 723 725
3 727 728 729
3 727 729 730
3 727 730 576
3 727 576 575
3 727 575 726
3 727 726 728
3 731 732 733
3 731 733 579
3 731 579 577
3 731 577 576
3 731 576 730
3 731 730 732
3 734 735 736
3 734 736 582
3 734 582 580
3 734 580 579
3 734 579 733
3 734 733 735
3 737 738 739
3 737 739 585
3 737 585 583
3 737 583 582
3 737 582 736
3 737 736 738
3 740 741 742
3 740 742 588
3 740 588 586
3 740 586 585
3 740 585 739
3 740 739 741
3 743 744 745
3 743 745 591
3 743 591 589
3 743 589 588
3 743 588 742
3 743 742 744
3 746 747 748
3 746 748 594
3 746 594 592
3 746 592 591
3 746 591 745
3 746 745 747
3 749 750 751
3 749 751 597
3 749 597 595
3 749 595 594
3 749 594 748
3 749 748 750
3 752 753 754
3 752 754 600
3 752 600 598
3 752 598 597
3 752 597 751
3 752 751 753
3 755 756 757
3 755 757 758
3 755 758 601
3 755 601 600
3 755 600 754
3 755 754 756
3 759 760 761
3 759 761 604
3 759 604 602
3 759 602 601
3 759 601 758
3 759 758 760
3 762 763 764
3 762 764 607
3 762 607 605
3 762 605 604
3 762 604 761
3 762 761 763
3 765 766 767
3 765 767 610
3 765 610 608
3 765 608 607
3 765 607 764
3 765 764 766
3 768 769 770
3 768 770 613
3 768 613 611
3 768 611 610
3 768 610 767
3 768 767 769
3 771 772 773
3 771 773 616
3 771 616 614
3 771 614 613
3 771 613 770
3 771 770 772
3 774 775 776
3 774 776 619
3 774 619 617
3 774 617 616
3 774 616 773
3 774 773 775
3 777 778 779
3 777 779 622
3 777 622 620
3 777 620 619
3 777 619 776
3 777 776 778
3 780 781 782
3 780 782 625
3 780 625 623
3 780 623 622
3 780 622 779
3 780 779 781
3 783 784 785
3 783 785 786
3 783 786 626
3 783 626 625
3 783 625 782
3 783 782 784
3 787 788 789
3 787 789 629
3 787 629 627
3 787 627 626
3 787 626 786
3 787 786 788
3 790 791 792
3 790 792 632
3 790 632 630
3 790 630 629
3 790 629 789
3 790 789 791
3 793 794 795
3 793 795 635
3 793 635 633
3 793 633 632
3 793 632 792
3 793 792 794
3 796 797 798
3 796 798 638
3 796 638 636
3 796 636 635
3 796 635 795
3 796 795 797
3 799 800 801
3 799 801 641
3 799 641 639
3 799 639 638
3 799 638 798
3 799 798 800
3 802 803 804
3 802 804 644
3 802 644 642
3 802 642 641
3 802 641 801
3 802 801 803
3 805 806 807
3 805 807 647
3 805 647 645
3 805 645 644
3 805 644 804
3 805 804 806
3 808 809 810
3 808 810 650
3 808 650 648
3 808 648 647
3 808 647 807
3 808 807 809
3 811 812 813
3 811 813 814
3 811 814 651
3 811 651 650
3 811 650 810
3 811 810 812
3 815 816 817
3 815 817 654
3 815 654 652
3 815 652 651
3 815 651 814
3 815 814 816
3 818 819 820
3 818 820 657
3 818 657 655
3 818 655 654
3 818 654 817
3 818 817 819
3 821 822 823
3 821 823 660
3 821 660 658
3 821 658 657
3 821 657 820
3 821 820 822
3 824 825 826
3 824 826 663
3 824 663 661
3 824 661 660
3 824 660 823
3 824 823 825
3 827 828 829
3 827 829 666
3 827 666 664
3 827 664 663
3 827 663 826
3 827 826 828
3 830 831 832
3 830 832 669
3 830 669 667
3 830 667 666
3 830 666 829
3 830 829 831
3 833 834 835
3 833 835 672
3 833 672 670
3 833 670 669
3 833 669 832
3 833 832 834
3 836 837 838
3 836 838 675
3 836 675 673
3 836 673 672
3 836 672 835
3 836 835 837
3 839 840 841
3 839 841 842
3 839 842 676
3 839 676 675
3 839 675 838
3 839 838 840
3 843 844 845
3 843 845 679
3 843 679 677
3 843 677 676
3 843 676 842
3 843 842 844
3 846 847 848
3 846 848 682
3 846 682 680
3 846 680 679
3 846 679 845
3 846 845 847
3 849 850 851
3 849 851 685
3 849 685 683
3 849 683 682
3 849 682 848
3 849 848 850
3 852 853 854
3 852 854 688
3 852 688 686
3 852 686 685
3 852 685 851
3 852 851 853
3 855 856 857
3 855 857 691
3 855 691 689
3 855 689 688
3 855 688 854
3 855 854 856
3 858 859 860
3 858 860 694
3 858 694 692
3 858 692 691
3 858 691 857
3 858 857 859
3 861 862 863
3 861 863 697
3 861 697 695
3 861 695 694
3 861 694 860
3 861 860 862
3 864 865 866
3 864 866 700
3 864 700 698
3 864 698 697
3 864 697 863
3 864 863 865
3 867 868 869
3 867 869 870
3 867 870 701
3 867 701 700
3 867 700 866
3 867 866 868
3 871 872 873
3 871 873 704
3 871 704 870
3 871 870 869
3 871 869 1056
3 871 1056 872
3 874 875 876
3 874 876 707
3 874 707 705
3 874 705 704
3 874 704 873
3 874 873 875
3 877 878 879
3 877 879 710
3 877 710 708
3 877 708 707
3 877 707 876
3 877 876 878
3 880 881 882
3 880 882 713
3 880 713 711
3 880 711 710
3 880 710 879
3 880 879 881
3 883 884 885
3 883 885 716
3 883 716 714
3 883 714 713
3 883 713 882
3 883 882 884
3 886 887 888
3 886 888 719
3 886 719 717
3 886 717 716
3 886 716 885
3 886 885 887
3 889 890 891
3 889 891 722
3 889 722 720
3 889 720 719
3 889 719 888
3 889 888 890
3 892 893 894
3 892 894 725
3 892 725 723
3 892 723 722
3 892 722 891
3 892 891 893
3 895 896 897
3 895 897 728
3 895 728 726
3 895 726 725
3 895 725 894
3 895 894 896
3 898 899 900
3 898 900 901
3 898 901 729
3 898 729 728
3 898 728 897
3 898 897 899
3 902 903 904
3 902 904 732
3 902 732 730
3 902 730 729
3 902 729 901
3 902 901 903
3 905 906 907
3 905 907 735
3 905 735 733
3 905 733 732
3 905 732 904
3 905 904 906
3 908 909 910
3 908 910 738
3 908 738 736
3 908 736 735
3 908 735 907
3 908 907 909
3 911 912 913
3 911 913 741
3 911 741 739
3 911 739 738
3 911 738 910
3 911 910 912
3 914 915 916
3 914 916 744
3 914 744 742
3 914 742 741
3 914 741 913
3 914 913 915
3 917 918 919
3 917 919 747
3 917 747 745
3 917 745 744
3 917 744 916
3 917 916 918
3 920 921 922
3 920 922 750
3 920 750 748
3 920 748 747
3 920 747 919
3 920 919 921
3 923 924 925
3 923 925 753
3 923 753 751
3 923 751 750
3 923 750 922
3 923 922 924
3 926 927 928
3 926 928 756
3 926 756 754
3 926 754 753
3 926 753 925
3 926 925 927
3 929 930 931
3 929 931 932
3 929 932 757
3 929 757 756
3 929 756 928
3 929 928 930
3 933 934 935
3 933 935 760
3 933 760 758
3 933 758 757
3 933 757 932
3 933 932 934
3 936 937 938
3 936 938 763
3 936 763 761
3 936 761 760
3 936 760 935
3 936 935 937
3 939 940 941
3 939 941 766
3 939 766 764
3 939 764 763
3 939 763 938
3 939 938 940
3 942 943 944
3 942 944 769
3 942 769 767
3 942 767 766
3 942 766 941
3 942 941 943
3 945 946 947
3 945 947 772
3 945 772 770
3 945 770 769
3 945 769 944
3 945 944 946
3 948 949 950
3 948 950 775
3 948 775 773
3 948 773 772
3 948 772 947
3 948 947 949
3 951 952 953
3 951 953 778
3 951 778 776
3 951 776 775
3 951 775 950
3 951 950 952
3 954 955 956
3 954 956 781
3 954 781 779
3 954 779 778
3 954 778 953
3 954 953 955
3 957 958 959
3 957 959 784
3 957 784 782
3 957 782 781
3 957 781 956
3 957 956 958
3 960 961 962
3 960 962 963
3 960 963 785
3 960 785 784
3 960 784 959
3 960 959 961
3 964 965 966
3 964 966 788
3 964 788 786
3 964 786 785
3 964 785 963
3 964 963 965
3 967 968 969
3 967 969 791
3 967 791 789
3 967 789 788
3 967 788 966
3 967 966 968
3 970 971 972
3 970 972 794
3 970 794 792
3 970 792 791
3 970 791 969
3 970 969 971
3 973 974 975
3 973 975 797
3 973 797 795
3 973 795 794
3 973 794 972
3 973 972 974
3 976 977 978
3 976 978 800
3 976 800 798
3 976 798 797
3 976 797 975
3 976 975 977
3 979 980 981
3 979 981 803
3 979 803 801
3 979 801 800
3 979 800 978
3 979 978 980
3 982 983 984
3 982 984 806
3 982 806 804
3 982 804 803
3 982 803 981
3 982 981 983
3 985 986 987
3 985 987 809
3 985 809 807
3 985 807 806
3 985 806 984
3 985 984 986
3 988 989 990
3 988 990 812
3 988 812 810
3 988 810 809
3 988 809 987
3 988 987 989
3 991 992 993
3 991 993 994
3 991 994 813
3 991 813 812
3 991 812 990
3 991 990 992
3 995 996 997
3 995 997 816
3 995 816 814
3 995 814 813
3 995 813 994
3 995 994 996
3 998 999 1000
3 998 1000 819
3 998 819 817
3 998 817 816
3 998 816 997
3 998 997 999
3 1001 1002 1003
3 1001 1003 822
3 1001 822 820
3 1001 820 819
3 1001 819 1000
3 1001 1000 1002
3 1004 1005 1006
3 1004 1006 825
3 1004 825 823
3 1004 823 822
3 1004 822 1003
3 1004 1003 1005
3 1007 1008 1009
3 1007 1009 828
3 1007 828 826
3 1007 826 825
3 1007 825 1006
3 1007 1006 1008
3 1010 1011 1012
3 1010 1012 831
3 1010 831 829
3 1010 829 828
3 1010 828 1009
3 1010 1009 1011
3 1013 1014 1015
3 1013 1015 834
3 1013 834 832
3 1013 832 831
3 1013 831 1012
3 1013 1012 1014
3 1016 1017 1018
3 1016 1018 837
3 1016 837 835
3 1016 835 834
3 1016 834 1015
3 1016 1015 1017
3 1019 1020 1021
3 1019 1021 840
3 1019 840 838
3 1019 838 837
3 1019 837 1018
3 1019 1018 1020
3 1022 1023 1024
3 1022 1024 1025
3 1022 1025 841
3 1022 841 840
3 1022 840 1021
3 1022 1021 1023
3 1026 1027 1028
3 1026 1028 844
3 1026 844 842
3 1026 842 841
3 1026 841 1025
3 1026 1025 1027
3 1029 1030 1031
3 1029 1031 847
3 1029 847 845
3 1029 845 844
3 1029 844 1028
3 1029 1028 1030
3 1032 1033 1034
3 1032 1034 850
3 1032 850 848
3 1032 848 847
3 1032 847 1031
3 1032 1031 1033
3 1035 1036 1037
3 1035 1037 853
3 1035 853 851
3 1035 851 850
3 1035 850 1034
3 1035 1034 1036
3 1038 1039 1040
3 1038 1040 856
3 1038 856 854
3 1038 854 853
3 1038 853 1037
3 1038 1037 1039
3 1041 1042 1043
3 1041 1043 859
3 1041 859 857
3 1041 857 856
3 1041 856 1040
3 1041 1040 1042
3 1044 1045 1046
3 1044 1046 862
3 1044 862 860
3 1044 860 859
3 1044 859 1043
3 1044 1043 1045
3 1047 1048 1049
3 1047 1049 865
3 1047 865 863
3 1047 863 862
3 1047 862 1046
3 1047 1046 1048
3 1050 1051 1052
3 1050 1052 868
3 1050 868 866
3 1050 866 865
3 1050 865 1049
3 1050 1049 1051
3 1053 1054 1055
3 1053 1055 1056
3 1053 1056 869
3 1053 869 868
3 1053 868 1052
3 1053 1052 1054
