ply
format ascii 1.0
comment A synthetic hexagon, subdivided by triangles, with a Dirac delta function applied.
comment made by Bryan Wolfford
element vertex 31
property int x
property int y
property int z
property float quality
element face 42
property list uchar int32 vertex_indices
end_header
0 0 0 1
0.866025 -0.5 0 0
0.866025 0.5 0 0
6.12323e-17 1 0 0
-0.866025 0.5 0 0
-0.866025 -0.5 0 0
-1.83697e-16 -1 0 0
1.73205 0 0 0
2.59808 -0.5 0 0
2.59808 0.5 0 0
1.73205 1 0 0
0.866025 1.5 0 0
1.73205 2 0 0
0.866025 2.5 0 0
1.11022e-16 2 0 0
-0.866025 1.5 0 0
-0.866025 2.5 0 0
-1.73205 2 0 0
-1.73205 1 0 0
-1.73205 2.12115e-16 0 0
-2.59808 0.5 0 0
-2.59808 -0.5 0 0
-1.73205 -1 0 0
-0.866025 -1.5 0 0
-1.73205 -2 0 0
-0.866025 -2.5 0 0
-9.99201e-16 -2 0 0
0.866025 -1.5 0 0
0.866025 -2.5 0 0
1.73205 -2 0 0
1.73205 -1 0 0
3 0 1 2
3 0 2 3
3 0 3 4
3 0 4 5
3 0 5 6
3 0 6 1
3 7 8 9
3 7 9 10
3 7 10 2
3 7 2 1
3 7 1 30
3 7 30 8
3 11 12 13
3 11 13 14
3 11 14 3
3 11 3 2
3 11 2 10
3 11 10 12
3 15 16 17
3 15 17 18
3 15 18 4
3 15 4 3
3 15 3 14
3 15 14 16
3 19 20 21
3 19 21 22
3 19 22 5
3 19 5 4
3 19 4 18
3 19 18 20
3 23 24 25
3 23 25 26
3 23 26 6
3 23 6 5
3 23 5 22
3 23 22 24
3 27 28 29
3 27 29 30
3 27 30 1
3 27 1 6
3 27 6 26
3 27 26 28
