ply
format ascii 1.0
comment A synthetic hexagon, subdivided by triangles, with a Dirac delta function applied.
comment made by Bryan Wolfford
element vertex 31
property int x
property int y
property int z
property float quality
element face 42
property list uchar int32 vertex_indices
end_header
0 0 0 1
0.866025 0.5 0 0
0 1 0 0
-0.866025 0.5 0 0
-0.866025 -0.5 0 0
0 -1 0 0
0.866025 -0.5 0 0
0.866025 1.5 0 0
1.73205 2 0 0
0.866025 2.5 0 0
0 2 0 0
-0.866025 1.5 0 0
-0.866025 2.5 0 0
-1.73205 2 0 0
-1.73205 1 0 0
-1.73205 0 0 0
-2.59808 0.5 0 0
-2.59808 -0.5 0 0
-1.73205 -1 0 0
-0.866025 -1.5 0 0
-1.73205 -2 0 0
-0.866025 -2.5 0 0
0 -2 0 0
0.866025 -1.5 0 0
0.866025 -2.5 0 0
1.73205 -2 0 0
1.73205 -1 0 0
1.73205 0 0 0
2.59808 -0.5 0 0
2.59808 0.5 0 0
1.73205 1 0 0
3 0 1 2
3 0 2 3
3 0 3 4
3 0 4 5
3 0 5 6
3 0 6 1
3 6 7 8
3 6 8 9
3 6 9 10
3 6 10 11
3 6 11 12
3 6 12 7
3 6 7 8
3 6 8 9
3 6 9 10
3 6 10 11
3 6 11 12
3 6 12 7
3 6 7 8
3 6 8 9
3 6 9 10
3 6 10 11
3 6 11 12
3 6 12 7
3 6 7 8
3 6 8 9
3 6 9 10
3 6 10 11
3 6 11 12
3 6 12 7
3 6 7 8
3 6 8 9
3 6 9 10
3 6 10 11
3 6 11 12
3 6 12 7
3 6 7 8
3 6 8 9
3 6 9 10
3 6 10 11
3 6 11 12
3 6 12 7
