ply
format ascii 1.0
comment A synthetic hexagon, subdivided by triangles, with a Dirac delta function applied.
comment made by Bryan Wolfford
element vertex 73
property int x
property int y
property int z
property float quality
element face 114
property list uchar int32 vertex_indices
end_header
0 0 0 1
0.866025 0.5 0 0
0 1 0 0
-0.866025 0.5 0 0
-0.866025 -0.5 0 0
0 -1 0 0
0.866025 -0.5 0 0
0.866025 1.5 0 0
1.73205 2 0 0
0.866025 2.5 0 0
0 2 0 0
-0.866025 1.5 0 0
-0.866025 2.5 0 0
-1.73205 2 0 0
-1.73205 1 0 0
-1.73205 0 0 0
-2.59808 0.5 0 0
-2.59808 -0.5 0 0
-1.73205 -1 0 0
-0.866025 -1.5 0 0
-1.73205 -2 0 0
-0.866025 -2.5 0 0
0 -2 0 0
0.866025 -1.5 0 0
0.866025 -2.5 0 0
1.73205 -2 0 0
1.73205 -1 0 0
1.73205 0 0 0
2.59808 -0.5 0 0
2.59808 0.5 0 0
1.73205 1 0 0
2.59808 1.5 0 0
3.4641 2 0 0
2.59808 2.5 0 0
1.73205 3 0 0
2.59808 3.5 0 0
1.73205 4 0 0
0.866025 3.5 0 0
0 3 0 0
0 4 0 0
-0.866025 3.5 0 0
-1.73205 3 0 0
-1.73205 4 0 0
-2.59808 3.5 0 0
-2.59808 2.5 0 0
-2.59808 1.5 0 0
-3.4641 2 0 0
-3.4641 1 0 0
-3.4641 0 0 0
-4.33013 0.5 0 0
-4.33013 -0.5 0 0
-3.4641 -1 0 0
-2.59808 -1.5 0 0
-3.4641 -2 0 0
-2.59808 -2.5 0 0
-1.73205 -3 0 0
-2.59808 -3.5 0 0
-1.73205 -4 0 0
-0.866025 -3.5 0 0
0 -3 0 0
0 -4 0 0
0.866025 -3.5 0 0
1.73205 -3 0 0
1.73205 -4 0 0
2.59808 -3.5 0 0
2.59808 -2.5 0 0
2.59808 -1.5 0 0
3.4641 -2 0 0
3.4641 -1 0 0
3.4641 0 0 0
4.33013 -0.5 0 0
4.33013 0.5 0 0
3.4641 1 0 0
3 1 2 3
3 1 3 4
3 1 4 5
3 1 5 6
3 1 6 7
3 1 7 2
3 7 8 9
3 7 9 10
3 7 10 11
3 7 11 12
3 7 12 13
3 7 13 8
3 10 11 12
3 10 12 13
3 10 13 14
3 10 14 15
3 10 15 16
3 10 16 11
3 13 14 15
3 13 15 16
3 13 16 17
3 13 17 18
3 13 18 19
3 13 19 14
3 16 17 18
3 16 18 19
3 16 19 20
3 16 20 21
3 16 21 22
3 16 22 17
3 19 20 21
3 19 21 22
3 19 22 23
3 19 23 24
3 19 24 25
3 19 25 20
3 22 23 24
3 22 24 25
3 22 25 26
3 22 26 27
3 22 27 28
3 22 28 23
3 31 32 33
3 31 33 34
3 31 34 35
3 31 35 36
3 31 36 37
3 31 37 32
3 35 36 37
3 35 37 38
3 35 38 39
3 35 39 40
3 35 40 41
3 35 41 36
3 37 38 39
3 37 39 40
3 37 40 41
3 37 41 42
3 37 42 43
3 37 43 38
3 41 42 43
3 41 43 44
3 41 44 45
3 41 45 46
3 41 46 47
3 41 47 42
3 43 44 45
3 43 45 46
3 43 46 47
3 43 47 48
3 43 48 49
3 43 49 44
3 47 48 49
3 47 49 50
3 47 50 51
3 47 51 52
3 47 52 53
3 47 53 48
3 49 50 51
3 49 51 52
3 49 52 53
3 49 53 54
3 49 54 55
3 49 55 50
3 53 54 55
3 53 55 56
3 53 56 57
3 53 57 58
3 53 58 59
3 53 59 54
3 55 56 57
3 55 57 58
3 55 58 59
3 55 59 60
3 55 60 61
3 55 61 56
3 59 60 61
3 59 61 62
3 59 62 63
3 59 63 64
3 59 64 65
3 59 65 60
3 61 62 63
3 61 63 64
3 61 64 65
3 61 65 66
3 61 66 67
3 61 67 62
3 65 66 67
3 65 67 68
3 65 68 69
3 65 69 70
3 65 70 71
3 65 71 66
