ply
format ascii 1.0
comment A synthetic hexagon, subdivided by triangles, with a Dirac delta function applied.
comment made by Bryan Wolfford
element vertex 73
property int x
property int y
property int z
property float quality
element face 114
property list uchar int32 vertex_indices
end_header
0 0 0 1
-0.866025 0.5 0 0
-0.866025 -0.5 0 0
0 -1 0 0
0.866025 -0.5 0 0
0.866025 0.5 0 0
0 1 0 0
0.866025 1.5 0 0
1.73205 2 0 0
0.866025 2.5 0 0
0 2 0 0
-0.866025 1.5 0 0
-0.866025 2.5 0 0
-1.73205 2 0 0
-1.73205 1 0 0
-1.73205 0 0 0
-2.59808 0.5 0 0
-2.59808 -0.5 0 0
-1.73205 -1 0 0
-0.866025 -1.5 0 0
-1.73205 -2 0 0
-0.866025 -2.5 0 0
0 -2 0 0
0.866025 -1.5 0 0
0.866025 -2.5 0 0
1.73205 -2 0 0
1.73205 -1 0 0
1.73205 0 0 0
2.59808 -0.5 0 0
2.59808 0.5 0 0
1.73205 1 0 0
2.59808 1.5 0 0
3.4641 2 0 0
2.59808 2.5 0 0
1.73205 3 0 0
2.59808 3.5 0 0
1.73205 4 0 0
0.866025 3.5 0 0
0 3 0 0
0 4 0 0
-0.866025 3.5 0 0
-1.73205 3 0 0
-1.73205 4 0 0
-2.59808 3.5 0 0
-2.59808 2.5 0 0
-2.59808 1.5 0 0
-3.4641 2 0 0
-3.4641 1 0 0
-3.4641 0 0 0
-4.33013 0.5 0 0
-4.33013 -0.5 0 0
-3.4641 -1 0 0
-2.59808 -1.5 0 0
-3.4641 -2 0 0
-2.59808 -2.5 0 0
-1.73205 -3 0 0
-2.59808 -3.5 0 0
-1.73205 -4 0 0
-0.866025 -3.5 0 0
0 -3 0 0
0 -4 0 0
0.866025 -3.5 0 0
1.73205 -3 0 0
1.73205 -4 0 0
2.59808 -3.5 0 0
2.59808 -2.5 0 0
2.59808 -1.5 0 0
3.4641 -2 0 0
3.4641 -1 0 0
3.4641 0 0 0
4.33013 -0.5 0 0
4.33013 0.5 0 0
3.4641 1 0 0
3 0 1 2
3 0 2 3
3 0 3 4
3 0 4 5
3 0 5 6
3 0 6 1
3 7 8 9
3 7 9 10
3 7 10 6
3 7 6 5
3 7 5 30
3 7 30 8
3 11 12 13
3 11 13 14
3 11 14 1
3 11 1 6
3 11 6 10
3 11 10 12
3 15 16 17
3 15 17 18
3 15 18 2
3 15 2 1
3 15 1 14
3 15 14 16
3 19 20 21
3 19 21 22
3 19 22 3
3 19 3 2
3 19 2 18
3 19 18 20
3 23 24 25
3 23 25 26
3 23 26 4
3 23 4 3
3 23 3 22
3 23 22 24
3 27 28 29
3 27 29 30
3 27 30 5
3 27 5 4
3 27 4 26
3 27 26 28
3 31 32 33
3 31 33 8
3 31 8 30
3 31 30 29
3 31 29 72
3 31 72 32
3 34 35 36
3 34 36 37
3 34 37 9
3 34 9 8
3 34 8 33
3 34 33 35
3 38 39 40
3 38 40 12
3 38 12 10
3 38 10 9
3 38 9 37
3 38 37 39
3 41 42 43
3 41 43 44
3 41 44 13
3 41 13 12
3 41 12 40
3 41 40 42
3 45 46 47
3 45 47 16
3 45 16 14
3 45 14 13
3 45 13 44
3 45 44 46
3 48 49 50
3 48 50 51
3 48 51 17
3 48 17 16
3 48 16 47
3 48 47 49
3 52 53 54
3 52 54 20
3 52 20 18
3 52 18 17
3 52 17 51
3 52 51 53
3 55 56 57
3 55 57 58
3 55 58 21
3 55 21 20
3 55 20 54
3 55 54 56
3 59 60 61
3 59 61 24
3 59 24 22
3 59 22 21
3 59 21 58
3 59 58 60
3 62 63 64
3 62 64 65
3 62 65 25
3 62 25 24
3 62 24 61
3 62 61 63
3 66 67 68
3 66 68 28
3 66 28 26
3 66 26 25
3 66 25 65
3 66 65 67
3 69 70 71
3 69 71 72
3 69 72 29
3 69 29 28
3 69 28 68
3 69 68 70
