ply
format ascii 1.0
comment A synthetic hexagon, subdivided by triangles, with a Dirac delta function applied.
comment made by Bryan Wolfford
element vertex 31
property int x
property int y
property int z
property float quality
element face 42
property list uchar int32 vertex_indices
end_header
0 0 0 1
0.866025 0.5 0 0
0 1 0 0
-0.866025 0.5 0 0
-0.866025 -0.5 0 0
0 -1 0 0
0.866025 -0.5 0 0
0.866025 1.5 0 0
1.73205 2 0 0
0.866025 2.5 0 0
0 2 0 0
-0.866025 1.5 0 0
-0.866025 2.5 0 0
-1.73205 2 0 0
-1.73205 1 0 0
-1.73205 0 0 0
-2.59808 0.5 0 0
-2.59808 -0.5 0 0
-1.73205 -1 0 0
-0.866025 -1.5 0 0
-1.73205 -2 0 0
-0.866025 -2.5 0 0
0 -2 0 0
0.866025 -1.5 0 0
0.866025 -2.5 0 0
1.73205 -2 0 0
1.73205 -1 0 0
1.73205 0 0 0
2.59808 -0.5 0 0
2.59808 0.5 0 0
1.73205 1 0 0
3 1 2 3
3 1 3 4
3 1 4 5
3 1 5 6
3 1 6 7
3 1 7 2
3 7 8 9
3 7 9 10
3 7 10 11
3 7 11 12
3 7 12 13
3 7 13 8
3 10 11 12
3 10 12 13
3 10 13 14
3 10 14 15
3 10 15 16
3 10 16 11
3 13 14 15
3 13 15 16
3 13 16 17
3 13 17 18
3 13 18 19
3 13 19 14
3 16 17 18
3 16 18 19
3 16 19 20
3 16 20 21
3 16 21 22
3 16 22 17
3 19 20 21
3 19 21 22
3 19 22 23
3 19 23 24
3 19 24 25
3 19 25 20
3 22 23 24
3 22 24 25
3 22 25 26
3 22 26 27
3 22 27 28
3 22 28 23
